G04 #@! TF.GenerationSoftware,KiCad,Pcbnew,(6.0.9-0)*
G04 #@! TF.CreationDate,2023-12-07T00:14:05+00:00*
G04 #@! TF.ProjectId,BalanceBoard,42616c61-6e63-4654-926f-6172642e6b69,rev?*
G04 #@! TF.SameCoordinates,Original*
G04 #@! TF.FileFunction,Paste,Bot*
G04 #@! TF.FilePolarity,Positive*
%FSLAX46Y46*%
G04 Gerber Fmt 4.6, Leading zero omitted, Abs format (unit mm)*
G04 Created by KiCad (PCBNEW (6.0.9-0)) date 2023-12-07 00:14:05*
%MOMM*%
%LPD*%
G01*
G04 APERTURE LIST*
G04 Aperture macros list*
%AMRoundRect*
0 Rectangle with rounded corners*
0 $1 Rounding radius*
0 $2 $3 $4 $5 $6 $7 $8 $9 X,Y pos of 4 corners*
0 Add a 4 corners polygon primitive as box body*
4,1,4,$2,$3,$4,$5,$6,$7,$8,$9,$2,$3,0*
0 Add four circle primitives for the rounded corners*
1,1,$1+$1,$2,$3*
1,1,$1+$1,$4,$5*
1,1,$1+$1,$6,$7*
1,1,$1+$1,$8,$9*
0 Add four rect primitives between the rounded corners*
20,1,$1+$1,$2,$3,$4,$5,0*
20,1,$1+$1,$4,$5,$6,$7,0*
20,1,$1+$1,$6,$7,$8,$9,0*
20,1,$1+$1,$8,$9,$2,$3,0*%
G04 Aperture macros list end*
%ADD10R,0.700000X1.000000*%
%ADD11R,1.000000X0.700000*%
%ADD12RoundRect,0.075000X0.350000X0.075000X-0.350000X0.075000X-0.350000X-0.075000X0.350000X-0.075000X0*%
%ADD13RoundRect,0.075000X0.075000X-0.350000X0.075000X0.350000X-0.075000X0.350000X-0.075000X-0.350000X0*%
%ADD14C,2.000000*%
%ADD15R,1.250000X0.400000*%
%ADD16R,2.500000X1.500000*%
%ADD17R,1.500000X2.500000*%
%ADD18RoundRect,0.100000X0.100000X-0.650000X0.100000X0.650000X-0.100000X0.650000X-0.100000X-0.650000X0*%
%ADD19RoundRect,0.075000X0.650000X0.075000X-0.650000X0.075000X-0.650000X-0.075000X0.650000X-0.075000X0*%
%ADD20R,1.600000X0.400000*%
G04 APERTURE END LIST*
D10*
X57150000Y-133223000D03*
X55650000Y-133223000D03*
X44450000Y-167386000D03*
X45950000Y-167386000D03*
D11*
X40767000Y-157226000D03*
X40767000Y-155726000D03*
D10*
X59690000Y-143510000D03*
X58190000Y-143510000D03*
X50165000Y-165735000D03*
X51665000Y-165735000D03*
D11*
X38100000Y-168148000D03*
X38100000Y-169648000D03*
X36449000Y-168148000D03*
X36449000Y-169648000D03*
D10*
X50165000Y-167386000D03*
X51665000Y-167386000D03*
D11*
X41402000Y-168148000D03*
X41402000Y-169648000D03*
D12*
X62656000Y-130703000D03*
X62656000Y-131203000D03*
X62656000Y-131703000D03*
X62656000Y-132203000D03*
X62656000Y-132703000D03*
X62656000Y-133203000D03*
D13*
X61956000Y-133903000D03*
X61456000Y-133903000D03*
X60956000Y-133903000D03*
X60456000Y-133903000D03*
X59956000Y-133903000D03*
X59456000Y-133903000D03*
D12*
X58756000Y-133203000D03*
X58756000Y-132703000D03*
X58756000Y-132203000D03*
X58756000Y-131703000D03*
X58756000Y-131203000D03*
X58756000Y-130703000D03*
D13*
X59456000Y-130003000D03*
X59956000Y-130003000D03*
X60456000Y-130003000D03*
X60956000Y-130003000D03*
X61456000Y-130003000D03*
X61956000Y-130003000D03*
D10*
X46748000Y-153797000D03*
X48248000Y-153797000D03*
D14*
X46355000Y-155702000D03*
X41960800Y-143510000D03*
X41910000Y-135382000D03*
X41910000Y-127127000D03*
X27686000Y-172085000D03*
X53594000Y-152146000D03*
X58293000Y-146685000D03*
D15*
X31957000Y-162814000D03*
X31957000Y-162164000D03*
X31957000Y-161514000D03*
X31957000Y-160864000D03*
X31957000Y-160214000D03*
D16*
X27432000Y-166564000D03*
X31632000Y-166564000D03*
D17*
X33882000Y-163714000D03*
X33882000Y-159314000D03*
D16*
X31632000Y-156464000D03*
X27432000Y-156464000D03*
D18*
X45735000Y-165735000D03*
X45085000Y-165735000D03*
X44435000Y-165735000D03*
X43785000Y-165735000D03*
X43135000Y-165735000D03*
X42485000Y-165735000D03*
X41835000Y-165735000D03*
X41185000Y-165735000D03*
X40535000Y-165735000D03*
X39885000Y-165735000D03*
X39235000Y-165735000D03*
X38585000Y-165735000D03*
X37935000Y-165735000D03*
X37285000Y-165735000D03*
X37285000Y-158935000D03*
X37935000Y-158935000D03*
X38585000Y-158935000D03*
X39235000Y-158935000D03*
X39885000Y-158935000D03*
X40535000Y-158935000D03*
X41185000Y-158935000D03*
X41835000Y-158935000D03*
X42485000Y-158935000D03*
X43135000Y-158935000D03*
X43785000Y-158935000D03*
X44435000Y-158935000D03*
X45085000Y-158935000D03*
X45735000Y-158935000D03*
D10*
X63730000Y-143510000D03*
X62230000Y-143510000D03*
X61976000Y-135509000D03*
X63476000Y-135509000D03*
D11*
X38227000Y-157226000D03*
X38227000Y-155726000D03*
X59817000Y-135763000D03*
X59817000Y-137263000D03*
D14*
X34290000Y-146050000D03*
D10*
X51665000Y-150495000D03*
X50165000Y-150495000D03*
D14*
X72009000Y-166624000D03*
X65405000Y-131826000D03*
X66852800Y-153517600D03*
X72034400Y-161493200D03*
D11*
X39751000Y-168148000D03*
X39751000Y-169648000D03*
D10*
X51665000Y-160401000D03*
X50165000Y-160401000D03*
X51665000Y-155448000D03*
X50165000Y-155448000D03*
D14*
X34290000Y-137795000D03*
X34290000Y-129667000D03*
X71882000Y-158953200D03*
X63246000Y-159893000D03*
X34671000Y-172085000D03*
D10*
X51689000Y-158750000D03*
X50189000Y-158750000D03*
X51665000Y-152146000D03*
X50165000Y-152146000D03*
D14*
X31242000Y-172085000D03*
X28956000Y-152400000D03*
X48387000Y-169418000D03*
D11*
X62230000Y-149201000D03*
X62230000Y-147701000D03*
D14*
X65405000Y-134366000D03*
D10*
X59817000Y-128270000D03*
X58317000Y-128270000D03*
D14*
X63373000Y-168656000D03*
D10*
X46760000Y-150495000D03*
X48260000Y-150495000D03*
D14*
X64262000Y-166370000D03*
D11*
X53594000Y-164997000D03*
X53594000Y-166497000D03*
D14*
X58293000Y-149225000D03*
X34290000Y-143510000D03*
D10*
X42140000Y-146431000D03*
X40640000Y-146431000D03*
X51665000Y-153797000D03*
X50165000Y-153797000D03*
D11*
X63881000Y-149201000D03*
X63881000Y-147701000D03*
D19*
X42078000Y-148080803D03*
X42078000Y-148580803D03*
X42078000Y-149080803D03*
X42078000Y-149580803D03*
X42078000Y-150080803D03*
X37678000Y-150080803D03*
X37678000Y-149580803D03*
X37678000Y-149080803D03*
X37678000Y-148580803D03*
X37678000Y-148080803D03*
D11*
X60452000Y-149201000D03*
X60452000Y-147701000D03*
D10*
X51677000Y-157099000D03*
X50177000Y-157099000D03*
X50165000Y-163703000D03*
X51665000Y-163703000D03*
D14*
X58775600Y-170281600D03*
D20*
X55770000Y-168170363D03*
X55770000Y-167535363D03*
X55770000Y-166900363D03*
X55770000Y-166265363D03*
X55770000Y-165630363D03*
X55770000Y-164995363D03*
X55770000Y-164360363D03*
X55770000Y-163725363D03*
X55770000Y-163090363D03*
X55770000Y-162455363D03*
X55770000Y-161820363D03*
X55770000Y-161185363D03*
X61070000Y-161170363D03*
X61070000Y-161820363D03*
X61070000Y-162455363D03*
X61070000Y-163090363D03*
X61070000Y-163725363D03*
X61070000Y-164360363D03*
X61070000Y-164995363D03*
X61070000Y-165630363D03*
X61070000Y-166265363D03*
X61070000Y-166900363D03*
X61070000Y-167535363D03*
X61070000Y-168170363D03*
D14*
X34290000Y-135255000D03*
D10*
X37489000Y-146431000D03*
X38989000Y-146431000D03*
D14*
X34290000Y-127127000D03*
X63500000Y-162560000D03*
D10*
X51689000Y-162052000D03*
X50189000Y-162052000D03*
D14*
X72009000Y-164084000D03*
M02*
