G04 #@! TF.GenerationSoftware,KiCad,Pcbnew,(6.0.9-0)*
G04 #@! TF.CreationDate,2023-12-07T00:14:05+00:00*
G04 #@! TF.ProjectId,BalanceBoard,42616c61-6e63-4654-926f-6172642e6b69,rev?*
G04 #@! TF.SameCoordinates,Original*
G04 #@! TF.FileFunction,Copper,L1,Top*
G04 #@! TF.FilePolarity,Positive*
%FSLAX46Y46*%
G04 Gerber Fmt 4.6, Leading zero omitted, Abs format (unit mm)*
G04 Created by KiCad (PCBNEW (6.0.9-0)) date 2023-12-07 00:14:05*
%MOMM*%
%LPD*%
G01*
G04 APERTURE LIST*
G04 #@! TA.AperFunction,SMDPad,CuDef*
%ADD10R,0.700000X1.000000*%
G04 #@! TD*
G04 #@! TA.AperFunction,SMDPad,CuDef*
%ADD11C,2.000000*%
G04 #@! TD*
G04 #@! TA.AperFunction,ComponentPad*
%ADD12C,2.000000*%
G04 #@! TD*
G04 #@! TA.AperFunction,SMDPad,CuDef*
%ADD13R,1.000000X0.700000*%
G04 #@! TD*
G04 #@! TA.AperFunction,ViaPad*
%ADD14C,0.800000*%
G04 #@! TD*
G04 #@! TA.AperFunction,Conductor*
%ADD15C,0.250000*%
G04 #@! TD*
G04 #@! TA.AperFunction,Conductor*
%ADD16C,0.800000*%
G04 #@! TD*
G04 APERTURE END LIST*
D10*
X33655000Y-164211000D03*
X35155000Y-164211000D03*
X33655000Y-162687000D03*
X35155000Y-162687000D03*
X33655000Y-165735000D03*
X35155000Y-165735000D03*
D11*
X31496000Y-168275000D03*
X31623000Y-171704000D03*
X27940000Y-171704000D03*
X27940000Y-168275000D03*
X58801000Y-170307000D03*
D12*
X69382000Y-166624000D03*
X66842000Y-166624000D03*
X69382000Y-164084000D03*
X66842000Y-164084000D03*
X69382000Y-161544000D03*
X66842000Y-161544000D03*
X69382000Y-159004000D03*
X66842000Y-159004000D03*
X69382000Y-156464000D03*
X66842000Y-156464000D03*
D11*
X61518800Y-159080200D03*
X64389000Y-133858000D03*
X36957000Y-168783000D03*
X59690000Y-160655000D03*
X56134000Y-170307000D03*
X61595000Y-162052000D03*
X53340000Y-170307000D03*
X61595000Y-170307000D03*
X28956000Y-152400000D03*
X51181000Y-166370000D03*
X61696600Y-156667200D03*
D13*
X67183000Y-149455000D03*
X67183000Y-147955000D03*
D11*
X59461400Y-157683200D03*
X61595000Y-167513000D03*
D14*
X72390000Y-152400000D03*
X73660000Y-168910000D03*
X71120000Y-171450000D03*
X71120000Y-149860000D03*
X66040000Y-172720000D03*
X31957000Y-159178000D03*
X68580000Y-170180000D03*
X72390000Y-168910000D03*
X64770000Y-171450000D03*
X35052000Y-155702000D03*
X39243000Y-148590000D03*
X54610000Y-172720000D03*
X67310000Y-172720000D03*
X26924000Y-152400000D03*
X67310000Y-168910000D03*
X64770000Y-170180000D03*
X32004000Y-154432000D03*
X71120000Y-172720000D03*
X26924000Y-154432000D03*
X73660000Y-172720000D03*
X73660000Y-170180000D03*
X27940000Y-150368000D03*
X67310000Y-171450000D03*
X25908000Y-154432000D03*
X50800000Y-172720000D03*
X66040000Y-170180000D03*
X72390000Y-156210000D03*
X59690000Y-172720000D03*
X53340000Y-172720000D03*
X69850000Y-168910000D03*
X68580000Y-172720000D03*
X73660000Y-153670000D03*
X69850000Y-149860000D03*
X60960000Y-172720000D03*
X72390000Y-151130000D03*
X73660000Y-149860000D03*
X45974000Y-168783000D03*
X35052000Y-156845000D03*
X71120000Y-168910000D03*
X26924000Y-153416000D03*
X30988000Y-151384000D03*
X30988000Y-153416000D03*
X73660000Y-157480000D03*
X66040000Y-168910000D03*
X68580000Y-168910000D03*
X39243000Y-149987000D03*
X69850000Y-151130000D03*
X49530000Y-172720000D03*
X69850000Y-171450000D03*
X30988000Y-154432000D03*
X26924000Y-151384000D03*
X40513000Y-149987000D03*
X73660000Y-171450000D03*
X71120000Y-151130000D03*
X40513000Y-148590000D03*
X62230000Y-172720000D03*
X66040000Y-171450000D03*
X48260000Y-172720000D03*
X73660000Y-156210000D03*
X25908000Y-152400000D03*
X71120000Y-152400000D03*
X73660000Y-158750000D03*
X73660000Y-152400000D03*
X30988000Y-152400000D03*
X57150000Y-172720000D03*
X46990000Y-172720000D03*
X32004000Y-153416000D03*
X69850000Y-152400000D03*
X72390000Y-154940000D03*
X31957000Y-158035000D03*
X55880000Y-172720000D03*
X29972000Y-150368000D03*
X32004000Y-151384000D03*
X52070000Y-172720000D03*
X58420000Y-172720000D03*
X26924000Y-150368000D03*
X69850000Y-170180000D03*
X72390000Y-172720000D03*
X45720000Y-172720000D03*
X72390000Y-171450000D03*
X72390000Y-149860000D03*
X73660000Y-154940000D03*
X71120000Y-170180000D03*
X68580000Y-171450000D03*
X67310000Y-170180000D03*
X25908000Y-153416000D03*
X28956000Y-150368000D03*
X73660000Y-151130000D03*
X72390000Y-170180000D03*
X25908000Y-151384000D03*
X69850000Y-172720000D03*
X30988000Y-150368000D03*
X25908000Y-150368000D03*
X63500000Y-172720000D03*
X64770000Y-172720000D03*
X32004000Y-152400000D03*
X72390000Y-153670000D03*
X48260000Y-152400000D03*
X32004000Y-163703000D03*
X49149000Y-151511000D03*
X48260000Y-151511000D03*
X49149000Y-152400000D03*
X40495554Y-161803634D03*
X40460500Y-160528000D03*
X32004000Y-164719000D03*
X36957000Y-157480000D03*
X39751000Y-170815000D03*
X62992000Y-137922000D03*
X49149000Y-154813000D03*
X57150000Y-134493000D03*
X57150000Y-131953000D03*
X44450000Y-168783000D03*
X42926000Y-170815000D03*
X36449000Y-170815000D03*
X41402000Y-170815000D03*
X44011162Y-164131844D03*
X43307000Y-168783000D03*
X36957000Y-156464000D03*
X62992000Y-136906000D03*
X52832000Y-163830000D03*
X43307000Y-167386000D03*
X48260000Y-154813000D03*
X62484000Y-142113000D03*
X61976000Y-136906000D03*
X38100000Y-170815000D03*
X63754000Y-142113000D03*
X48260000Y-155702000D03*
X49149000Y-155702000D03*
X61976000Y-137922000D03*
X60960000Y-142113000D03*
X60960000Y-137922000D03*
X63754000Y-125984000D03*
X63881000Y-146558000D03*
X50820198Y-164719001D03*
X59385200Y-166674800D03*
X59309000Y-165481000D03*
X50546000Y-168656000D03*
X64897000Y-153797000D03*
X64516000Y-164719000D03*
X57962800Y-164592000D03*
X57277000Y-163703000D03*
X63754000Y-127000000D03*
X62230000Y-146558000D03*
X35914000Y-159766000D03*
X57150000Y-135890000D03*
X60452000Y-146558000D03*
X44069000Y-148590000D03*
X48895000Y-157099000D03*
X48895000Y-158750000D03*
X44069000Y-149733000D03*
X48895000Y-160401000D03*
X44069000Y-150876000D03*
X48895000Y-162052000D03*
X44069000Y-152019000D03*
X56134000Y-157099000D03*
X54356000Y-163068000D03*
X62230000Y-151688800D03*
X55503299Y-158754299D03*
X57531000Y-162433000D03*
X58420000Y-152146000D03*
X63500000Y-150368000D03*
X60452000Y-150368000D03*
X54610000Y-169164000D03*
X57531000Y-167513000D03*
X60198000Y-169164000D03*
X58547000Y-162978500D03*
X57200800Y-168656000D03*
X58547000Y-161798000D03*
X57531000Y-161290000D03*
X57531000Y-159639000D03*
D15*
X38862000Y-150368000D02*
X39243000Y-149987000D01*
X35433000Y-154813000D02*
X35052000Y-155194000D01*
X38608000Y-154813000D02*
X35433000Y-154813000D01*
X31957000Y-159178000D02*
X31957000Y-158035000D01*
X44831000Y-162941000D02*
X39243000Y-162941000D01*
X39243000Y-162941000D02*
X39116000Y-163068000D01*
X39116000Y-163068000D02*
X39116000Y-155321000D01*
X40513000Y-148590000D02*
X39243000Y-148590000D01*
X39243000Y-149987000D02*
X40513000Y-149987000D01*
X45974000Y-164084000D02*
X44831000Y-162941000D01*
X31957000Y-159178000D02*
X31750000Y-158971000D01*
X39116000Y-155321000D02*
X38608000Y-154813000D01*
X35052000Y-156845000D02*
X35052000Y-155702000D01*
X45974000Y-168783000D02*
X45974000Y-164084000D01*
X35052000Y-155194000D02*
X35052000Y-155702000D01*
X30988000Y-150368000D02*
X38862000Y-150368000D01*
X40460500Y-153490500D02*
X40386000Y-153416000D01*
X48260000Y-151511000D02*
X48260000Y-150495000D01*
X42672000Y-151130000D02*
X40386000Y-153416000D01*
X33528000Y-153924000D02*
X33528000Y-163449000D01*
X40005000Y-153035000D02*
X34417000Y-153035000D01*
X42672000Y-147574000D02*
X42672000Y-151130000D01*
X47498000Y-149733000D02*
X46991396Y-149733000D01*
X33655000Y-162687000D02*
X33655000Y-163576000D01*
X33655000Y-163576000D02*
X33655000Y-164211000D01*
X33655000Y-165735000D02*
X33655000Y-164211000D01*
X45466000Y-147320000D02*
X42926000Y-147320000D01*
X45974000Y-148715604D02*
X45974000Y-147828000D01*
X46991396Y-149733000D02*
X45974000Y-148715604D01*
D16*
X49149000Y-151511000D02*
X49149000Y-152400000D01*
D15*
X45974000Y-147828000D02*
X45466000Y-147320000D01*
X33528000Y-163449000D02*
X33655000Y-163576000D01*
D16*
X48260000Y-151511000D02*
X49149000Y-151511000D01*
D15*
X40386000Y-153416000D02*
X40005000Y-153035000D01*
X48260000Y-150495000D02*
X47498000Y-149733000D01*
X42926000Y-147320000D02*
X42672000Y-147574000D01*
D16*
X48260000Y-152400000D02*
X48260000Y-151511000D01*
D15*
X40460500Y-160528000D02*
X40460500Y-153490500D01*
X34417000Y-153035000D02*
X33528000Y-153924000D01*
D16*
X48260000Y-152400000D02*
X49149000Y-152400000D01*
X50038000Y-155702000D02*
X48260000Y-155702000D01*
D15*
X36957000Y-165481000D02*
X39751000Y-168275000D01*
D16*
X50673000Y-154813000D02*
X50800000Y-154940000D01*
X50800000Y-154940000D02*
X50038000Y-155702000D01*
D15*
X67183000Y-147955000D02*
X65278000Y-147955000D01*
D16*
X50800000Y-153924000D02*
X50800000Y-153416000D01*
D15*
X57023000Y-134493000D02*
X57150000Y-134493000D01*
X61976000Y-136906000D02*
X55753000Y-136906000D01*
X38227000Y-170815000D02*
X38100000Y-170815000D01*
X50292000Y-163576000D02*
X50546000Y-163830000D01*
X44069000Y-167640000D02*
X44069000Y-170815000D01*
X50038000Y-162423695D02*
X50038000Y-155702000D01*
X50038000Y-163322000D02*
X50292000Y-163576000D01*
X44011162Y-164131844D02*
X44011162Y-166173838D01*
D16*
X49149000Y-155702000D02*
X49149000Y-154813000D01*
D15*
X65278000Y-147955000D02*
X64135000Y-149098000D01*
X36957000Y-157226000D02*
X36957000Y-165481000D01*
X44011162Y-167582162D02*
X44069000Y-167640000D01*
X44450000Y-168783000D02*
X43307000Y-168783000D01*
X44069000Y-170815000D02*
X42926000Y-170815000D01*
D16*
X48260000Y-154813000D02*
X49149000Y-154813000D01*
X48260000Y-154813000D02*
X48260000Y-155702000D01*
X49149000Y-154813000D02*
X50673000Y-154813000D01*
D15*
X40767000Y-168275000D02*
X38227000Y-170815000D01*
X43307000Y-167386000D02*
X43307000Y-168783000D01*
X62992000Y-137922000D02*
X63754000Y-138684000D01*
D16*
X50800000Y-153416000D02*
X50800000Y-154940000D01*
D15*
X50546000Y-163830000D02*
X52832000Y-163830000D01*
X50038000Y-162423695D02*
X50038000Y-163322000D01*
X43307000Y-167386000D02*
X44011162Y-166681838D01*
X56388000Y-137541000D02*
X55753000Y-136906000D01*
X39751000Y-168275000D02*
X40767000Y-168275000D01*
X55753000Y-135763000D02*
X57023000Y-134493000D01*
X56388000Y-142621000D02*
X56388000Y-137541000D01*
X44011162Y-166173838D02*
X44011162Y-167582162D01*
X44011162Y-166681838D02*
X44011162Y-166173838D01*
X55753000Y-136906000D02*
X55753000Y-135763000D01*
X64135000Y-149098000D02*
X62865000Y-149098000D01*
X63754000Y-138684000D02*
X63754000Y-142113000D01*
D16*
X60960000Y-137922000D02*
X60960000Y-142113000D01*
X66675000Y-125984000D02*
X67437000Y-126746000D01*
X63754000Y-125984000D02*
X66675000Y-125984000D01*
X67437000Y-143002000D02*
X63881000Y-146558000D01*
X67437000Y-126746000D02*
X67437000Y-143002000D01*
D15*
X55981600Y-167386000D02*
X52197000Y-167386000D01*
X57073800Y-166293800D02*
X55981600Y-167386000D01*
X52197000Y-167386000D02*
X51181000Y-166370000D01*
X50820198Y-164719001D02*
X50820198Y-166009198D01*
X59004200Y-166293800D02*
X57073800Y-166293800D01*
X50820198Y-166009198D02*
X51181000Y-166370000D01*
X59385200Y-166674800D02*
X59004200Y-166293800D01*
X61595000Y-167513000D02*
X58750200Y-167513000D01*
X58750200Y-167513000D02*
X58013600Y-166776400D01*
D16*
X61595000Y-165836600D02*
X61595000Y-167513000D01*
X59309000Y-165481000D02*
X61239400Y-165481000D01*
D15*
X54025800Y-167944800D02*
X56073895Y-167944800D01*
X57242295Y-166776400D02*
X58013600Y-166776400D01*
D16*
X61239400Y-165481000D02*
X61595000Y-165836600D01*
D15*
X56073895Y-167944800D02*
X57242295Y-166776400D01*
X53314600Y-168656000D02*
X54025800Y-167944800D01*
X50546000Y-168656000D02*
X53314600Y-168656000D01*
D16*
X67413000Y-149455000D02*
X68072000Y-150114000D01*
X71247000Y-155575000D02*
X70231000Y-154559000D01*
D15*
X59563000Y-164719000D02*
X59436000Y-164592000D01*
D16*
X67183000Y-149455000D02*
X67413000Y-149455000D01*
X70231000Y-154559000D02*
X67691000Y-154559000D01*
X71247000Y-158496000D02*
X71247000Y-155575000D01*
X68072000Y-154178000D02*
X67691000Y-154559000D01*
X67691000Y-154559000D02*
X65659000Y-154559000D01*
X70739000Y-159004000D02*
X71247000Y-158496000D01*
X65659000Y-154559000D02*
X64897000Y-153797000D01*
D15*
X64516000Y-164719000D02*
X59563000Y-164719000D01*
D16*
X68072000Y-150114000D02*
X68072000Y-154178000D01*
X69382000Y-159004000D02*
X70739000Y-159004000D01*
D15*
X59436000Y-164592000D02*
X57962800Y-164592000D01*
X66573400Y-161544000D02*
X66842000Y-161544000D01*
X61696600Y-156667200D02*
X66573400Y-161544000D01*
D16*
X61965200Y-156667200D02*
X61696600Y-156667200D01*
X66842000Y-161544000D02*
X61965200Y-156667200D01*
D15*
X65024000Y-163703000D02*
X65405000Y-164084000D01*
X57277000Y-163703000D02*
X65024000Y-163703000D01*
X65405000Y-164084000D02*
X66842000Y-164084000D01*
D16*
X62466786Y-146558000D02*
X66437000Y-142587786D01*
X66437000Y-127651000D02*
X65786000Y-127000000D01*
X65786000Y-127000000D02*
X63754000Y-127000000D01*
X62230000Y-146558000D02*
X62466786Y-146558000D01*
X66437000Y-142587786D02*
X66437000Y-127651000D01*
D15*
X35914000Y-167740000D02*
X36957000Y-168783000D01*
X35914000Y-167740000D02*
X35914000Y-159766000D01*
D16*
X64262000Y-135763000D02*
X57277000Y-135763000D01*
X65437000Y-136938000D02*
X64262000Y-135763000D01*
X57277000Y-135763000D02*
X57150000Y-135890000D01*
X64389000Y-135636000D02*
X64262000Y-135763000D01*
X62052572Y-145558000D02*
X65437000Y-142173572D01*
X64389000Y-133858000D02*
X64389000Y-135636000D01*
X60706000Y-146558000D02*
X61706000Y-145558000D01*
X61706000Y-145558000D02*
X62052572Y-145558000D01*
X65437000Y-142173572D02*
X65437000Y-136938000D01*
X60452000Y-146558000D02*
X60706000Y-146558000D01*
D15*
X45694000Y-150721604D02*
X45694000Y-154912604D01*
X44831698Y-149859302D02*
X45694000Y-150721604D01*
X44069000Y-148590000D02*
X44831698Y-149352698D01*
X47880396Y-157099000D02*
X48895000Y-157099000D01*
X44831698Y-149352698D02*
X44831698Y-149859302D01*
X45694000Y-154912604D02*
X47880396Y-157099000D01*
X45244000Y-155099000D02*
X48895000Y-158750000D01*
X44069000Y-149733000D02*
X45244000Y-150908000D01*
X45244000Y-150908000D02*
X45244000Y-155099000D01*
X48895000Y-159775305D02*
X48895000Y-160401000D01*
X44069000Y-150876000D02*
X44794000Y-151601000D01*
X44794000Y-151601000D02*
X44794000Y-155285396D01*
X44794000Y-155285396D02*
X48132302Y-158623698D01*
X48132302Y-159012607D02*
X48895000Y-159775305D01*
X48132302Y-158623698D02*
X48132302Y-159012607D01*
X48895000Y-161426305D02*
X48895000Y-162052000D01*
X47623604Y-159383604D02*
X48170000Y-159930000D01*
X48170000Y-160701305D02*
X48895000Y-161426305D01*
X44344000Y-152294000D02*
X44344000Y-155471792D01*
X44069000Y-152019000D02*
X44344000Y-152294000D01*
X44344000Y-155471792D02*
X47623604Y-158751396D01*
X48170000Y-159930000D02*
X48170000Y-160701305D01*
X47623604Y-158751396D02*
X47623604Y-159383604D01*
D16*
X54356000Y-163068000D02*
X54356000Y-157861000D01*
X55118000Y-157099000D02*
X56134000Y-157099000D01*
X54356000Y-157861000D02*
X55118000Y-157099000D01*
X61772800Y-152146000D02*
X62230000Y-151688800D01*
X58420000Y-152146000D02*
X61772800Y-152146000D01*
X56515000Y-162433000D02*
X55503299Y-161421299D01*
X57531000Y-162433000D02*
X56515000Y-162433000D01*
X55503299Y-161421299D02*
X55503299Y-158754299D01*
X63500000Y-150368000D02*
X60452000Y-150368000D01*
X54610000Y-169164000D02*
X54991000Y-169164000D01*
X54991000Y-169164000D02*
X56134000Y-170307000D01*
D15*
X56286400Y-168427400D02*
X54229000Y-168427400D01*
X53340000Y-169316400D02*
X53340000Y-170307000D01*
X57531000Y-167513000D02*
X57200800Y-167513000D01*
X57200800Y-167513000D02*
X56286400Y-168427400D01*
X54229000Y-168427400D02*
X53340000Y-169316400D01*
D16*
X60198000Y-169164000D02*
X60452000Y-169164000D01*
X60452000Y-169164000D02*
X61595000Y-170307000D01*
X58547000Y-162978500D02*
X60668500Y-162978500D01*
X60668500Y-162978500D02*
X61595000Y-162052000D01*
X57200800Y-168656000D02*
X57200800Y-168706800D01*
X57200800Y-168706800D02*
X58801000Y-170307000D01*
X58547000Y-161798000D02*
X59690000Y-160655000D01*
D15*
X57912000Y-161290000D02*
X57531000Y-161290000D01*
X58166000Y-160147000D02*
X58166000Y-161036000D01*
X61518800Y-159080200D02*
X59232800Y-159080200D01*
X58166000Y-161036000D02*
X57912000Y-161290000D01*
X59232800Y-159080200D02*
X58166000Y-160147000D01*
D16*
X57531000Y-159613600D02*
X59461400Y-157683200D01*
X57531000Y-159639000D02*
X57531000Y-159613600D01*
G04 #@! TA.AperFunction,Conductor*
G36*
X47041154Y-145940700D02*
G01*
X47087669Y-145994337D01*
X47099077Y-146046623D01*
X47100517Y-147808331D01*
X47099899Y-147815416D01*
X47098425Y-147818973D01*
X47096520Y-147818973D01*
X47112515Y-148022262D01*
X47113671Y-148027076D01*
X47113671Y-148027078D01*
X47156036Y-148203549D01*
X47160116Y-148220546D01*
X47162008Y-148225113D01*
X47162009Y-148225117D01*
X47227807Y-148383970D01*
X47238150Y-148408942D01*
X47240736Y-148413162D01*
X47240739Y-148413168D01*
X47291423Y-148495877D01*
X47344695Y-148582811D01*
X47347910Y-148586575D01*
X47347912Y-148586578D01*
X47443909Y-148698976D01*
X47477129Y-148737871D01*
X47632189Y-148870305D01*
X47679656Y-148899392D01*
X47801832Y-148974261D01*
X47801838Y-148974264D01*
X47806058Y-148976850D01*
X47810633Y-148978745D01*
X47810637Y-148978747D01*
X47989883Y-149052991D01*
X47989887Y-149052992D01*
X47994454Y-149054884D01*
X47999261Y-149056038D01*
X47999264Y-149056039D01*
X48187922Y-149101329D01*
X48187924Y-149101329D01*
X48192738Y-149102485D01*
X48396027Y-149118480D01*
X48396027Y-149116575D01*
X48400340Y-149114788D01*
X48403365Y-149114474D01*
X49378993Y-149114474D01*
X49447114Y-149134476D01*
X49493607Y-149188132D01*
X49504990Y-149239615D01*
X49529997Y-152907560D01*
X49530000Y-152908419D01*
X49530000Y-153417000D01*
X49509998Y-153485121D01*
X49456342Y-153531614D01*
X49404000Y-153543000D01*
X46145500Y-153543000D01*
X46077379Y-153522998D01*
X46030886Y-153469342D01*
X46019500Y-153417000D01*
X46019500Y-150741317D01*
X46019979Y-150730336D01*
X46022303Y-150703774D01*
X46022303Y-150703772D01*
X46023263Y-150692797D01*
X46013508Y-150656387D01*
X46011133Y-150645676D01*
X46006501Y-150619410D01*
X46004588Y-150608559D01*
X45999078Y-150599015D01*
X45997886Y-150595739D01*
X45996407Y-150592568D01*
X45993554Y-150581920D01*
X45971940Y-150551052D01*
X45966036Y-150541783D01*
X45952707Y-150518696D01*
X45952704Y-150518692D01*
X45947194Y-150509149D01*
X45918330Y-150484929D01*
X45910227Y-150477504D01*
X45194103Y-149761381D01*
X45160078Y-149699068D01*
X45157198Y-149672285D01*
X45157198Y-149372408D01*
X45157678Y-149361426D01*
X45160001Y-149334878D01*
X45160001Y-149334876D01*
X45160962Y-149323891D01*
X45151206Y-149287483D01*
X45148828Y-149276756D01*
X45146131Y-149261463D01*
X45142286Y-149239653D01*
X45136775Y-149230108D01*
X45135583Y-149226832D01*
X45134106Y-149223664D01*
X45131252Y-149213014D01*
X45109643Y-149182154D01*
X45103737Y-149172883D01*
X45090405Y-149149792D01*
X45084892Y-149140243D01*
X45056015Y-149116013D01*
X45047913Y-149108587D01*
X44701709Y-148762383D01*
X44667683Y-148700071D01*
X44665882Y-148656842D01*
X44673604Y-148598188D01*
X44674682Y-148590000D01*
X44654044Y-148433238D01*
X44593536Y-148287159D01*
X44497282Y-148161718D01*
X44371841Y-148065464D01*
X44225762Y-148004956D01*
X44069000Y-147984318D01*
X43912238Y-148004956D01*
X43766159Y-148065464D01*
X43640718Y-148161718D01*
X43544464Y-148287159D01*
X43483956Y-148433238D01*
X43463318Y-148590000D01*
X43483956Y-148746762D01*
X43544464Y-148892841D01*
X43640718Y-149018282D01*
X43647264Y-149023305D01*
X43697089Y-149061537D01*
X43738956Y-149118875D01*
X43743178Y-149189746D01*
X43708414Y-149251649D01*
X43697089Y-149261463D01*
X43640718Y-149304718D01*
X43544464Y-149430159D01*
X43483956Y-149576238D01*
X43463318Y-149733000D01*
X43483956Y-149889762D01*
X43544464Y-150035841D01*
X43640718Y-150161282D01*
X43647264Y-150166305D01*
X43697089Y-150204537D01*
X43738956Y-150261875D01*
X43743178Y-150332746D01*
X43708414Y-150394649D01*
X43697089Y-150404463D01*
X43647264Y-150442695D01*
X43640718Y-150447718D01*
X43544464Y-150573159D01*
X43483956Y-150719238D01*
X43463318Y-150876000D01*
X43483956Y-151032762D01*
X43544464Y-151178841D01*
X43640718Y-151304282D01*
X43647264Y-151309305D01*
X43697089Y-151347537D01*
X43738956Y-151404875D01*
X43743178Y-151475746D01*
X43708414Y-151537649D01*
X43697089Y-151547463D01*
X43640718Y-151590718D01*
X43544464Y-151716159D01*
X43483956Y-151862238D01*
X43463318Y-152019000D01*
X43483956Y-152175762D01*
X43544464Y-152321841D01*
X43640718Y-152447282D01*
X43766159Y-152543536D01*
X43912238Y-152604044D01*
X43920426Y-152605122D01*
X43925110Y-152606377D01*
X43985733Y-152643328D01*
X44016755Y-152707189D01*
X44018500Y-152728084D01*
X44018500Y-155452082D01*
X44018020Y-155463064D01*
X44014736Y-155500599D01*
X44017590Y-155511248D01*
X44024491Y-155537002D01*
X44026870Y-155547734D01*
X44033412Y-155584837D01*
X44038923Y-155594382D01*
X44040115Y-155597658D01*
X44041592Y-155600826D01*
X44044446Y-155611476D01*
X44050770Y-155620507D01*
X44066055Y-155642336D01*
X44071961Y-155651607D01*
X44078331Y-155662639D01*
X44090806Y-155684247D01*
X44099251Y-155691333D01*
X44119682Y-155708477D01*
X44127785Y-155715903D01*
X45556095Y-157144213D01*
X45590121Y-157206525D01*
X45593000Y-157233308D01*
X45593000Y-157353000D01*
X45712691Y-157353000D01*
X45780812Y-157373002D01*
X45801786Y-157389905D01*
X47261199Y-158849318D01*
X47295225Y-158911630D01*
X47298104Y-158938413D01*
X47298104Y-159363894D01*
X47297624Y-159374876D01*
X47294340Y-159412411D01*
X47297194Y-159423060D01*
X47304095Y-159448814D01*
X47306474Y-159459546D01*
X47313016Y-159496649D01*
X47318527Y-159506194D01*
X47319719Y-159509470D01*
X47321196Y-159512638D01*
X47324050Y-159523288D01*
X47345659Y-159554148D01*
X47351565Y-159563419D01*
X47364897Y-159586510D01*
X47370410Y-159596059D01*
X47378855Y-159603145D01*
X47399286Y-159620289D01*
X47407389Y-159627715D01*
X47807595Y-160027921D01*
X47841621Y-160090233D01*
X47844500Y-160117016D01*
X47844500Y-160681595D01*
X47844020Y-160692577D01*
X47843035Y-160703841D01*
X47840736Y-160730112D01*
X47843590Y-160740761D01*
X47850491Y-160766515D01*
X47852870Y-160777247D01*
X47859412Y-160814350D01*
X47864923Y-160823895D01*
X47866115Y-160827171D01*
X47867592Y-160830339D01*
X47870446Y-160840989D01*
X47876770Y-160850020D01*
X47892055Y-160871849D01*
X47897961Y-160881120D01*
X47911293Y-160904211D01*
X47916806Y-160913760D01*
X47925251Y-160920846D01*
X47945682Y-160937990D01*
X47953785Y-160945416D01*
X48461069Y-161452700D01*
X48495095Y-161515012D01*
X48490030Y-161585827D01*
X48466022Y-161623184D01*
X48466718Y-161623718D01*
X48370464Y-161749159D01*
X48309956Y-161895238D01*
X48289318Y-162052000D01*
X48309956Y-162208762D01*
X48313116Y-162216391D01*
X48330675Y-162258782D01*
X48338264Y-162329372D01*
X48306485Y-162392859D01*
X48245427Y-162429086D01*
X48214266Y-162433000D01*
X40131001Y-162433000D01*
X40062880Y-162412998D01*
X40016387Y-162359342D01*
X40005001Y-162307000D01*
X40005000Y-153561115D01*
X40005000Y-153543000D01*
X34163000Y-153543000D01*
X34163000Y-161553000D01*
X34142998Y-161621121D01*
X34089342Y-161667614D01*
X34037000Y-161679000D01*
X33927115Y-161679000D01*
X33911876Y-161683475D01*
X33910671Y-161684865D01*
X33909000Y-161692548D01*
X33909000Y-166724884D01*
X33913475Y-166740123D01*
X33914865Y-166741328D01*
X33922548Y-166742999D01*
X34037000Y-166742999D01*
X34105121Y-166763001D01*
X34151614Y-166816657D01*
X34163000Y-166868999D01*
X34163000Y-173829474D01*
X34142998Y-173897595D01*
X34089342Y-173944088D01*
X34037000Y-173955474D01*
X26684098Y-173955474D01*
X26684098Y-173953349D01*
X26680502Y-173953985D01*
X26679025Y-173953373D01*
X26675352Y-173954895D01*
X26674215Y-173955096D01*
X26494222Y-173940933D01*
X26474702Y-173937842D01*
X26304089Y-173896884D01*
X26285292Y-173890776D01*
X26123191Y-173823634D01*
X26105575Y-173814658D01*
X25955975Y-173722984D01*
X25939979Y-173711362D01*
X25806565Y-173597416D01*
X25792584Y-173583435D01*
X25678638Y-173450021D01*
X25667016Y-173434025D01*
X25575342Y-173284425D01*
X25566366Y-173266808D01*
X25517272Y-173148282D01*
X25499224Y-173104708D01*
X25493115Y-173085907D01*
X25459125Y-172944320D01*
X25457289Y-172936670D01*
X27072160Y-172936670D01*
X27077887Y-172944320D01*
X27249042Y-173049205D01*
X27257837Y-173053687D01*
X27467988Y-173140734D01*
X27477373Y-173143783D01*
X27698554Y-173196885D01*
X27708301Y-173198428D01*
X27935070Y-173216275D01*
X27944930Y-173216275D01*
X28171699Y-173198428D01*
X28181446Y-173196885D01*
X28402627Y-173143783D01*
X28412012Y-173140734D01*
X28622163Y-173053687D01*
X28630958Y-173049205D01*
X28798445Y-172946568D01*
X28807400Y-172936670D01*
X30755160Y-172936670D01*
X30760887Y-172944320D01*
X30932042Y-173049205D01*
X30940837Y-173053687D01*
X31150988Y-173140734D01*
X31160373Y-173143783D01*
X31381554Y-173196885D01*
X31391301Y-173198428D01*
X31618070Y-173216275D01*
X31627930Y-173216275D01*
X31854699Y-173198428D01*
X31864446Y-173196885D01*
X32085627Y-173143783D01*
X32095012Y-173140734D01*
X32305163Y-173053687D01*
X32313958Y-173049205D01*
X32481445Y-172946568D01*
X32490907Y-172936110D01*
X32487124Y-172927334D01*
X31635812Y-172076022D01*
X31621868Y-172068408D01*
X31620035Y-172068539D01*
X31613420Y-172072790D01*
X30761920Y-172924290D01*
X30755160Y-172936670D01*
X28807400Y-172936670D01*
X28807907Y-172936110D01*
X28804124Y-172927334D01*
X27952812Y-172076022D01*
X27938868Y-172068408D01*
X27937035Y-172068539D01*
X27930420Y-172072790D01*
X27078920Y-172924290D01*
X27072160Y-172936670D01*
X25457289Y-172936670D01*
X25452158Y-172915298D01*
X25449066Y-172895774D01*
X25434891Y-172715612D01*
X25435082Y-172714704D01*
X25436627Y-172710975D01*
X25436122Y-172709755D01*
X25436935Y-172705884D01*
X25434519Y-172705887D01*
X25434499Y-172689974D01*
X25434562Y-172688782D01*
X25434497Y-172688330D01*
X25434347Y-172568124D01*
X25433274Y-171708930D01*
X26427725Y-171708930D01*
X26445572Y-171935699D01*
X26447115Y-171945446D01*
X26500217Y-172166627D01*
X26503266Y-172176012D01*
X26590313Y-172386163D01*
X26594795Y-172394958D01*
X26697432Y-172562445D01*
X26707890Y-172571907D01*
X26716666Y-172568124D01*
X27567978Y-171716812D01*
X27574356Y-171705132D01*
X28304408Y-171705132D01*
X28304539Y-171706965D01*
X28308790Y-171713580D01*
X29160290Y-172565080D01*
X29172670Y-172571840D01*
X29180320Y-172566113D01*
X29285205Y-172394958D01*
X29289687Y-172386163D01*
X29376734Y-172176012D01*
X29379783Y-172166627D01*
X29432885Y-171945446D01*
X29434428Y-171935699D01*
X29452275Y-171708930D01*
X30110725Y-171708930D01*
X30128572Y-171935699D01*
X30130115Y-171945446D01*
X30183217Y-172166627D01*
X30186266Y-172176012D01*
X30273313Y-172386163D01*
X30277795Y-172394958D01*
X30380432Y-172562445D01*
X30390890Y-172571907D01*
X30399666Y-172568124D01*
X31250978Y-171716812D01*
X31257356Y-171705132D01*
X31987408Y-171705132D01*
X31987539Y-171706965D01*
X31991790Y-171713580D01*
X32843290Y-172565080D01*
X32855670Y-172571840D01*
X32863320Y-172566113D01*
X32968205Y-172394958D01*
X32972687Y-172386163D01*
X33059734Y-172176012D01*
X33062783Y-172166627D01*
X33115885Y-171945446D01*
X33117428Y-171935699D01*
X33135275Y-171708930D01*
X33135275Y-171699070D01*
X33117428Y-171472301D01*
X33115885Y-171462554D01*
X33062783Y-171241373D01*
X33059734Y-171231988D01*
X32972687Y-171021837D01*
X32968205Y-171013042D01*
X32865568Y-170845555D01*
X32855110Y-170836093D01*
X32846334Y-170839876D01*
X31995022Y-171691188D01*
X31987408Y-171705132D01*
X31257356Y-171705132D01*
X31258592Y-171702868D01*
X31258461Y-171701035D01*
X31254210Y-171694420D01*
X30402710Y-170842920D01*
X30390330Y-170836160D01*
X30382680Y-170841887D01*
X30277795Y-171013042D01*
X30273313Y-171021837D01*
X30186266Y-171231988D01*
X30183217Y-171241373D01*
X30130115Y-171462554D01*
X30128572Y-171472301D01*
X30110725Y-171699070D01*
X30110725Y-171708930D01*
X29452275Y-171708930D01*
X29452275Y-171699070D01*
X29434428Y-171472301D01*
X29432885Y-171462554D01*
X29379783Y-171241373D01*
X29376734Y-171231988D01*
X29289687Y-171021837D01*
X29285205Y-171013042D01*
X29182568Y-170845555D01*
X29172110Y-170836093D01*
X29163334Y-170839876D01*
X28312022Y-171691188D01*
X28304408Y-171705132D01*
X27574356Y-171705132D01*
X27575592Y-171702868D01*
X27575461Y-171701035D01*
X27571210Y-171694420D01*
X26719710Y-170842920D01*
X26707330Y-170836160D01*
X26699680Y-170841887D01*
X26594795Y-171013042D01*
X26590313Y-171021837D01*
X26503266Y-171231988D01*
X26500217Y-171241373D01*
X26447115Y-171462554D01*
X26445572Y-171472301D01*
X26427725Y-171699070D01*
X26427725Y-171708930D01*
X25433274Y-171708930D01*
X25431730Y-170471890D01*
X27072093Y-170471890D01*
X27075876Y-170480666D01*
X27927188Y-171331978D01*
X27941132Y-171339592D01*
X27942965Y-171339461D01*
X27949580Y-171335210D01*
X28801080Y-170483710D01*
X28807534Y-170471890D01*
X30755093Y-170471890D01*
X30758876Y-170480666D01*
X31610188Y-171331978D01*
X31624132Y-171339592D01*
X31625965Y-171339461D01*
X31632580Y-171335210D01*
X32484080Y-170483710D01*
X32490840Y-170471330D01*
X32485113Y-170463680D01*
X32313958Y-170358795D01*
X32305163Y-170354313D01*
X32095012Y-170267266D01*
X32085627Y-170264217D01*
X31864446Y-170211115D01*
X31854699Y-170209572D01*
X31627930Y-170191725D01*
X31618070Y-170191725D01*
X31391301Y-170209572D01*
X31381554Y-170211115D01*
X31160373Y-170264217D01*
X31150988Y-170267266D01*
X30940837Y-170354313D01*
X30932042Y-170358795D01*
X30764555Y-170461432D01*
X30755093Y-170471890D01*
X28807534Y-170471890D01*
X28807840Y-170471330D01*
X28802113Y-170463680D01*
X28630958Y-170358795D01*
X28622163Y-170354313D01*
X28412012Y-170267266D01*
X28402627Y-170264217D01*
X28181446Y-170211115D01*
X28171699Y-170209572D01*
X27944930Y-170191725D01*
X27935070Y-170191725D01*
X27708301Y-170209572D01*
X27698554Y-170211115D01*
X27477373Y-170264217D01*
X27467988Y-170267266D01*
X27257837Y-170354313D01*
X27249042Y-170358795D01*
X27081555Y-170461432D01*
X27072093Y-170471890D01*
X25431730Y-170471890D01*
X25430526Y-169507670D01*
X27072160Y-169507670D01*
X27077887Y-169515320D01*
X27249042Y-169620205D01*
X27257837Y-169624687D01*
X27467988Y-169711734D01*
X27477373Y-169714783D01*
X27698554Y-169767885D01*
X27708301Y-169769428D01*
X27935070Y-169787275D01*
X27944930Y-169787275D01*
X28171699Y-169769428D01*
X28181446Y-169767885D01*
X28402627Y-169714783D01*
X28412012Y-169711734D01*
X28622163Y-169624687D01*
X28630958Y-169620205D01*
X28798445Y-169517568D01*
X28807400Y-169507670D01*
X30628160Y-169507670D01*
X30633887Y-169515320D01*
X30805042Y-169620205D01*
X30813837Y-169624687D01*
X31023988Y-169711734D01*
X31033373Y-169714783D01*
X31254554Y-169767885D01*
X31264301Y-169769428D01*
X31491070Y-169787275D01*
X31500930Y-169787275D01*
X31727699Y-169769428D01*
X31737446Y-169767885D01*
X31958627Y-169714783D01*
X31968012Y-169711734D01*
X32178163Y-169624687D01*
X32186958Y-169620205D01*
X32354445Y-169517568D01*
X32363907Y-169507110D01*
X32360124Y-169498334D01*
X31508812Y-168647022D01*
X31494868Y-168639408D01*
X31493035Y-168639539D01*
X31486420Y-168643790D01*
X30634920Y-169495290D01*
X30628160Y-169507670D01*
X28807400Y-169507670D01*
X28807907Y-169507110D01*
X28804124Y-169498334D01*
X27952812Y-168647022D01*
X27938868Y-168639408D01*
X27937035Y-168639539D01*
X27930420Y-168643790D01*
X27078920Y-169495290D01*
X27072160Y-169507670D01*
X25430526Y-169507670D01*
X25428994Y-168279930D01*
X26427725Y-168279930D01*
X26445572Y-168506699D01*
X26447115Y-168516446D01*
X26500217Y-168737627D01*
X26503266Y-168747012D01*
X26590313Y-168957163D01*
X26594795Y-168965958D01*
X26697432Y-169133445D01*
X26707890Y-169142907D01*
X26716666Y-169139124D01*
X27567978Y-168287812D01*
X27574356Y-168276132D01*
X28304408Y-168276132D01*
X28304539Y-168277965D01*
X28308790Y-168284580D01*
X29160290Y-169136080D01*
X29172670Y-169142840D01*
X29180320Y-169137113D01*
X29285205Y-168965958D01*
X29289687Y-168957163D01*
X29376734Y-168747012D01*
X29379783Y-168737627D01*
X29432885Y-168516446D01*
X29434428Y-168506699D01*
X29452275Y-168279930D01*
X29983725Y-168279930D01*
X30001572Y-168506699D01*
X30003115Y-168516446D01*
X30056217Y-168737627D01*
X30059266Y-168747012D01*
X30146313Y-168957163D01*
X30150795Y-168965958D01*
X30253432Y-169133445D01*
X30263890Y-169142907D01*
X30272666Y-169139124D01*
X31123978Y-168287812D01*
X31130356Y-168276132D01*
X31860408Y-168276132D01*
X31860539Y-168277965D01*
X31864790Y-168284580D01*
X32716290Y-169136080D01*
X32728670Y-169142840D01*
X32736320Y-169137113D01*
X32841205Y-168965958D01*
X32845687Y-168957163D01*
X32932734Y-168747012D01*
X32935783Y-168737627D01*
X32988885Y-168516446D01*
X32990428Y-168506699D01*
X33008275Y-168279930D01*
X33008275Y-168270070D01*
X32990428Y-168043301D01*
X32988885Y-168033554D01*
X32935783Y-167812373D01*
X32932734Y-167802988D01*
X32845687Y-167592837D01*
X32841205Y-167584042D01*
X32738568Y-167416555D01*
X32728110Y-167407093D01*
X32719334Y-167410876D01*
X31868022Y-168262188D01*
X31860408Y-168276132D01*
X31130356Y-168276132D01*
X31131592Y-168273868D01*
X31131461Y-168272035D01*
X31127210Y-168265420D01*
X30275710Y-167413920D01*
X30263330Y-167407160D01*
X30255680Y-167412887D01*
X30150795Y-167584042D01*
X30146313Y-167592837D01*
X30059266Y-167802988D01*
X30056217Y-167812373D01*
X30003115Y-168033554D01*
X30001572Y-168043301D01*
X29983725Y-168270070D01*
X29983725Y-168279930D01*
X29452275Y-168279930D01*
X29452275Y-168270070D01*
X29434428Y-168043301D01*
X29432885Y-168033554D01*
X29379783Y-167812373D01*
X29376734Y-167802988D01*
X29289687Y-167592837D01*
X29285205Y-167584042D01*
X29182568Y-167416555D01*
X29172110Y-167407093D01*
X29163334Y-167410876D01*
X28312022Y-168262188D01*
X28304408Y-168276132D01*
X27574356Y-168276132D01*
X27575592Y-168273868D01*
X27575461Y-168272035D01*
X27571210Y-168265420D01*
X26719710Y-167413920D01*
X26707330Y-167407160D01*
X26699680Y-167412887D01*
X26594795Y-167584042D01*
X26590313Y-167592837D01*
X26503266Y-167802988D01*
X26500217Y-167812373D01*
X26447115Y-168033554D01*
X26445572Y-168043301D01*
X26427725Y-168270070D01*
X26427725Y-168279930D01*
X25428994Y-168279930D01*
X25427450Y-167042890D01*
X27072093Y-167042890D01*
X27075876Y-167051666D01*
X27927188Y-167902978D01*
X27941132Y-167910592D01*
X27942965Y-167910461D01*
X27949580Y-167906210D01*
X28801080Y-167054710D01*
X28807534Y-167042890D01*
X30628093Y-167042890D01*
X30631876Y-167051666D01*
X31483188Y-167902978D01*
X31497132Y-167910592D01*
X31498965Y-167910461D01*
X31505580Y-167906210D01*
X32357080Y-167054710D01*
X32363840Y-167042330D01*
X32358113Y-167034680D01*
X32186958Y-166929795D01*
X32178163Y-166925313D01*
X31968012Y-166838266D01*
X31958627Y-166835217D01*
X31737446Y-166782115D01*
X31727699Y-166780572D01*
X31500930Y-166762725D01*
X31491070Y-166762725D01*
X31264301Y-166780572D01*
X31254554Y-166782115D01*
X31033373Y-166835217D01*
X31023988Y-166838266D01*
X30813837Y-166925313D01*
X30805042Y-166929795D01*
X30637555Y-167032432D01*
X30628093Y-167042890D01*
X28807534Y-167042890D01*
X28807840Y-167042330D01*
X28802113Y-167034680D01*
X28630958Y-166929795D01*
X28622163Y-166925313D01*
X28412012Y-166838266D01*
X28402627Y-166835217D01*
X28181446Y-166782115D01*
X28171699Y-166780572D01*
X27944930Y-166762725D01*
X27935070Y-166762725D01*
X27708301Y-166780572D01*
X27698554Y-166782115D01*
X27477373Y-166835217D01*
X27467988Y-166838266D01*
X27257837Y-166925313D01*
X27249042Y-166929795D01*
X27081555Y-167032432D01*
X27072093Y-167042890D01*
X25427450Y-167042890D01*
X25426497Y-166279669D01*
X32797001Y-166279669D01*
X32797371Y-166286490D01*
X32802895Y-166337352D01*
X32806521Y-166352604D01*
X32851676Y-166473054D01*
X32860214Y-166488649D01*
X32936715Y-166590724D01*
X32949276Y-166603285D01*
X33051351Y-166679786D01*
X33066946Y-166688324D01*
X33187394Y-166733478D01*
X33202649Y-166737105D01*
X33253514Y-166742631D01*
X33260328Y-166743000D01*
X33382885Y-166743000D01*
X33398124Y-166738525D01*
X33399329Y-166737135D01*
X33401000Y-166729452D01*
X33401000Y-166007115D01*
X33396525Y-165991876D01*
X33395135Y-165990671D01*
X33387452Y-165989000D01*
X32815116Y-165989000D01*
X32799877Y-165993475D01*
X32798672Y-165994865D01*
X32797001Y-166002548D01*
X32797001Y-166279669D01*
X25426497Y-166279669D01*
X25425689Y-165632655D01*
X25445606Y-165564512D01*
X25499204Y-165517952D01*
X25551689Y-165506500D01*
X31109928Y-165506500D01*
X31109928Y-165506553D01*
X31110020Y-165506538D01*
X31115000Y-165508601D01*
X31120072Y-165506500D01*
X31134517Y-165500517D01*
X31142601Y-165481000D01*
X31140500Y-165475928D01*
X31140500Y-165462885D01*
X32797000Y-165462885D01*
X32801475Y-165478124D01*
X32802865Y-165479329D01*
X32810548Y-165481000D01*
X33382885Y-165481000D01*
X33398124Y-165476525D01*
X33399329Y-165475135D01*
X33401000Y-165467452D01*
X33401000Y-164483115D01*
X33396525Y-164467876D01*
X33395135Y-164466671D01*
X33387452Y-164465000D01*
X32815116Y-164465000D01*
X32799877Y-164469475D01*
X32798672Y-164470865D01*
X32797001Y-164478548D01*
X32797001Y-164755669D01*
X32797371Y-164762490D01*
X32802895Y-164813352D01*
X32806521Y-164828603D01*
X32844072Y-164928770D01*
X32849255Y-164999577D01*
X32844072Y-165017230D01*
X32806522Y-165117394D01*
X32802895Y-165132649D01*
X32797369Y-165183514D01*
X32797000Y-165190328D01*
X32797000Y-165462885D01*
X31140500Y-165462885D01*
X31140500Y-165459548D01*
X31140549Y-165458632D01*
X31140500Y-165458290D01*
X31140500Y-163938885D01*
X32797000Y-163938885D01*
X32801475Y-163954124D01*
X32802865Y-163955329D01*
X32810548Y-163957000D01*
X33382885Y-163957000D01*
X33398124Y-163952525D01*
X33399329Y-163951135D01*
X33401000Y-163943452D01*
X33401000Y-162959115D01*
X33396525Y-162943876D01*
X33395135Y-162942671D01*
X33387452Y-162941000D01*
X32815116Y-162941000D01*
X32799877Y-162945475D01*
X32798672Y-162946865D01*
X32797001Y-162954548D01*
X32797001Y-163231669D01*
X32797371Y-163238490D01*
X32802895Y-163289352D01*
X32806521Y-163304603D01*
X32844072Y-163404770D01*
X32849255Y-163475577D01*
X32844072Y-163493230D01*
X32806522Y-163593394D01*
X32802895Y-163608649D01*
X32797369Y-163659514D01*
X32797000Y-163666328D01*
X32797000Y-163938885D01*
X31140500Y-163938885D01*
X31140500Y-162178000D01*
X31160502Y-162109879D01*
X31214158Y-162063386D01*
X31266500Y-162052000D01*
X32671000Y-162052000D01*
X32739121Y-162072002D01*
X32785614Y-162125658D01*
X32797000Y-162178000D01*
X32797000Y-162414885D01*
X32801475Y-162430124D01*
X32802865Y-162431329D01*
X32810548Y-162433000D01*
X33382885Y-162433000D01*
X33398124Y-162428525D01*
X33399329Y-162427135D01*
X33401000Y-162419452D01*
X33401000Y-161697116D01*
X33396525Y-161681877D01*
X33395135Y-161680672D01*
X33387452Y-161679001D01*
X33273000Y-161679001D01*
X33204879Y-161658999D01*
X33158386Y-161605343D01*
X33147000Y-161553001D01*
X33147000Y-151256000D01*
X33167002Y-151187879D01*
X33220658Y-151141386D01*
X33273000Y-151130000D01*
X41402000Y-151130000D01*
X41402000Y-146048949D01*
X41422002Y-145980828D01*
X41475658Y-145934335D01*
X41527949Y-145922949D01*
X43324122Y-145922216D01*
X46973029Y-145920727D01*
X47041154Y-145940700D01*
G37*
G04 #@! TD.AperFunction*
G04 #@! TA.AperFunction,Conductor*
G36*
X67617342Y-148856856D02*
G01*
X67548554Y-148867164D01*
X67458347Y-148855288D01*
X67452361Y-148854500D01*
X67413000Y-148849318D01*
X67404812Y-148850396D01*
X67381827Y-148853422D01*
X67365381Y-148854500D01*
X67143639Y-148854500D01*
X67139553Y-148855038D01*
X67139552Y-148855038D01*
X67034426Y-148868878D01*
X67026238Y-148869956D01*
X66965995Y-148894910D01*
X66917779Y-148904500D01*
X66663252Y-148904500D01*
X66657184Y-148905707D01*
X66616939Y-148913712D01*
X66616938Y-148913712D01*
X66604769Y-148916133D01*
X66538448Y-148960448D01*
X66494133Y-149026769D01*
X66491712Y-149038938D01*
X66491712Y-149038939D01*
X66486832Y-149063474D01*
X66482500Y-149085252D01*
X66482500Y-149824748D01*
X66494133Y-149883231D01*
X66538448Y-149949552D01*
X66604769Y-149993867D01*
X66616938Y-149996288D01*
X66616939Y-149996288D01*
X66657184Y-150004293D01*
X66663252Y-150005500D01*
X66917779Y-150005500D01*
X66965995Y-150015090D01*
X67026238Y-150040044D01*
X67034426Y-150041122D01*
X67124989Y-150053045D01*
X67189916Y-150081768D01*
X67197637Y-150088872D01*
X67434595Y-150325830D01*
X67468621Y-150388142D01*
X67471500Y-150414925D01*
X67471500Y-153290000D01*
X67451498Y-153358121D01*
X67397842Y-153404614D01*
X67345500Y-153416000D01*
X65423231Y-153416000D01*
X65355110Y-153395998D01*
X65334136Y-153379095D01*
X65330305Y-153375264D01*
X65325282Y-153368718D01*
X65199841Y-153272464D01*
X65053762Y-153211956D01*
X64897000Y-153191318D01*
X64740238Y-153211956D01*
X64594159Y-153272464D01*
X64587608Y-153277491D01*
X64498862Y-153345588D01*
X64468718Y-153368718D01*
X64463690Y-153375271D01*
X64459868Y-153379093D01*
X64397556Y-153413120D01*
X64370770Y-153416000D01*
X62204600Y-153416000D01*
X62204600Y-155392070D01*
X62184598Y-155460191D01*
X62130942Y-155506684D01*
X62060668Y-155516788D01*
X62043710Y-155513077D01*
X62039021Y-155511206D01*
X62033361Y-155510080D01*
X62033357Y-155510079D01*
X61828291Y-155469289D01*
X61828288Y-155469289D01*
X61822624Y-155468162D01*
X61816849Y-155468086D01*
X61816845Y-155468086D01*
X61706104Y-155466637D01*
X61602006Y-155465274D01*
X61596309Y-155466253D01*
X61596308Y-155466253D01*
X61390254Y-155501659D01*
X61390253Y-155501659D01*
X61384557Y-155502638D01*
X61177557Y-155579004D01*
X61172596Y-155581956D01*
X61172595Y-155581956D01*
X61122977Y-155611476D01*
X60987941Y-155691814D01*
X60822057Y-155837290D01*
X60685463Y-156010560D01*
X60582731Y-156205820D01*
X60517303Y-156416533D01*
X60491370Y-156635640D01*
X60491748Y-156641407D01*
X60496159Y-156708715D01*
X60480655Y-156777998D01*
X60430155Y-156827900D01*
X60360692Y-156842578D01*
X60294320Y-156817372D01*
X60284900Y-156809479D01*
X60199595Y-156730623D01*
X60199589Y-156730618D01*
X60195349Y-156726699D01*
X60008750Y-156608964D01*
X59803821Y-156527206D01*
X59798161Y-156526080D01*
X59798157Y-156526079D01*
X59593091Y-156485289D01*
X59593088Y-156485289D01*
X59587424Y-156484162D01*
X59581649Y-156484086D01*
X59581645Y-156484086D01*
X59470904Y-156482637D01*
X59366806Y-156481274D01*
X59361109Y-156482253D01*
X59361108Y-156482253D01*
X59155054Y-156517659D01*
X59155053Y-156517659D01*
X59149357Y-156518638D01*
X58942357Y-156595004D01*
X58937396Y-156597956D01*
X58937395Y-156597956D01*
X58762149Y-156702217D01*
X58752741Y-156707814D01*
X58586857Y-156853290D01*
X58450263Y-157026560D01*
X58347531Y-157221820D01*
X58318127Y-157316518D01*
X58289551Y-157408548D01*
X58282103Y-157432533D01*
X58256170Y-157651640D01*
X58270600Y-157871804D01*
X58283943Y-157924341D01*
X58281325Y-157995286D01*
X58250915Y-158044450D01*
X57140062Y-159155303D01*
X57127671Y-159166171D01*
X57109808Y-159179878D01*
X57102718Y-159185318D01*
X57016210Y-159298058D01*
X57006464Y-159310759D01*
X57003305Y-159318385D01*
X57003304Y-159318387D01*
X56964358Y-159412411D01*
X56945956Y-159456838D01*
X56944878Y-159465026D01*
X56939057Y-159509241D01*
X56925318Y-159613600D01*
X56926396Y-159621788D01*
X56926396Y-159630812D01*
X56925318Y-159639000D01*
X56945956Y-159795762D01*
X57006464Y-159941841D01*
X57102718Y-160067282D01*
X57228159Y-160163536D01*
X57374238Y-160224044D01*
X57382426Y-160225122D01*
X57395438Y-160226835D01*
X57531000Y-160244682D01*
X57687762Y-160224044D01*
X57687841Y-160224644D01*
X57752862Y-160226190D01*
X57811659Y-160265983D01*
X57839609Y-160331246D01*
X57840500Y-160346208D01*
X57840500Y-160582792D01*
X57820498Y-160650913D01*
X57766842Y-160697406D01*
X57696568Y-160707510D01*
X57691337Y-160706437D01*
X57687762Y-160704956D01*
X57531000Y-160684318D01*
X57374238Y-160704956D01*
X57228159Y-160765464D01*
X57102718Y-160861718D01*
X57006464Y-160987159D01*
X56945956Y-161133238D01*
X56925318Y-161290000D01*
X56945956Y-161446762D01*
X57006464Y-161592841D01*
X57011491Y-161599392D01*
X57011493Y-161599396D01*
X57034820Y-161629797D01*
X57060420Y-161696018D01*
X57046155Y-161765566D01*
X56996553Y-161816362D01*
X56934857Y-161832500D01*
X56815925Y-161832500D01*
X56747804Y-161812498D01*
X56726830Y-161795595D01*
X56140704Y-161209469D01*
X56106678Y-161147157D01*
X56103799Y-161120374D01*
X56103799Y-158801918D01*
X56104877Y-158785472D01*
X56107903Y-158762487D01*
X56108981Y-158754299D01*
X56088343Y-158597537D01*
X56027835Y-158451458D01*
X55931581Y-158326017D01*
X55806140Y-158229763D01*
X55660061Y-158169255D01*
X55503299Y-158148617D01*
X55346537Y-158169255D01*
X55200458Y-158229763D01*
X55193907Y-158234790D01*
X55161223Y-158259869D01*
X55095002Y-158285469D01*
X55025454Y-158271204D01*
X54974658Y-158221603D01*
X54958742Y-158152413D01*
X54982760Y-158085603D01*
X54995424Y-158070811D01*
X55329830Y-157736405D01*
X55392142Y-157702379D01*
X55418925Y-157699500D01*
X56086381Y-157699500D01*
X56102827Y-157700578D01*
X56134000Y-157704682D01*
X56142188Y-157703604D01*
X56173361Y-157699500D01*
X56282574Y-157685122D01*
X56290762Y-157684044D01*
X56301711Y-157679509D01*
X56350429Y-157659329D01*
X56436841Y-157623536D01*
X56562282Y-157527282D01*
X56658536Y-157401841D01*
X56719044Y-157255762D01*
X56739682Y-157099000D01*
X56719044Y-156942238D01*
X56658536Y-156796159D01*
X56562282Y-156670718D01*
X56436841Y-156574464D01*
X56290762Y-156513956D01*
X56173361Y-156498500D01*
X56134000Y-156493318D01*
X56125812Y-156494396D01*
X56102827Y-156497422D01*
X56086381Y-156498500D01*
X55165619Y-156498500D01*
X55149173Y-156497422D01*
X55126188Y-156494396D01*
X55118000Y-156493318D01*
X55078639Y-156498500D01*
X54961238Y-156513956D01*
X54815159Y-156574464D01*
X54689718Y-156670718D01*
X54684695Y-156677264D01*
X54670571Y-156695671D01*
X54659703Y-156708062D01*
X53965062Y-157402703D01*
X53952672Y-157413570D01*
X53927718Y-157432718D01*
X53903550Y-157464215D01*
X53831464Y-157558159D01*
X53770956Y-157704238D01*
X53750318Y-157861000D01*
X53751396Y-157869188D01*
X53754422Y-157892173D01*
X53755500Y-157908619D01*
X53755500Y-163020381D01*
X53754422Y-163036827D01*
X53750318Y-163068000D01*
X53770956Y-163224762D01*
X53831464Y-163370841D01*
X53927718Y-163496282D01*
X54053159Y-163592536D01*
X54199238Y-163653044D01*
X54356000Y-163673682D01*
X54364188Y-163672604D01*
X54504574Y-163654122D01*
X54512762Y-163653044D01*
X54658841Y-163592536D01*
X54784282Y-163496282D01*
X54880536Y-163370841D01*
X54941044Y-163224762D01*
X54950438Y-163153410D01*
X54955105Y-163117956D01*
X54960604Y-163076188D01*
X54961682Y-163068000D01*
X54957578Y-163036827D01*
X54956500Y-163020381D01*
X54956500Y-162027925D01*
X54976502Y-161959804D01*
X55030158Y-161913311D01*
X55100432Y-161903207D01*
X55165012Y-161932701D01*
X55171595Y-161938830D01*
X56056703Y-162823938D01*
X56067570Y-162836328D01*
X56086718Y-162861282D01*
X56151822Y-162911238D01*
X56212159Y-162957536D01*
X56358238Y-163018044D01*
X56515000Y-163038682D01*
X56523188Y-163037604D01*
X56546173Y-163034578D01*
X56562619Y-163033500D01*
X56791895Y-163033500D01*
X56860016Y-163053502D01*
X56906509Y-163107158D01*
X56916613Y-163177432D01*
X56887119Y-163242012D01*
X56868598Y-163259463D01*
X56855267Y-163269692D01*
X56855264Y-163269695D01*
X56848718Y-163274718D01*
X56752464Y-163400159D01*
X56691956Y-163546238D01*
X56671318Y-163703000D01*
X56691956Y-163859762D01*
X56752464Y-164005841D01*
X56769851Y-164028500D01*
X56834935Y-164113319D01*
X56848718Y-164131282D01*
X56974159Y-164227536D01*
X57086128Y-164273915D01*
X57112385Y-164284791D01*
X57120238Y-164288044D01*
X57128426Y-164289122D01*
X57267496Y-164307431D01*
X57332423Y-164336154D01*
X57371514Y-164395419D01*
X57375971Y-164448797D01*
X57357118Y-164592000D01*
X57377756Y-164748762D01*
X57438264Y-164894841D01*
X57534518Y-165020282D01*
X57659959Y-165116536D01*
X57806038Y-165177044D01*
X57962800Y-165197682D01*
X57970988Y-165196604D01*
X58111374Y-165178122D01*
X58119562Y-165177044D01*
X58265641Y-165116536D01*
X58391082Y-165020282D01*
X58432123Y-164966796D01*
X58489461Y-164924929D01*
X58532086Y-164917500D01*
X58728971Y-164917500D01*
X58797092Y-164937502D01*
X58843585Y-164991158D01*
X58853689Y-165061432D01*
X58828934Y-165120203D01*
X58789493Y-165171604D01*
X58789491Y-165171608D01*
X58784464Y-165178159D01*
X58723956Y-165324238D01*
X58703318Y-165481000D01*
X58723956Y-165637762D01*
X58783799Y-165782235D01*
X58784464Y-165783841D01*
X58784214Y-165783945D01*
X58799825Y-165848292D01*
X58776606Y-165915384D01*
X58720801Y-165959273D01*
X58673968Y-165968300D01*
X57093510Y-165968300D01*
X57082528Y-165967820D01*
X57055980Y-165965497D01*
X57055978Y-165965497D01*
X57044993Y-165964536D01*
X57008585Y-165974292D01*
X56997858Y-165976670D01*
X56994499Y-165977262D01*
X56960755Y-165983212D01*
X56951210Y-165988723D01*
X56947934Y-165989915D01*
X56944766Y-165991392D01*
X56934116Y-165994246D01*
X56925085Y-166000570D01*
X56903256Y-166015855D01*
X56893985Y-166021761D01*
X56870894Y-166035093D01*
X56861345Y-166040606D01*
X56854259Y-166049051D01*
X56837115Y-166069482D01*
X56829689Y-166077585D01*
X55883679Y-167023595D01*
X55821367Y-167057621D01*
X55794584Y-167060500D01*
X52385313Y-167060500D01*
X52317192Y-167040498D01*
X52270699Y-166986842D01*
X52260595Y-166916568D01*
X52275378Y-166872935D01*
X52279587Y-166865419D01*
X52282410Y-166860379D01*
X52284266Y-166854912D01*
X52284268Y-166854907D01*
X52351475Y-166656921D01*
X52351476Y-166656916D01*
X52353331Y-166651452D01*
X52354159Y-166645743D01*
X52354160Y-166645738D01*
X52384458Y-166436772D01*
X52384991Y-166433098D01*
X52386643Y-166370000D01*
X52366454Y-166150289D01*
X52306565Y-165937936D01*
X52208980Y-165740053D01*
X52076967Y-165563267D01*
X51973914Y-165468006D01*
X51919189Y-165417418D01*
X51919186Y-165417416D01*
X51914949Y-165413499D01*
X51728350Y-165295764D01*
X51523421Y-165214006D01*
X51475245Y-165204423D01*
X51434961Y-165196410D01*
X51372052Y-165163502D01*
X51336920Y-165101807D01*
X51340720Y-165030912D01*
X51344870Y-165021898D01*
X51344734Y-165021842D01*
X51402082Y-164883392D01*
X51405242Y-164875763D01*
X51425880Y-164719001D01*
X51405242Y-164562239D01*
X51344734Y-164416160D01*
X51266386Y-164314055D01*
X51253503Y-164297265D01*
X51248480Y-164290719D01*
X51240755Y-164284791D01*
X51129590Y-164199492D01*
X51123039Y-164194465D01*
X50976960Y-164133957D01*
X50820198Y-164113319D01*
X50663436Y-164133957D01*
X50517357Y-164194465D01*
X50510806Y-164199492D01*
X50399642Y-164284791D01*
X50391916Y-164290719D01*
X50386893Y-164297265D01*
X50374010Y-164314055D01*
X50295662Y-164416160D01*
X50235154Y-164562239D01*
X50214516Y-164719001D01*
X50235154Y-164875763D01*
X50295662Y-165021842D01*
X50391916Y-165147283D01*
X50398462Y-165152306D01*
X50445402Y-165188324D01*
X50487269Y-165245662D01*
X50494698Y-165288287D01*
X50494698Y-165317918D01*
X50474696Y-165386039D01*
X50451776Y-165412649D01*
X50306457Y-165540090D01*
X50169863Y-165713360D01*
X50067131Y-165908620D01*
X50001703Y-166119333D01*
X49975770Y-166338440D01*
X49990200Y-166558604D01*
X49991621Y-166564200D01*
X49991622Y-166564205D01*
X50027702Y-166706267D01*
X50044511Y-166772452D01*
X50046928Y-166777694D01*
X50046928Y-166777695D01*
X50083193Y-166856360D01*
X50136883Y-166972821D01*
X50264222Y-167153002D01*
X50422264Y-167306961D01*
X50427060Y-167310166D01*
X50427063Y-167310168D01*
X50496012Y-167356238D01*
X50605717Y-167429540D01*
X50611020Y-167431818D01*
X50611023Y-167431820D01*
X50715061Y-167476518D01*
X50808436Y-167516635D01*
X50888088Y-167534658D01*
X51017995Y-167564054D01*
X51018001Y-167564055D01*
X51023632Y-167565329D01*
X51029403Y-167565556D01*
X51029405Y-167565556D01*
X51097211Y-167568220D01*
X51244098Y-167573991D01*
X51353275Y-167558161D01*
X51456738Y-167543160D01*
X51456743Y-167543159D01*
X51462452Y-167542331D01*
X51467916Y-167540476D01*
X51467921Y-167540475D01*
X51665907Y-167473268D01*
X51665912Y-167473266D01*
X51671379Y-167471410D01*
X51684765Y-167463913D01*
X51753970Y-167448079D01*
X51820753Y-167472174D01*
X51835426Y-167484752D01*
X51952889Y-167602215D01*
X51960316Y-167610319D01*
X51984545Y-167639194D01*
X51994094Y-167644707D01*
X52017185Y-167658039D01*
X52026456Y-167663945D01*
X52057316Y-167685554D01*
X52067966Y-167688408D01*
X52071134Y-167689885D01*
X52074410Y-167691077D01*
X52083955Y-167696588D01*
X52117699Y-167702538D01*
X52121058Y-167703130D01*
X52131785Y-167705508D01*
X52168193Y-167715264D01*
X52179178Y-167714303D01*
X52179180Y-167714303D01*
X52205728Y-167711980D01*
X52216710Y-167711500D01*
X53494584Y-167711500D01*
X53562705Y-167731502D01*
X53609198Y-167785158D01*
X53619302Y-167855432D01*
X53589808Y-167920012D01*
X53583679Y-167926595D01*
X53216679Y-168293595D01*
X53154367Y-168327621D01*
X53127584Y-168330500D01*
X51115286Y-168330500D01*
X51047165Y-168310498D01*
X51015323Y-168281204D01*
X50979305Y-168234264D01*
X50974282Y-168227718D01*
X50848841Y-168131464D01*
X50702762Y-168070956D01*
X50546000Y-168050318D01*
X50389238Y-168070956D01*
X50243159Y-168131464D01*
X50117718Y-168227718D01*
X50021464Y-168353159D01*
X49960956Y-168499238D01*
X49940318Y-168656000D01*
X49960956Y-168812762D01*
X50021464Y-168958841D01*
X50117718Y-169084282D01*
X50124264Y-169089305D01*
X50143343Y-169103945D01*
X50243159Y-169180536D01*
X50389238Y-169241044D01*
X50546000Y-169261682D01*
X50554188Y-169260604D01*
X50694574Y-169242122D01*
X50702762Y-169241044D01*
X50848841Y-169180536D01*
X50948657Y-169103945D01*
X50967736Y-169089305D01*
X50974282Y-169084282D01*
X51015323Y-169030796D01*
X51072661Y-168988929D01*
X51115286Y-168981500D01*
X52762863Y-168981500D01*
X52830984Y-169001502D01*
X52877477Y-169055158D01*
X52887581Y-169125432D01*
X52858087Y-169190012D01*
X52820748Y-169218453D01*
X52820957Y-169218804D01*
X52815995Y-169221756D01*
X52815993Y-169221757D01*
X52636306Y-169328660D01*
X52631341Y-169331614D01*
X52465457Y-169477090D01*
X52328863Y-169650360D01*
X52226131Y-169845620D01*
X52160703Y-170056333D01*
X52134770Y-170275440D01*
X52149200Y-170495604D01*
X52150621Y-170501200D01*
X52150622Y-170501205D01*
X52177817Y-170608282D01*
X52203511Y-170709452D01*
X52205928Y-170714694D01*
X52205928Y-170714695D01*
X52244046Y-170797379D01*
X52295883Y-170909821D01*
X52348901Y-170984839D01*
X52357693Y-170997280D01*
X52380674Y-171064454D01*
X52363690Y-171133389D01*
X52312132Y-171182199D01*
X52254796Y-171196000D01*
X36067000Y-171196000D01*
X35998879Y-171175998D01*
X35952386Y-171122342D01*
X35941000Y-171070000D01*
X35941000Y-169767993D01*
X35961002Y-169699872D01*
X36014658Y-169653379D01*
X36084932Y-169643275D01*
X36149512Y-169672769D01*
X36154922Y-169677739D01*
X36177642Y-169699872D01*
X36198264Y-169719961D01*
X36203060Y-169723166D01*
X36203063Y-169723168D01*
X36315808Y-169798501D01*
X36381717Y-169842540D01*
X36387020Y-169844818D01*
X36387023Y-169844820D01*
X36530234Y-169906348D01*
X36584436Y-169929635D01*
X36643174Y-169942926D01*
X36793995Y-169977054D01*
X36794001Y-169977055D01*
X36799632Y-169978329D01*
X36805403Y-169978556D01*
X36805405Y-169978556D01*
X36873211Y-169981220D01*
X37020098Y-169986991D01*
X37129275Y-169971161D01*
X37232738Y-169956160D01*
X37232743Y-169956159D01*
X37238452Y-169955331D01*
X37243916Y-169953476D01*
X37243921Y-169953475D01*
X37441907Y-169886268D01*
X37441912Y-169886266D01*
X37447379Y-169884410D01*
X37494872Y-169857813D01*
X37546153Y-169829094D01*
X37639884Y-169776602D01*
X37648181Y-169769702D01*
X37805086Y-169639204D01*
X37809518Y-169635518D01*
X37926350Y-169495044D01*
X37946908Y-169470326D01*
X37946910Y-169470323D01*
X37950602Y-169465884D01*
X38032592Y-169319480D01*
X38055586Y-169278422D01*
X38055587Y-169278420D01*
X38058410Y-169273379D01*
X38060266Y-169267912D01*
X38060268Y-169267907D01*
X38127475Y-169069921D01*
X38127476Y-169069916D01*
X38129331Y-169064452D01*
X38130159Y-169058743D01*
X38130160Y-169058738D01*
X38151726Y-168910000D01*
X38160991Y-168846098D01*
X38162643Y-168783000D01*
X38142454Y-168563289D01*
X38082565Y-168350936D01*
X37984980Y-168153053D01*
X37976927Y-168142268D01*
X37856420Y-167980891D01*
X37856420Y-167980890D01*
X37852967Y-167976267D01*
X37722249Y-167855432D01*
X37695189Y-167830418D01*
X37695186Y-167830416D01*
X37690949Y-167826499D01*
X37504350Y-167708764D01*
X37299421Y-167627006D01*
X37293761Y-167625880D01*
X37293757Y-167625879D01*
X37088691Y-167585089D01*
X37088688Y-167585089D01*
X37083024Y-167583962D01*
X37077249Y-167583886D01*
X37077245Y-167583886D01*
X36966504Y-167582437D01*
X36862406Y-167581074D01*
X36856709Y-167582053D01*
X36856708Y-167582053D01*
X36650654Y-167617459D01*
X36650653Y-167617459D01*
X36644957Y-167618438D01*
X36437957Y-167694804D01*
X36437379Y-167693238D01*
X36374967Y-167703285D01*
X36309900Y-167674882D01*
X36301705Y-167667379D01*
X36276405Y-167642079D01*
X36242379Y-167579767D01*
X36239500Y-167552984D01*
X36239500Y-160335286D01*
X36259502Y-160267165D01*
X36288796Y-160235323D01*
X36335736Y-160199305D01*
X36342282Y-160194282D01*
X36438536Y-160068841D01*
X36499044Y-159922762D01*
X36519682Y-159766000D01*
X36499044Y-159609238D01*
X36438536Y-159463159D01*
X36342282Y-159337718D01*
X36216841Y-159241464D01*
X36070762Y-159180956D01*
X36050555Y-159178296D01*
X35985629Y-159149575D01*
X35946536Y-159090311D01*
X35941000Y-159053374D01*
X35941000Y-155955000D01*
X35961002Y-155886879D01*
X36014658Y-155840386D01*
X36067000Y-155829000D01*
X37974000Y-155829000D01*
X38042121Y-155849002D01*
X38088614Y-155902658D01*
X38100000Y-155955000D01*
X38100000Y-164973000D01*
X45522500Y-164973000D01*
X45590621Y-164993002D01*
X45637114Y-165046658D01*
X45648500Y-165099000D01*
X45648500Y-168213714D01*
X45628498Y-168281835D01*
X45599204Y-168313677D01*
X45545718Y-168354718D01*
X45449464Y-168480159D01*
X45388956Y-168626238D01*
X45387878Y-168634426D01*
X45386116Y-168647812D01*
X45368318Y-168783000D01*
X45369396Y-168791188D01*
X45379929Y-168871191D01*
X45388956Y-168939762D01*
X45449464Y-169085841D01*
X45545718Y-169211282D01*
X45671159Y-169307536D01*
X45817238Y-169368044D01*
X45974000Y-169388682D01*
X45982188Y-169387604D01*
X45995732Y-169385821D01*
X46130762Y-169368044D01*
X46276841Y-169307536D01*
X46402282Y-169211282D01*
X46498536Y-169085841D01*
X46559044Y-168939762D01*
X46568072Y-168871191D01*
X46578604Y-168791188D01*
X46579682Y-168783000D01*
X46561884Y-168647812D01*
X46560122Y-168634426D01*
X46559044Y-168626238D01*
X46498536Y-168480159D01*
X46402282Y-168354718D01*
X46348796Y-168313677D01*
X46306929Y-168256339D01*
X46299500Y-168213714D01*
X46299500Y-165099000D01*
X46319502Y-165030879D01*
X46373158Y-164984386D01*
X46425500Y-164973000D01*
X46482000Y-164973000D01*
X46482000Y-162813000D01*
X46502002Y-162744879D01*
X46555658Y-162698386D01*
X46608000Y-162687000D01*
X49530000Y-162687000D01*
X49530000Y-157099000D01*
X49524681Y-157099000D01*
X49522339Y-157091023D01*
X49495691Y-157049559D01*
X49491665Y-157030511D01*
X49480044Y-156942238D01*
X49419536Y-156796159D01*
X49323282Y-156670718D01*
X49197841Y-156574464D01*
X49051762Y-156513956D01*
X48895000Y-156493318D01*
X48738238Y-156513956D01*
X48592159Y-156574464D01*
X48466718Y-156670718D01*
X48461695Y-156677264D01*
X48425677Y-156724204D01*
X48368339Y-156766071D01*
X48325714Y-156773500D01*
X48067412Y-156773500D01*
X47999291Y-156753498D01*
X47978317Y-156736595D01*
X46137905Y-154896183D01*
X46103879Y-154833871D01*
X46101000Y-154807088D01*
X46101000Y-153923000D01*
X46121002Y-153854879D01*
X46174658Y-153808386D01*
X46227000Y-153797000D01*
X49784000Y-153797000D01*
X49784000Y-152146000D01*
X57814318Y-152146000D01*
X57834956Y-152302762D01*
X57895464Y-152448841D01*
X57991718Y-152574282D01*
X58117159Y-152670536D01*
X58263238Y-152731044D01*
X58420000Y-152751682D01*
X58428188Y-152750604D01*
X58451173Y-152747578D01*
X58467619Y-152746500D01*
X61725181Y-152746500D01*
X61741627Y-152747578D01*
X61772800Y-152751682D01*
X61780988Y-152750604D01*
X61812161Y-152746500D01*
X61921374Y-152732122D01*
X61929562Y-152731044D01*
X62075641Y-152670536D01*
X62201082Y-152574282D01*
X62220222Y-152549338D01*
X62231090Y-152536945D01*
X62620950Y-152147086D01*
X62633341Y-152136220D01*
X62651729Y-152122111D01*
X62651732Y-152122108D01*
X62658282Y-152117082D01*
X62685551Y-152081545D01*
X62754536Y-151991641D01*
X62815044Y-151845562D01*
X62835682Y-151688800D01*
X62815044Y-151532038D01*
X62754536Y-151385959D01*
X62658282Y-151260518D01*
X62572196Y-151194462D01*
X62530330Y-151137125D01*
X62526108Y-151066254D01*
X62560872Y-151004351D01*
X62623584Y-150971070D01*
X62648901Y-150968500D01*
X63452381Y-150968500D01*
X63468827Y-150969578D01*
X63500000Y-150973682D01*
X63508188Y-150972604D01*
X63539361Y-150968500D01*
X63648574Y-150954122D01*
X63656762Y-150953044D01*
X63802841Y-150892536D01*
X63928282Y-150796282D01*
X64024536Y-150670841D01*
X64085044Y-150524762D01*
X64087100Y-150509149D01*
X64104604Y-150376188D01*
X64105682Y-150368000D01*
X64085044Y-150211238D01*
X64024536Y-150065159D01*
X63928282Y-149939718D01*
X63802841Y-149843464D01*
X63656762Y-149782956D01*
X63500000Y-149762318D01*
X63491812Y-149763396D01*
X63468827Y-149766422D01*
X63452381Y-149767500D01*
X60499619Y-149767500D01*
X60483173Y-149766422D01*
X60460188Y-149763396D01*
X60452000Y-149762318D01*
X60295238Y-149782956D01*
X60149159Y-149843464D01*
X60023718Y-149939718D01*
X59927464Y-150065159D01*
X59866956Y-150211238D01*
X59846318Y-150368000D01*
X59847396Y-150376188D01*
X59864901Y-150509149D01*
X59866956Y-150524762D01*
X59927464Y-150670841D01*
X60023718Y-150796282D01*
X60149159Y-150892536D01*
X60295238Y-150953044D01*
X60452000Y-150973682D01*
X60460188Y-150972604D01*
X60483173Y-150969578D01*
X60499619Y-150968500D01*
X61811100Y-150968500D01*
X61879221Y-150988502D01*
X61925714Y-151042158D01*
X61935818Y-151112432D01*
X61906324Y-151177012D01*
X61887804Y-151194462D01*
X61869954Y-151208159D01*
X61846470Y-151226179D01*
X61801718Y-151260518D01*
X61796692Y-151267068D01*
X61782580Y-151285459D01*
X61771714Y-151297850D01*
X61560970Y-151508595D01*
X61498658Y-151542620D01*
X61471874Y-151545500D01*
X58467619Y-151545500D01*
X58451173Y-151544422D01*
X58428188Y-151541396D01*
X58420000Y-151540318D01*
X58263238Y-151560956D01*
X58117159Y-151621464D01*
X57991718Y-151717718D01*
X57895464Y-151843159D01*
X57834956Y-151989238D01*
X57814318Y-152146000D01*
X49784000Y-152146000D01*
X49784000Y-149240474D01*
X49804002Y-149172353D01*
X49857658Y-149125860D01*
X49910000Y-149114474D01*
X51923386Y-149114474D01*
X51930382Y-149115087D01*
X51933973Y-149116575D01*
X51933973Y-149118480D01*
X51949976Y-149117221D01*
X51949977Y-149117221D01*
X52016447Y-149111991D01*
X52137262Y-149102485D01*
X52142076Y-149101329D01*
X52142078Y-149101329D01*
X52330736Y-149056039D01*
X52330739Y-149056038D01*
X52335546Y-149054884D01*
X52340113Y-149052992D01*
X52340117Y-149052991D01*
X52519363Y-148978747D01*
X52519367Y-148978745D01*
X52523942Y-148976850D01*
X52528162Y-148974264D01*
X52528168Y-148974261D01*
X52640039Y-148905707D01*
X52697811Y-148870305D01*
X52728610Y-148844000D01*
X67632179Y-148844000D01*
X67617342Y-148856856D01*
G37*
G04 #@! TD.AperFunction*
G04 #@! TA.AperFunction,Conductor*
G36*
X54514376Y-124494577D02*
G01*
X54514728Y-124494526D01*
X66914902Y-124494526D01*
X66914902Y-124496651D01*
X66918498Y-124496015D01*
X66919975Y-124496627D01*
X66923648Y-124495105D01*
X66924785Y-124494904D01*
X67104778Y-124509067D01*
X67124298Y-124512158D01*
X67294911Y-124553116D01*
X67313708Y-124559224D01*
X67475808Y-124626366D01*
X67493425Y-124635342D01*
X67643025Y-124727016D01*
X67659021Y-124738638D01*
X67792435Y-124852584D01*
X67806416Y-124866565D01*
X67920362Y-124999979D01*
X67931984Y-125015975D01*
X68023658Y-125165575D01*
X68032634Y-125183192D01*
X68099775Y-125345288D01*
X68105884Y-125364089D01*
X68128022Y-125456304D01*
X68146841Y-125534697D01*
X68149933Y-125554220D01*
X68160522Y-125688789D01*
X68164105Y-125734327D01*
X68163884Y-125735378D01*
X68162373Y-125739025D01*
X68162867Y-125740218D01*
X68162049Y-125744111D01*
X68164478Y-125744109D01*
X68164491Y-125760172D01*
X68164432Y-125761273D01*
X68164492Y-125761688D01*
X68164667Y-125975812D01*
X68164953Y-126324270D01*
X68164963Y-126336984D01*
X68145017Y-126405121D01*
X68091399Y-126451658D01*
X68021133Y-126461819D01*
X67956529Y-126432379D01*
X67939001Y-126413791D01*
X67889450Y-126349215D01*
X67889448Y-126349213D01*
X67870309Y-126324270D01*
X67865282Y-126317718D01*
X67840328Y-126298570D01*
X67827938Y-126287703D01*
X67133297Y-125593062D01*
X67122429Y-125580671D01*
X67108305Y-125562264D01*
X67103282Y-125555718D01*
X67088457Y-125544342D01*
X66984392Y-125464491D01*
X66977841Y-125459464D01*
X66831762Y-125398956D01*
X66714361Y-125383500D01*
X66675000Y-125378318D01*
X66666812Y-125379396D01*
X66643827Y-125382422D01*
X66627381Y-125383500D01*
X63801619Y-125383500D01*
X63785173Y-125382422D01*
X63762188Y-125379396D01*
X63754000Y-125378318D01*
X63597238Y-125398956D01*
X63451159Y-125459464D01*
X63444608Y-125464491D01*
X63340544Y-125544342D01*
X63325718Y-125555718D01*
X63229464Y-125681159D01*
X63168956Y-125827238D01*
X63148318Y-125984000D01*
X63168956Y-126140762D01*
X63229464Y-126286841D01*
X63253157Y-126317718D01*
X63325718Y-126412282D01*
X63323792Y-126413760D01*
X63351890Y-126465217D01*
X63346825Y-126536032D01*
X63324494Y-126570779D01*
X63325718Y-126571718D01*
X63229464Y-126697159D01*
X63168956Y-126843238D01*
X63148318Y-127000000D01*
X63168956Y-127156762D01*
X63229464Y-127302841D01*
X63325718Y-127428282D01*
X63451159Y-127524536D01*
X63597238Y-127585044D01*
X63754000Y-127605682D01*
X63762188Y-127604604D01*
X63785173Y-127601578D01*
X63801619Y-127600500D01*
X65485075Y-127600500D01*
X65553196Y-127620502D01*
X65574170Y-127637405D01*
X65799595Y-127862830D01*
X65833621Y-127925142D01*
X65836500Y-127951925D01*
X65836500Y-133741845D01*
X65816498Y-133809966D01*
X65762842Y-133856459D01*
X65692568Y-133866563D01*
X65627988Y-133837069D01*
X65589604Y-133777343D01*
X65585029Y-133753374D01*
X65574983Y-133644046D01*
X65574454Y-133638289D01*
X65514565Y-133425936D01*
X65416980Y-133228053D01*
X65284967Y-133051267D01*
X65122949Y-132901499D01*
X64936350Y-132783764D01*
X64731421Y-132702006D01*
X64725761Y-132700880D01*
X64725757Y-132700879D01*
X64520691Y-132660089D01*
X64520688Y-132660089D01*
X64515024Y-132658962D01*
X64509249Y-132658886D01*
X64509245Y-132658886D01*
X64398504Y-132657437D01*
X64294406Y-132656074D01*
X64288709Y-132657053D01*
X64288708Y-132657053D01*
X64082654Y-132692459D01*
X64082653Y-132692459D01*
X64076957Y-132693438D01*
X63869957Y-132769804D01*
X63680341Y-132882614D01*
X63514457Y-133028090D01*
X63377863Y-133201360D01*
X63275131Y-133396620D01*
X63209703Y-133607333D01*
X63183770Y-133826440D01*
X63198200Y-134046604D01*
X63199621Y-134052200D01*
X63199622Y-134052205D01*
X63251090Y-134254857D01*
X63252511Y-134260452D01*
X63254928Y-134265694D01*
X63254928Y-134265695D01*
X63293046Y-134348379D01*
X63344883Y-134460821D01*
X63472222Y-134641002D01*
X63630264Y-134794961D01*
X63635060Y-134798166D01*
X63635063Y-134798168D01*
X63732502Y-134863274D01*
X63778030Y-134917751D01*
X63788500Y-134968039D01*
X63788500Y-135036500D01*
X63768498Y-135104621D01*
X63714842Y-135151114D01*
X63662500Y-135162500D01*
X57324619Y-135162500D01*
X57308173Y-135161422D01*
X57285188Y-135158396D01*
X57277000Y-135157318D01*
X57237639Y-135162500D01*
X57120238Y-135177956D01*
X56974159Y-135238464D01*
X56848718Y-135334718D01*
X56829568Y-135359675D01*
X56818708Y-135372057D01*
X56759062Y-135431703D01*
X56746672Y-135442570D01*
X56721718Y-135461718D01*
X56625464Y-135587159D01*
X56564956Y-135733238D01*
X56544318Y-135890000D01*
X56564956Y-136046762D01*
X56625464Y-136192841D01*
X56721718Y-136318282D01*
X56847159Y-136414536D01*
X56993238Y-136475044D01*
X57150000Y-136495682D01*
X57158188Y-136494604D01*
X57211139Y-136487633D01*
X57306762Y-136475044D01*
X57452841Y-136414536D01*
X57485419Y-136389538D01*
X57551639Y-136363937D01*
X57562123Y-136363500D01*
X63961075Y-136363500D01*
X64029196Y-136383502D01*
X64050170Y-136400405D01*
X64799595Y-137149830D01*
X64833621Y-137212142D01*
X64836500Y-137238925D01*
X64836500Y-141872647D01*
X64816498Y-141940768D01*
X64799595Y-141961742D01*
X61840972Y-144920365D01*
X61778660Y-144954391D01*
X61735431Y-144956192D01*
X61706000Y-144952317D01*
X61549238Y-144972956D01*
X61403159Y-145033464D01*
X61277718Y-145129718D01*
X61258568Y-145154675D01*
X61247708Y-145167057D01*
X60494275Y-145920490D01*
X60431963Y-145954516D01*
X60421631Y-145956316D01*
X60295238Y-145972956D01*
X60149159Y-146033464D01*
X60023718Y-146129718D01*
X59927464Y-146255159D01*
X59866956Y-146401238D01*
X59846318Y-146558000D01*
X59866956Y-146714762D01*
X59927464Y-146860841D01*
X60023718Y-146986282D01*
X60149159Y-147082536D01*
X60295238Y-147143044D01*
X60452000Y-147163682D01*
X60460188Y-147162604D01*
X60483173Y-147159578D01*
X60499619Y-147158500D01*
X60658381Y-147158500D01*
X60674827Y-147159578D01*
X60706000Y-147163682D01*
X60714188Y-147162604D01*
X60745361Y-147158500D01*
X60854574Y-147144122D01*
X60862762Y-147143044D01*
X61008841Y-147082536D01*
X61134282Y-146986282D01*
X61153430Y-146961328D01*
X61164297Y-146948938D01*
X61439430Y-146673805D01*
X61501742Y-146639779D01*
X61572557Y-146644844D01*
X61629393Y-146687391D01*
X61643164Y-146715504D01*
X61644956Y-146714762D01*
X61705464Y-146860841D01*
X61801718Y-146986282D01*
X61927159Y-147082536D01*
X62073238Y-147143044D01*
X62230000Y-147163682D01*
X62238188Y-147162604D01*
X62261173Y-147159578D01*
X62277619Y-147158500D01*
X62419167Y-147158500D01*
X62435613Y-147159578D01*
X62466786Y-147163682D01*
X62474974Y-147162604D01*
X62506147Y-147158500D01*
X62615360Y-147144122D01*
X62623548Y-147143044D01*
X62769627Y-147082536D01*
X62895068Y-146986282D01*
X62914216Y-146961328D01*
X62925083Y-146948938D01*
X63122578Y-146751443D01*
X63184890Y-146717417D01*
X63255705Y-146722482D01*
X63312541Y-146765029D01*
X63328081Y-146792318D01*
X63356464Y-146860841D01*
X63452718Y-146986282D01*
X63578159Y-147082536D01*
X63724238Y-147143044D01*
X63881000Y-147163682D01*
X63889188Y-147162604D01*
X64029574Y-147144122D01*
X64037762Y-147143044D01*
X64183841Y-147082536D01*
X64309282Y-146986282D01*
X64328430Y-146961328D01*
X64339297Y-146948938D01*
X67827938Y-143460297D01*
X67840329Y-143449429D01*
X67858736Y-143435305D01*
X67865282Y-143430282D01*
X67870305Y-143423736D01*
X67870309Y-143423732D01*
X67952946Y-143316038D01*
X68010284Y-143274171D01*
X68081155Y-143269949D01*
X68143058Y-143304713D01*
X68176339Y-143367426D01*
X68178907Y-143392631D01*
X68181807Y-146939899D01*
X68161862Y-147008034D01*
X68108244Y-147054571D01*
X68055808Y-147066000D01*
X67691000Y-147066000D01*
X67691000Y-147071319D01*
X67672339Y-147076798D01*
X67648846Y-147091896D01*
X67613349Y-147097000D01*
X67455115Y-147097000D01*
X67439876Y-147101475D01*
X67438671Y-147102865D01*
X67437000Y-147110548D01*
X67437000Y-148083000D01*
X67416998Y-148151121D01*
X67363342Y-148197614D01*
X67311000Y-148209000D01*
X66193116Y-148209000D01*
X66177877Y-148213475D01*
X66176672Y-148214865D01*
X66175001Y-148222548D01*
X66175001Y-148349669D01*
X66175371Y-148356490D01*
X66180895Y-148407352D01*
X66184521Y-148422604D01*
X66229676Y-148543054D01*
X66238214Y-148558649D01*
X66314715Y-148660724D01*
X66327276Y-148673285D01*
X66429351Y-148749786D01*
X66444948Y-148758325D01*
X66479207Y-148771168D01*
X66535972Y-148813809D01*
X66560672Y-148880370D01*
X66545465Y-148949719D01*
X66537763Y-148959990D01*
X66538448Y-148960448D01*
X66510303Y-149002570D01*
X66494133Y-149026769D01*
X66491712Y-149038938D01*
X66491712Y-149038939D01*
X66486832Y-149063474D01*
X66482500Y-149085252D01*
X66482500Y-149098000D01*
X52155944Y-149098000D01*
X52183275Y-149091439D01*
X52209047Y-149085252D01*
X52330736Y-149056039D01*
X52330739Y-149056038D01*
X52335546Y-149054884D01*
X52340113Y-149052992D01*
X52340117Y-149052991D01*
X52519363Y-148978747D01*
X52519367Y-148978745D01*
X52523942Y-148976850D01*
X52528162Y-148974264D01*
X52528168Y-148974261D01*
X52623025Y-148916133D01*
X52697811Y-148870305D01*
X52716317Y-148854500D01*
X52849115Y-148741079D01*
X52852871Y-148737871D01*
X52985305Y-148582811D01*
X53038578Y-148495876D01*
X53089261Y-148413168D01*
X53089264Y-148413162D01*
X53091850Y-148408942D01*
X53102194Y-148383970D01*
X53167991Y-148225117D01*
X53167992Y-148225113D01*
X53169884Y-148220546D01*
X53171582Y-148213475D01*
X53216329Y-148027078D01*
X53216329Y-148027076D01*
X53217485Y-148022262D01*
X53233480Y-147818973D01*
X53231575Y-147818973D01*
X53229805Y-147814701D01*
X53229480Y-147811560D01*
X53229585Y-147682885D01*
X66175000Y-147682885D01*
X66179475Y-147698124D01*
X66180865Y-147699329D01*
X66188548Y-147701000D01*
X66910885Y-147701000D01*
X66926124Y-147696525D01*
X66927329Y-147695135D01*
X66929000Y-147687452D01*
X66929000Y-147115116D01*
X66924525Y-147099877D01*
X66923135Y-147098672D01*
X66915452Y-147097001D01*
X66638331Y-147097001D01*
X66631510Y-147097371D01*
X66580648Y-147102895D01*
X66565396Y-147106521D01*
X66444946Y-147151676D01*
X66429351Y-147160214D01*
X66327276Y-147236715D01*
X66314715Y-147249276D01*
X66238214Y-147351351D01*
X66229676Y-147366946D01*
X66184522Y-147487394D01*
X66180895Y-147502649D01*
X66175369Y-147553514D01*
X66175000Y-147560328D01*
X66175000Y-147682885D01*
X53229585Y-147682885D01*
X53234139Y-142113000D01*
X60354318Y-142113000D01*
X60374956Y-142269762D01*
X60435464Y-142415841D01*
X60531718Y-142541282D01*
X60657159Y-142637536D01*
X60803238Y-142698044D01*
X60960000Y-142718682D01*
X60968188Y-142717604D01*
X61108574Y-142699122D01*
X61116762Y-142698044D01*
X61262841Y-142637536D01*
X61388282Y-142541282D01*
X61484536Y-142415841D01*
X61545044Y-142269762D01*
X61560500Y-142152361D01*
X61565682Y-142113000D01*
X61561578Y-142081827D01*
X61560500Y-142065381D01*
X61560500Y-137969619D01*
X61561578Y-137953173D01*
X61564604Y-137930188D01*
X61565682Y-137922000D01*
X61545044Y-137765238D01*
X61484536Y-137619159D01*
X61388282Y-137493718D01*
X61262841Y-137397464D01*
X61116762Y-137336956D01*
X60960000Y-137316318D01*
X60803238Y-137336956D01*
X60657159Y-137397464D01*
X60531718Y-137493718D01*
X60435464Y-137619159D01*
X60374956Y-137765238D01*
X60354318Y-137922000D01*
X60355396Y-137930188D01*
X60358422Y-137953173D01*
X60359500Y-137969619D01*
X60359500Y-142065381D01*
X60358422Y-142081827D01*
X60354318Y-142113000D01*
X53234139Y-142113000D01*
X53241200Y-133477000D01*
X59182000Y-133477000D01*
X62230000Y-133477000D01*
X62230000Y-130429000D01*
X59182000Y-130429000D01*
X59182000Y-133477000D01*
X53241200Y-133477000D01*
X53247522Y-125744108D01*
X53249624Y-125744110D01*
X53248995Y-125740551D01*
X53249627Y-125739025D01*
X53248055Y-125735230D01*
X53247895Y-125734327D01*
X53251478Y-125688789D01*
X53262067Y-125554220D01*
X53265159Y-125534697D01*
X53283979Y-125456304D01*
X53306116Y-125364089D01*
X53312225Y-125345288D01*
X53379366Y-125183192D01*
X53388342Y-125165575D01*
X53480016Y-125015975D01*
X53491638Y-124999979D01*
X53605584Y-124866565D01*
X53619565Y-124852584D01*
X53752979Y-124738638D01*
X53768975Y-124727016D01*
X53918575Y-124635342D01*
X53936192Y-124626366D01*
X54098292Y-124559224D01*
X54117089Y-124553116D01*
X54287702Y-124512158D01*
X54307222Y-124509067D01*
X54487215Y-124494904D01*
X54488537Y-124495182D01*
X54492025Y-124496627D01*
X54493167Y-124496154D01*
X54497098Y-124496980D01*
X54497098Y-124494526D01*
X54513433Y-124494526D01*
X54514376Y-124494577D01*
G37*
G04 #@! TD.AperFunction*
G04 #@! TA.AperFunction,Conductor*
G36*
X68660830Y-148824733D02*
G01*
X68710415Y-148867083D01*
X68710425Y-148867090D01*
X68714189Y-148870305D01*
X68788975Y-148916133D01*
X68883832Y-148974261D01*
X68883838Y-148974264D01*
X68888058Y-148976850D01*
X68892633Y-148978745D01*
X68892637Y-148978747D01*
X69071883Y-149052991D01*
X69071887Y-149052992D01*
X69076454Y-149054884D01*
X69081261Y-149056038D01*
X69081264Y-149056039D01*
X69269922Y-149101329D01*
X69269924Y-149101329D01*
X69274738Y-149102485D01*
X69478027Y-149118480D01*
X69478027Y-149116575D01*
X69482126Y-149114877D01*
X69485755Y-149114508D01*
X73645384Y-149132502D01*
X73645850Y-149132504D01*
X73650975Y-149134627D01*
X73655237Y-149132861D01*
X73667470Y-149133824D01*
X73667471Y-149133824D01*
X73760151Y-149141116D01*
X73835778Y-149147067D01*
X73855298Y-149150158D01*
X74025911Y-149191116D01*
X74044708Y-149197224D01*
X74147144Y-149239653D01*
X74206808Y-149264366D01*
X74224425Y-149273342D01*
X74374025Y-149365016D01*
X74390021Y-149376638D01*
X74523435Y-149490584D01*
X74537416Y-149504565D01*
X74651362Y-149637979D01*
X74662984Y-149653975D01*
X74754658Y-149803575D01*
X74763634Y-149821192D01*
X74830775Y-149983288D01*
X74836884Y-150002089D01*
X74875182Y-150161619D01*
X74877841Y-150172697D01*
X74880933Y-150192222D01*
X74895096Y-150372215D01*
X74894818Y-150373537D01*
X74893373Y-150377025D01*
X74893846Y-150378167D01*
X74893020Y-150382098D01*
X74895474Y-150382098D01*
X74895474Y-150398433D01*
X74895423Y-150399376D01*
X74895474Y-150399728D01*
X74895474Y-172705902D01*
X74893349Y-172705902D01*
X74893985Y-172709498D01*
X74893373Y-172710975D01*
X74894895Y-172714648D01*
X74895096Y-172715785D01*
X74880934Y-172895774D01*
X74877841Y-172915303D01*
X74836885Y-173085907D01*
X74830775Y-173104712D01*
X74763634Y-173266808D01*
X74754658Y-173284425D01*
X74662984Y-173434025D01*
X74651362Y-173450021D01*
X74537416Y-173583435D01*
X74523435Y-173597416D01*
X74390021Y-173711362D01*
X74374025Y-173722984D01*
X74224425Y-173814658D01*
X74206809Y-173823634D01*
X74044708Y-173890776D01*
X74025911Y-173896884D01*
X73855298Y-173937842D01*
X73835778Y-173940933D01*
X73655785Y-173955096D01*
X73654463Y-173954818D01*
X73650975Y-173953373D01*
X73649833Y-173953846D01*
X73645902Y-173953020D01*
X73645902Y-173955474D01*
X73629567Y-173955474D01*
X73628624Y-173955423D01*
X73628272Y-173955474D01*
X34542997Y-173955474D01*
X34474876Y-173935472D01*
X34428383Y-173881816D01*
X34416998Y-173829478D01*
X34416998Y-173810834D01*
X34417031Y-157913804D01*
X34417040Y-153924654D01*
X34437042Y-153856533D01*
X34490698Y-153810040D01*
X34543000Y-153798654D01*
X35028387Y-153798500D01*
X39625006Y-153797040D01*
X39693133Y-153817020D01*
X39739643Y-153870661D01*
X39751046Y-153923038D01*
X39751020Y-160892470D01*
X39751015Y-162547422D01*
X39751014Y-162687000D01*
X46102000Y-162687000D01*
X46170121Y-162707002D01*
X46216614Y-162760658D01*
X46228000Y-162813000D01*
X46228000Y-164593000D01*
X46207998Y-164661121D01*
X46154342Y-164707614D01*
X46102000Y-164719000D01*
X44573039Y-164719000D01*
X44504918Y-164698998D01*
X44458425Y-164645342D01*
X44448321Y-164575068D01*
X44473076Y-164516296D01*
X44530671Y-164441236D01*
X44535698Y-164434685D01*
X44596206Y-164288606D01*
X44616844Y-164131844D01*
X44603239Y-164028500D01*
X44597284Y-163983270D01*
X44596206Y-163975082D01*
X44535698Y-163829003D01*
X44439444Y-163703562D01*
X44314003Y-163607308D01*
X44167924Y-163546800D01*
X44011162Y-163526162D01*
X43854400Y-163546800D01*
X43708321Y-163607308D01*
X43582880Y-163703562D01*
X43486626Y-163829003D01*
X43426118Y-163975082D01*
X43425040Y-163983270D01*
X43419085Y-164028500D01*
X43405480Y-164131844D01*
X43426118Y-164288606D01*
X43486626Y-164434685D01*
X43491653Y-164441236D01*
X43549248Y-164516296D01*
X43574848Y-164582517D01*
X43560583Y-164652065D01*
X43510982Y-164702861D01*
X43449285Y-164719000D01*
X38480006Y-164719000D01*
X38411885Y-164698998D01*
X38365392Y-164645342D01*
X38354006Y-164593000D01*
X38354006Y-155575000D01*
X35687006Y-155575000D01*
X35687006Y-159126172D01*
X35667004Y-159194293D01*
X35624005Y-159235292D01*
X35618789Y-159238304D01*
X35611159Y-159241464D01*
X35485718Y-159337718D01*
X35389464Y-159463159D01*
X35328956Y-159609238D01*
X35308318Y-159766000D01*
X35328956Y-159922762D01*
X35389464Y-160068841D01*
X35485718Y-160194282D01*
X35492264Y-160199305D01*
X35539204Y-160235323D01*
X35581071Y-160292661D01*
X35588500Y-160335286D01*
X35588500Y-167720290D01*
X35588020Y-167731272D01*
X35584736Y-167768807D01*
X35594052Y-167803572D01*
X35594491Y-167805210D01*
X35596870Y-167815942D01*
X35603412Y-167853045D01*
X35608923Y-167862590D01*
X35610115Y-167865866D01*
X35611592Y-167869034D01*
X35614446Y-167879684D01*
X35620770Y-167888715D01*
X35636055Y-167910544D01*
X35641961Y-167919815D01*
X35654355Y-167941282D01*
X35659715Y-167950565D01*
X35659717Y-167950570D01*
X35660805Y-167952454D01*
X35660595Y-167952575D01*
X35685993Y-168010616D01*
X35687006Y-168026562D01*
X35687006Y-171450000D01*
X52938169Y-171450054D01*
X52967206Y-171454652D01*
X52967436Y-171453635D01*
X53176995Y-171501054D01*
X53177001Y-171501055D01*
X53182632Y-171502329D01*
X53188403Y-171502556D01*
X53188405Y-171502556D01*
X53256211Y-171505220D01*
X53403098Y-171510991D01*
X53531748Y-171492338D01*
X53615730Y-171480161D01*
X53615734Y-171480160D01*
X53621452Y-171479331D01*
X53687995Y-171456743D01*
X53728492Y-171450057D01*
X55273120Y-171450061D01*
X55732197Y-171450063D01*
X55761205Y-171454658D01*
X55761436Y-171453635D01*
X55970995Y-171501054D01*
X55971001Y-171501055D01*
X55976632Y-171502329D01*
X55982403Y-171502556D01*
X55982405Y-171502556D01*
X56050211Y-171505220D01*
X56197098Y-171510991D01*
X56325748Y-171492338D01*
X56409730Y-171480161D01*
X56409734Y-171480160D01*
X56415452Y-171479331D01*
X56481968Y-171456752D01*
X56522467Y-171450065D01*
X58399222Y-171450071D01*
X58428204Y-171454660D01*
X58428436Y-171453635D01*
X58637995Y-171501054D01*
X58638001Y-171501055D01*
X58643632Y-171502329D01*
X58649403Y-171502556D01*
X58649405Y-171502556D01*
X58717211Y-171505220D01*
X58864098Y-171510991D01*
X58973275Y-171495161D01*
X59076738Y-171480160D01*
X59076743Y-171480159D01*
X59082452Y-171479331D01*
X59087916Y-171477476D01*
X59087921Y-171477475D01*
X59148942Y-171456761D01*
X59189443Y-171450074D01*
X61193249Y-171450080D01*
X61222203Y-171454665D01*
X61222436Y-171453635D01*
X61431995Y-171501054D01*
X61432001Y-171501055D01*
X61437632Y-171502329D01*
X61443403Y-171502556D01*
X61443405Y-171502556D01*
X61511211Y-171505220D01*
X61658098Y-171510991D01*
X61786748Y-171492338D01*
X61870730Y-171480161D01*
X61870734Y-171480160D01*
X61876452Y-171479331D01*
X61942918Y-171456769D01*
X61983417Y-171450082D01*
X62409698Y-171450084D01*
X62484000Y-171450084D01*
X62484000Y-171161203D01*
X62504002Y-171093082D01*
X62513126Y-171080633D01*
X62584908Y-170994326D01*
X62584910Y-170994323D01*
X62588602Y-170989884D01*
X62696410Y-170797379D01*
X62698266Y-170791912D01*
X62698268Y-170791907D01*
X62765475Y-170593921D01*
X62765476Y-170593916D01*
X62767331Y-170588452D01*
X62768159Y-170582743D01*
X62768160Y-170582738D01*
X62798458Y-170373772D01*
X62798991Y-170370098D01*
X62800643Y-170307000D01*
X62780454Y-170087289D01*
X62720565Y-169874936D01*
X62622980Y-169677053D01*
X62509042Y-169524472D01*
X62484310Y-169457922D01*
X62484000Y-169449083D01*
X62484000Y-168367203D01*
X62504002Y-168299082D01*
X62513126Y-168286633D01*
X62522094Y-168275851D01*
X62588602Y-168195884D01*
X62683427Y-168026562D01*
X62693586Y-168008422D01*
X62693587Y-168008420D01*
X62696410Y-168003379D01*
X62698266Y-167997912D01*
X62698268Y-167997907D01*
X62765475Y-167799921D01*
X62765476Y-167799916D01*
X62767331Y-167794452D01*
X62768159Y-167788743D01*
X62768160Y-167788738D01*
X62791610Y-167627006D01*
X62798991Y-167576098D01*
X62800643Y-167513000D01*
X62780454Y-167293289D01*
X62720565Y-167080936D01*
X62622980Y-166883053D01*
X62606859Y-166861464D01*
X62509042Y-166730472D01*
X62484310Y-166663922D01*
X62484000Y-166655083D01*
X62484000Y-166592440D01*
X68176770Y-166592440D01*
X68191200Y-166812604D01*
X68192621Y-166818200D01*
X68192622Y-166818205D01*
X68231890Y-166972821D01*
X68245511Y-167026452D01*
X68247928Y-167031694D01*
X68247928Y-167031695D01*
X68286046Y-167114379D01*
X68337883Y-167226821D01*
X68465222Y-167407002D01*
X68623264Y-167560961D01*
X68628060Y-167564166D01*
X68628063Y-167564168D01*
X68740348Y-167639194D01*
X68806717Y-167683540D01*
X68812020Y-167685818D01*
X68812023Y-167685820D01*
X68979608Y-167757820D01*
X69009436Y-167770635D01*
X69085237Y-167787787D01*
X69218995Y-167818054D01*
X69219001Y-167818055D01*
X69224632Y-167819329D01*
X69230403Y-167819556D01*
X69230405Y-167819556D01*
X69298211Y-167822220D01*
X69445098Y-167827991D01*
X69554275Y-167812161D01*
X69657738Y-167797160D01*
X69657743Y-167797159D01*
X69663452Y-167796331D01*
X69668916Y-167794476D01*
X69668921Y-167794475D01*
X69866907Y-167727268D01*
X69866912Y-167727266D01*
X69872379Y-167725410D01*
X69881522Y-167720290D01*
X69971746Y-167669762D01*
X70064884Y-167617602D01*
X70078700Y-167606112D01*
X70230086Y-167480204D01*
X70234518Y-167476518D01*
X70309802Y-167386000D01*
X70371908Y-167311326D01*
X70371910Y-167311323D01*
X70375602Y-167306884D01*
X70483410Y-167114379D01*
X70485266Y-167108912D01*
X70485268Y-167108907D01*
X70552475Y-166910921D01*
X70552476Y-166910916D01*
X70554331Y-166905452D01*
X70555159Y-166899743D01*
X70555160Y-166899738D01*
X70582577Y-166710645D01*
X70585991Y-166687098D01*
X70587643Y-166624000D01*
X70567454Y-166404289D01*
X70507565Y-166191936D01*
X70409980Y-165994053D01*
X70277967Y-165817267D01*
X70144028Y-165693455D01*
X70120189Y-165671418D01*
X70120186Y-165671416D01*
X70115949Y-165667499D01*
X69929350Y-165549764D01*
X69826885Y-165508885D01*
X69729785Y-165470146D01*
X69724421Y-165468006D01*
X69718761Y-165466880D01*
X69718757Y-165466879D01*
X69513691Y-165426089D01*
X69513688Y-165426089D01*
X69508024Y-165424962D01*
X69502249Y-165424886D01*
X69502245Y-165424886D01*
X69391504Y-165423437D01*
X69287406Y-165422074D01*
X69281709Y-165423053D01*
X69281708Y-165423053D01*
X69075654Y-165458459D01*
X69075653Y-165458459D01*
X69069957Y-165459438D01*
X68862957Y-165535804D01*
X68857996Y-165538756D01*
X68857995Y-165538756D01*
X68691582Y-165637762D01*
X68673341Y-165648614D01*
X68507457Y-165794090D01*
X68370863Y-165967360D01*
X68268131Y-166162620D01*
X68202703Y-166373333D01*
X68176770Y-166592440D01*
X62484000Y-166592440D01*
X62484000Y-165170500D01*
X62504002Y-165102379D01*
X62557658Y-165055886D01*
X62610000Y-165044500D01*
X63946714Y-165044500D01*
X64014835Y-165064502D01*
X64046677Y-165093796D01*
X64082384Y-165140330D01*
X64087718Y-165147282D01*
X64213159Y-165243536D01*
X64359238Y-165304044D01*
X64516000Y-165324682D01*
X64524188Y-165323604D01*
X64664574Y-165305122D01*
X64672762Y-165304044D01*
X64818841Y-165243536D01*
X64944282Y-165147282D01*
X64949617Y-165140330D01*
X64992673Y-165084217D01*
X65040536Y-165021841D01*
X65101044Y-164875762D01*
X65121682Y-164719000D01*
X65101044Y-164562238D01*
X65092897Y-164542569D01*
X65085307Y-164471981D01*
X65117085Y-164408493D01*
X65178142Y-164372264D01*
X65249094Y-164374797D01*
X65257704Y-164378224D01*
X65265316Y-164383554D01*
X65275966Y-164386408D01*
X65279136Y-164387886D01*
X65282410Y-164389078D01*
X65291955Y-164394588D01*
X65329076Y-164401134D01*
X65339783Y-164403508D01*
X65376193Y-164413263D01*
X65387168Y-164412303D01*
X65387170Y-164412303D01*
X65413731Y-164409979D01*
X65424712Y-164409500D01*
X65589774Y-164409500D01*
X65657895Y-164429502D01*
X65704388Y-164483158D01*
X65705158Y-164485060D01*
X65705511Y-164486452D01*
X65797883Y-164686821D01*
X65925222Y-164867002D01*
X66083264Y-165020961D01*
X66088060Y-165024166D01*
X66088063Y-165024168D01*
X66205115Y-165102379D01*
X66266717Y-165143540D01*
X66272020Y-165145818D01*
X66272023Y-165145820D01*
X66430731Y-165214006D01*
X66469436Y-165230635D01*
X66526450Y-165243536D01*
X66678995Y-165278054D01*
X66679001Y-165278055D01*
X66684632Y-165279329D01*
X66690403Y-165279556D01*
X66690405Y-165279556D01*
X66758211Y-165282220D01*
X66905098Y-165287991D01*
X67014275Y-165272161D01*
X67117738Y-165257160D01*
X67117743Y-165257159D01*
X67123452Y-165256331D01*
X67128916Y-165254476D01*
X67128921Y-165254475D01*
X67326907Y-165187268D01*
X67326912Y-165187266D01*
X67332379Y-165185410D01*
X67524884Y-165077602D01*
X67550995Y-165055886D01*
X67690086Y-164940204D01*
X67694518Y-164936518D01*
X67748985Y-164871029D01*
X67831908Y-164771326D01*
X67831910Y-164771323D01*
X67835602Y-164766884D01*
X67943410Y-164574379D01*
X67945266Y-164568912D01*
X67945268Y-164568907D01*
X68012475Y-164370921D01*
X68012476Y-164370916D01*
X68014331Y-164365452D01*
X68015159Y-164359743D01*
X68015160Y-164359738D01*
X68044227Y-164159263D01*
X68045991Y-164147098D01*
X68047643Y-164084000D01*
X68027454Y-163864289D01*
X68017503Y-163829003D01*
X67969134Y-163657500D01*
X67967565Y-163651936D01*
X67869980Y-163454053D01*
X67830900Y-163401718D01*
X67741420Y-163281891D01*
X67741420Y-163281890D01*
X67737967Y-163277267D01*
X67631083Y-163178464D01*
X67580189Y-163131418D01*
X67580186Y-163131416D01*
X67575949Y-163127499D01*
X67389350Y-163009764D01*
X67186955Y-162929017D01*
X67131096Y-162885196D01*
X67107795Y-162818132D01*
X67124451Y-162749117D01*
X67175775Y-162700063D01*
X67193144Y-162692674D01*
X67326907Y-162647268D01*
X67326912Y-162647266D01*
X67332379Y-162645410D01*
X67524884Y-162537602D01*
X67593804Y-162480282D01*
X67690086Y-162400204D01*
X67694518Y-162396518D01*
X67756256Y-162322287D01*
X67831908Y-162231326D01*
X67831910Y-162231323D01*
X67835602Y-162226884D01*
X67922962Y-162070891D01*
X67940586Y-162039422D01*
X67940587Y-162039420D01*
X67943410Y-162034379D01*
X67945266Y-162028912D01*
X67945268Y-162028907D01*
X67992264Y-161890460D01*
X68033101Y-161832383D01*
X68098854Y-161805605D01*
X68168646Y-161818626D01*
X68220319Y-161867313D01*
X68233700Y-161899946D01*
X68244089Y-161940855D01*
X68244090Y-161940857D01*
X68245511Y-161946452D01*
X68247928Y-161951694D01*
X68247928Y-161951695D01*
X68323258Y-162115098D01*
X68337883Y-162146821D01*
X68465222Y-162327002D01*
X68623264Y-162480961D01*
X68628060Y-162484166D01*
X68628063Y-162484168D01*
X68766303Y-162576536D01*
X68806717Y-162603540D01*
X68812020Y-162605818D01*
X68812023Y-162605820D01*
X69000975Y-162687000D01*
X69009436Y-162690635D01*
X69051102Y-162700063D01*
X69218995Y-162738054D01*
X69219001Y-162738055D01*
X69224632Y-162739329D01*
X69230403Y-162739556D01*
X69230405Y-162739556D01*
X69298211Y-162742220D01*
X69445098Y-162747991D01*
X69554275Y-162732161D01*
X69657738Y-162717160D01*
X69657743Y-162717159D01*
X69663452Y-162716331D01*
X69668916Y-162714476D01*
X69668921Y-162714475D01*
X69866907Y-162647268D01*
X69866912Y-162647266D01*
X69872379Y-162645410D01*
X70064884Y-162537602D01*
X70133804Y-162480282D01*
X70230086Y-162400204D01*
X70234518Y-162396518D01*
X70296256Y-162322287D01*
X70371908Y-162231326D01*
X70371910Y-162231323D01*
X70375602Y-162226884D01*
X70462962Y-162070891D01*
X70480586Y-162039422D01*
X70480587Y-162039420D01*
X70483410Y-162034379D01*
X70485266Y-162028912D01*
X70485268Y-162028907D01*
X70552475Y-161830921D01*
X70552476Y-161830916D01*
X70554331Y-161825452D01*
X70555159Y-161819743D01*
X70555160Y-161819738D01*
X70583581Y-161623718D01*
X70585991Y-161607098D01*
X70587643Y-161544000D01*
X70567454Y-161324289D01*
X70507565Y-161111936D01*
X70409980Y-160914053D01*
X70381833Y-160876359D01*
X70281420Y-160741891D01*
X70281420Y-160741890D01*
X70277967Y-160737267D01*
X70115949Y-160587499D01*
X69929350Y-160469764D01*
X69726955Y-160389017D01*
X69671096Y-160345196D01*
X69647795Y-160278132D01*
X69664451Y-160209117D01*
X69715775Y-160160063D01*
X69733144Y-160152674D01*
X69866907Y-160107268D01*
X69866912Y-160107266D01*
X69872379Y-160105410D01*
X70064884Y-159997602D01*
X70121047Y-159950892D01*
X70230086Y-159860204D01*
X70234518Y-159856518D01*
X70375602Y-159686884D01*
X70385654Y-159668935D01*
X70436389Y-159619273D01*
X70495589Y-159604500D01*
X70691381Y-159604500D01*
X70707827Y-159605578D01*
X70739000Y-159609682D01*
X70747188Y-159608604D01*
X70778361Y-159604500D01*
X70842478Y-159596059D01*
X70887574Y-159590122D01*
X70895762Y-159589044D01*
X71041841Y-159528536D01*
X71091491Y-159490438D01*
X71135280Y-159456838D01*
X71160732Y-159437308D01*
X71167282Y-159432282D01*
X71186433Y-159407325D01*
X71197291Y-159394945D01*
X71637946Y-158954290D01*
X71650337Y-158943423D01*
X71668729Y-158929310D01*
X71675282Y-158924282D01*
X71702835Y-158888375D01*
X71771536Y-158798841D01*
X71832044Y-158652762D01*
X71852682Y-158496000D01*
X71848578Y-158464827D01*
X71847500Y-158448381D01*
X71847500Y-155622619D01*
X71848578Y-155606173D01*
X71851604Y-155583188D01*
X71852682Y-155575000D01*
X71832044Y-155418238D01*
X71771536Y-155272159D01*
X71763954Y-155262278D01*
X71675282Y-155146718D01*
X71650328Y-155127570D01*
X71637938Y-155116703D01*
X70689292Y-154168057D01*
X70678432Y-154155675D01*
X70659282Y-154130718D01*
X70636948Y-154113580D01*
X70540392Y-154039491D01*
X70533841Y-154034464D01*
X70387762Y-153973956D01*
X70231000Y-153953318D01*
X70222812Y-153954396D01*
X70199827Y-153957422D01*
X70183381Y-153958500D01*
X68798500Y-153958500D01*
X68730379Y-153938498D01*
X68683886Y-153884842D01*
X68672500Y-153832500D01*
X68672500Y-150161619D01*
X68673578Y-150145173D01*
X68676604Y-150122188D01*
X68677682Y-150114000D01*
X68657044Y-149957238D01*
X68596536Y-149811159D01*
X68545095Y-149744120D01*
X68500282Y-149685718D01*
X68493731Y-149680691D01*
X68489902Y-149676862D01*
X68455879Y-149614549D01*
X68453000Y-149587769D01*
X68453000Y-148920544D01*
X68473002Y-148852423D01*
X68526658Y-148805930D01*
X68596932Y-148795826D01*
X68660830Y-148824733D01*
G37*
G04 #@! TD.AperFunction*
G04 #@! TA.AperFunction,Conductor*
G36*
X67659827Y-155160578D02*
G01*
X67691000Y-155164682D01*
X67699188Y-155163604D01*
X67722173Y-155160578D01*
X67738619Y-155159500D01*
X69930075Y-155159500D01*
X69998196Y-155179502D01*
X70019170Y-155196405D01*
X70609595Y-155786830D01*
X70643621Y-155849142D01*
X70646500Y-155875925D01*
X70646500Y-158195073D01*
X70626498Y-158263194D01*
X70609595Y-158284168D01*
X70559835Y-158333928D01*
X70497523Y-158367954D01*
X70426708Y-158362889D01*
X70369782Y-158320222D01*
X70334869Y-158273467D01*
X70277967Y-158197267D01*
X70115949Y-158047499D01*
X69929350Y-157929764D01*
X69724421Y-157848006D01*
X69718761Y-157846880D01*
X69718757Y-157846879D01*
X69513691Y-157806089D01*
X69513688Y-157806089D01*
X69508024Y-157804962D01*
X69502249Y-157804886D01*
X69502245Y-157804886D01*
X69391504Y-157803437D01*
X69287406Y-157802074D01*
X69281709Y-157803053D01*
X69281708Y-157803053D01*
X69075654Y-157838459D01*
X69075653Y-157838459D01*
X69069957Y-157839438D01*
X68862957Y-157915804D01*
X68857996Y-157918756D01*
X68857995Y-157918756D01*
X68848835Y-157924206D01*
X68673341Y-158028614D01*
X68507457Y-158174090D01*
X68370863Y-158347360D01*
X68268131Y-158542620D01*
X68233931Y-158652762D01*
X68232432Y-158657591D01*
X68193129Y-158716716D01*
X68128100Y-158745207D01*
X68057990Y-158734017D01*
X68005060Y-158686700D01*
X67990830Y-158654428D01*
X67969134Y-158577500D01*
X67967565Y-158571936D01*
X67869980Y-158374053D01*
X67861644Y-158362889D01*
X67741420Y-158201891D01*
X67741420Y-158201890D01*
X67737967Y-158197267D01*
X67575949Y-158047499D01*
X67389350Y-157929764D01*
X67186955Y-157849017D01*
X67131096Y-157805196D01*
X67107795Y-157738132D01*
X67124451Y-157669117D01*
X67175775Y-157620063D01*
X67193144Y-157612674D01*
X67326907Y-157567268D01*
X67326912Y-157567266D01*
X67332379Y-157565410D01*
X67524884Y-157457602D01*
X67533782Y-157450202D01*
X67690086Y-157320204D01*
X67694518Y-157316518D01*
X67773278Y-157221820D01*
X67831908Y-157151326D01*
X67831910Y-157151323D01*
X67835602Y-157146884D01*
X67943410Y-156954379D01*
X67945266Y-156948912D01*
X67945268Y-156948907D01*
X68012475Y-156750921D01*
X68012476Y-156750916D01*
X68014331Y-156745452D01*
X68015159Y-156739743D01*
X68015160Y-156739738D01*
X68045458Y-156530772D01*
X68045991Y-156527098D01*
X68047643Y-156464000D01*
X68027454Y-156244289D01*
X67967565Y-156031936D01*
X67869980Y-155834053D01*
X67842700Y-155797520D01*
X67741420Y-155661891D01*
X67741420Y-155661890D01*
X67737967Y-155657267D01*
X67575949Y-155507499D01*
X67392992Y-155392062D01*
X67346053Y-155338795D01*
X67335364Y-155268608D01*
X67364318Y-155203784D01*
X67423723Y-155164904D01*
X67460227Y-155159500D01*
X67643381Y-155159500D01*
X67659827Y-155160578D01*
G37*
G04 #@! TD.AperFunction*
G04 #@! TA.AperFunction,NonConductor*
G36*
X33432376Y-124494577D02*
G01*
X33432728Y-124494526D01*
X45832902Y-124494526D01*
X45832902Y-124496651D01*
X45836498Y-124496015D01*
X45837975Y-124496627D01*
X45841648Y-124495105D01*
X45842785Y-124494904D01*
X46022778Y-124509067D01*
X46042298Y-124512158D01*
X46212911Y-124553116D01*
X46231708Y-124559224D01*
X46393808Y-124626366D01*
X46411425Y-124635342D01*
X46561025Y-124727016D01*
X46577021Y-124738638D01*
X46710435Y-124852584D01*
X46724416Y-124866565D01*
X46838362Y-124999979D01*
X46849984Y-125015975D01*
X46908424Y-125111341D01*
X46937682Y-125159086D01*
X46941658Y-125165575D01*
X46950634Y-125183191D01*
X46976340Y-125245252D01*
X47017775Y-125345288D01*
X47023884Y-125364089D01*
X47030776Y-125392797D01*
X47064841Y-125534697D01*
X47067933Y-125554220D01*
X47082076Y-125733963D01*
X47082105Y-125734327D01*
X47081884Y-125735378D01*
X47080373Y-125739025D01*
X47080867Y-125740218D01*
X47080049Y-125744111D01*
X47082478Y-125744109D01*
X47082491Y-125760172D01*
X47082432Y-125761273D01*
X47082492Y-125761688D01*
X47098665Y-145542897D01*
X47078719Y-145611034D01*
X47025101Y-145657571D01*
X46972665Y-145669000D01*
X41148000Y-145669000D01*
X41148000Y-147194000D01*
X41127998Y-147262121D01*
X41074342Y-147308614D01*
X41022000Y-147320000D01*
X38354000Y-147320000D01*
X38354000Y-148845000D01*
X38333998Y-148913121D01*
X38280342Y-148959614D01*
X38228000Y-148971000D01*
X31839450Y-148971000D01*
X31771329Y-148950998D01*
X31724836Y-148897342D01*
X31714732Y-148827068D01*
X31744226Y-148762488D01*
X31757621Y-148749188D01*
X31767111Y-148741083D01*
X31767115Y-148741079D01*
X31770871Y-148737871D01*
X31903305Y-148582811D01*
X31994962Y-148433238D01*
X32007261Y-148413168D01*
X32007264Y-148413162D01*
X32009850Y-148408942D01*
X32020194Y-148383970D01*
X32085991Y-148225117D01*
X32085992Y-148225113D01*
X32087884Y-148220546D01*
X32091965Y-148203549D01*
X32134329Y-148027078D01*
X32134329Y-148027076D01*
X32135485Y-148022262D01*
X32151480Y-147818973D01*
X32149575Y-147818973D01*
X32147805Y-147814701D01*
X32147480Y-147811560D01*
X32151006Y-143499104D01*
X38081669Y-143499104D01*
X38081745Y-143499884D01*
X38098647Y-143672256D01*
X38153564Y-143837343D01*
X38157211Y-143843365D01*
X38157212Y-143843367D01*
X38174907Y-143872584D01*
X38243692Y-143986162D01*
X38364550Y-144111314D01*
X38510132Y-144206580D01*
X38573355Y-144230093D01*
X38666600Y-144264771D01*
X38666602Y-144264772D01*
X38673202Y-144267226D01*
X38680180Y-144268157D01*
X38680184Y-144268158D01*
X38748420Y-144277262D01*
X38845656Y-144290236D01*
X38852667Y-144289598D01*
X38852671Y-144289598D01*
X38989507Y-144277144D01*
X39018923Y-144274467D01*
X39025623Y-144272290D01*
X39025628Y-144272289D01*
X39177691Y-144222881D01*
X39177694Y-144222880D01*
X39184390Y-144220704D01*
X39333833Y-144131618D01*
X39459826Y-144011636D01*
X39473387Y-143991226D01*
X39552212Y-143872584D01*
X39556107Y-143866722D01*
X39617889Y-143704079D01*
X39642103Y-143531790D01*
X39642407Y-143510000D01*
X39641185Y-143499104D01*
X44177669Y-143499104D01*
X44177745Y-143499884D01*
X44194647Y-143672256D01*
X44249564Y-143837343D01*
X44253211Y-143843365D01*
X44253212Y-143843367D01*
X44270907Y-143872584D01*
X44339692Y-143986162D01*
X44460550Y-144111314D01*
X44606132Y-144206580D01*
X44669355Y-144230093D01*
X44762600Y-144264771D01*
X44762602Y-144264772D01*
X44769202Y-144267226D01*
X44776180Y-144268157D01*
X44776184Y-144268158D01*
X44844420Y-144277262D01*
X44941656Y-144290236D01*
X44948667Y-144289598D01*
X44948671Y-144289598D01*
X45085507Y-144277144D01*
X45114923Y-144274467D01*
X45121623Y-144272290D01*
X45121628Y-144272289D01*
X45273691Y-144222881D01*
X45273694Y-144222880D01*
X45280390Y-144220704D01*
X45429833Y-144131618D01*
X45555826Y-144011636D01*
X45569387Y-143991226D01*
X45648212Y-143872584D01*
X45652107Y-143866722D01*
X45713889Y-143704079D01*
X45738103Y-143531790D01*
X45738407Y-143510000D01*
X45719013Y-143337102D01*
X45661796Y-143172797D01*
X45569600Y-143025252D01*
X45556274Y-143011832D01*
X45490274Y-142945370D01*
X45447006Y-142901799D01*
X45436342Y-142895031D01*
X45372400Y-142854453D01*
X45300108Y-142808575D01*
X45198015Y-142772221D01*
X45142841Y-142752574D01*
X45142839Y-142752573D01*
X45136207Y-142750212D01*
X45129221Y-142749379D01*
X45129217Y-142749378D01*
X45006107Y-142734699D01*
X44963448Y-142729612D01*
X44956445Y-142730348D01*
X44956444Y-142730348D01*
X44910109Y-142735218D01*
X44790419Y-142747798D01*
X44783753Y-142750067D01*
X44783750Y-142750068D01*
X44632386Y-142801597D01*
X44632383Y-142801598D01*
X44625719Y-142803867D01*
X44477533Y-142895031D01*
X44353228Y-143016760D01*
X44258980Y-143163004D01*
X44256569Y-143169627D01*
X44256568Y-143169630D01*
X44201885Y-143319870D01*
X44201884Y-143319875D01*
X44199475Y-143326493D01*
X44177669Y-143499104D01*
X39641185Y-143499104D01*
X39623013Y-143337102D01*
X39565796Y-143172797D01*
X39473600Y-143025252D01*
X39460274Y-143011832D01*
X39394274Y-142945370D01*
X39351006Y-142901799D01*
X39340342Y-142895031D01*
X39276400Y-142854453D01*
X39204108Y-142808575D01*
X39102015Y-142772221D01*
X39046841Y-142752574D01*
X39046839Y-142752573D01*
X39040207Y-142750212D01*
X39033221Y-142749379D01*
X39033217Y-142749378D01*
X38910107Y-142734699D01*
X38867448Y-142729612D01*
X38860445Y-142730348D01*
X38860444Y-142730348D01*
X38814109Y-142735218D01*
X38694419Y-142747798D01*
X38687753Y-142750067D01*
X38687750Y-142750068D01*
X38536386Y-142801597D01*
X38536383Y-142801598D01*
X38529719Y-142803867D01*
X38381533Y-142895031D01*
X38257228Y-143016760D01*
X38162980Y-143163004D01*
X38160569Y-143169627D01*
X38160568Y-143169630D01*
X38105885Y-143319870D01*
X38105884Y-143319875D01*
X38103475Y-143326493D01*
X38081669Y-143499104D01*
X32151006Y-143499104D01*
X32153082Y-140959104D01*
X38081669Y-140959104D01*
X38081745Y-140959884D01*
X38098647Y-141132256D01*
X38153564Y-141297343D01*
X38157211Y-141303365D01*
X38157212Y-141303367D01*
X38174907Y-141332584D01*
X38243692Y-141446162D01*
X38364550Y-141571314D01*
X38510132Y-141666580D01*
X38573355Y-141690093D01*
X38666600Y-141724771D01*
X38666602Y-141724772D01*
X38673202Y-141727226D01*
X38680180Y-141728157D01*
X38680184Y-141728158D01*
X38748420Y-141737262D01*
X38845656Y-141750236D01*
X38852667Y-141749598D01*
X38852671Y-141749598D01*
X38989507Y-141737144D01*
X39018923Y-141734467D01*
X39025623Y-141732290D01*
X39025628Y-141732289D01*
X39177691Y-141682881D01*
X39177694Y-141682880D01*
X39184390Y-141680704D01*
X39333833Y-141591618D01*
X39459826Y-141471636D01*
X39473387Y-141451226D01*
X39552212Y-141332584D01*
X39556107Y-141326722D01*
X39617889Y-141164079D01*
X39642103Y-140991790D01*
X39642407Y-140970000D01*
X39641185Y-140959104D01*
X44177669Y-140959104D01*
X44177745Y-140959884D01*
X44194647Y-141132256D01*
X44249564Y-141297343D01*
X44253211Y-141303365D01*
X44253212Y-141303367D01*
X44270907Y-141332584D01*
X44339692Y-141446162D01*
X44460550Y-141571314D01*
X44606132Y-141666580D01*
X44669355Y-141690093D01*
X44762600Y-141724771D01*
X44762602Y-141724772D01*
X44769202Y-141727226D01*
X44776180Y-141728157D01*
X44776184Y-141728158D01*
X44844420Y-141737262D01*
X44941656Y-141750236D01*
X44948667Y-141749598D01*
X44948671Y-141749598D01*
X45085507Y-141737144D01*
X45114923Y-141734467D01*
X45121623Y-141732290D01*
X45121628Y-141732289D01*
X45273691Y-141682881D01*
X45273694Y-141682880D01*
X45280390Y-141680704D01*
X45429833Y-141591618D01*
X45555826Y-141471636D01*
X45569387Y-141451226D01*
X45648212Y-141332584D01*
X45652107Y-141326722D01*
X45713889Y-141164079D01*
X45738103Y-140991790D01*
X45738407Y-140970000D01*
X45719013Y-140797102D01*
X45661796Y-140632797D01*
X45569600Y-140485252D01*
X45556274Y-140471832D01*
X45490274Y-140405370D01*
X45447006Y-140361799D01*
X45436342Y-140355031D01*
X45372400Y-140314453D01*
X45300108Y-140268575D01*
X45198015Y-140232221D01*
X45142841Y-140212574D01*
X45142839Y-140212573D01*
X45136207Y-140210212D01*
X45129221Y-140209379D01*
X45129217Y-140209378D01*
X45006107Y-140194699D01*
X44963448Y-140189612D01*
X44956445Y-140190348D01*
X44956444Y-140190348D01*
X44910109Y-140195218D01*
X44790419Y-140207798D01*
X44783753Y-140210067D01*
X44783750Y-140210068D01*
X44632386Y-140261597D01*
X44632383Y-140261598D01*
X44625719Y-140263867D01*
X44477533Y-140355031D01*
X44353228Y-140476760D01*
X44258980Y-140623004D01*
X44256569Y-140629627D01*
X44256568Y-140629630D01*
X44201885Y-140779870D01*
X44201884Y-140779875D01*
X44199475Y-140786493D01*
X44177669Y-140959104D01*
X39641185Y-140959104D01*
X39623013Y-140797102D01*
X39565796Y-140632797D01*
X39473600Y-140485252D01*
X39460274Y-140471832D01*
X39394274Y-140405370D01*
X39351006Y-140361799D01*
X39340342Y-140355031D01*
X39276400Y-140314453D01*
X39204108Y-140268575D01*
X39102015Y-140232221D01*
X39046841Y-140212574D01*
X39046839Y-140212573D01*
X39040207Y-140210212D01*
X39033221Y-140209379D01*
X39033217Y-140209378D01*
X38910107Y-140194699D01*
X38867448Y-140189612D01*
X38860445Y-140190348D01*
X38860444Y-140190348D01*
X38814109Y-140195218D01*
X38694419Y-140207798D01*
X38687753Y-140210067D01*
X38687750Y-140210068D01*
X38536386Y-140261597D01*
X38536383Y-140261598D01*
X38529719Y-140263867D01*
X38381533Y-140355031D01*
X38257228Y-140476760D01*
X38162980Y-140623004D01*
X38160569Y-140629627D01*
X38160568Y-140629630D01*
X38105885Y-140779870D01*
X38105884Y-140779875D01*
X38103475Y-140786493D01*
X38081669Y-140959104D01*
X32153082Y-140959104D01*
X32155159Y-138419104D01*
X38081669Y-138419104D01*
X38081745Y-138419884D01*
X38098647Y-138592256D01*
X38153564Y-138757343D01*
X38157211Y-138763365D01*
X38157212Y-138763367D01*
X38174907Y-138792584D01*
X38243692Y-138906162D01*
X38364550Y-139031314D01*
X38510132Y-139126580D01*
X38573355Y-139150093D01*
X38666600Y-139184771D01*
X38666602Y-139184772D01*
X38673202Y-139187226D01*
X38680180Y-139188157D01*
X38680184Y-139188158D01*
X38748420Y-139197262D01*
X38845656Y-139210236D01*
X38852667Y-139209598D01*
X38852671Y-139209598D01*
X38989507Y-139197144D01*
X39018923Y-139194467D01*
X39025623Y-139192290D01*
X39025628Y-139192289D01*
X39177691Y-139142881D01*
X39177694Y-139142880D01*
X39184390Y-139140704D01*
X39333833Y-139051618D01*
X39459826Y-138931636D01*
X39473387Y-138911226D01*
X39552212Y-138792584D01*
X39556107Y-138786722D01*
X39617889Y-138624079D01*
X39642103Y-138451790D01*
X39642407Y-138430000D01*
X39641185Y-138419104D01*
X44177669Y-138419104D01*
X44177745Y-138419884D01*
X44194647Y-138592256D01*
X44249564Y-138757343D01*
X44253211Y-138763365D01*
X44253212Y-138763367D01*
X44270907Y-138792584D01*
X44339692Y-138906162D01*
X44460550Y-139031314D01*
X44606132Y-139126580D01*
X44669355Y-139150093D01*
X44762600Y-139184771D01*
X44762602Y-139184772D01*
X44769202Y-139187226D01*
X44776180Y-139188157D01*
X44776184Y-139188158D01*
X44844420Y-139197262D01*
X44941656Y-139210236D01*
X44948667Y-139209598D01*
X44948671Y-139209598D01*
X45085507Y-139197144D01*
X45114923Y-139194467D01*
X45121623Y-139192290D01*
X45121628Y-139192289D01*
X45273691Y-139142881D01*
X45273694Y-139142880D01*
X45280390Y-139140704D01*
X45429833Y-139051618D01*
X45555826Y-138931636D01*
X45569387Y-138911226D01*
X45648212Y-138792584D01*
X45652107Y-138786722D01*
X45713889Y-138624079D01*
X45738103Y-138451790D01*
X45738407Y-138430000D01*
X45719013Y-138257102D01*
X45661796Y-138092797D01*
X45569600Y-137945252D01*
X45556274Y-137931832D01*
X45490274Y-137865370D01*
X45447006Y-137821799D01*
X45436342Y-137815031D01*
X45372400Y-137774453D01*
X45300108Y-137728575D01*
X45198015Y-137692221D01*
X45142841Y-137672574D01*
X45142839Y-137672573D01*
X45136207Y-137670212D01*
X45129221Y-137669379D01*
X45129217Y-137669378D01*
X45006107Y-137654699D01*
X44963448Y-137649612D01*
X44956445Y-137650348D01*
X44956444Y-137650348D01*
X44910109Y-137655218D01*
X44790419Y-137667798D01*
X44783753Y-137670067D01*
X44783750Y-137670068D01*
X44632386Y-137721597D01*
X44632383Y-137721598D01*
X44625719Y-137723867D01*
X44477533Y-137815031D01*
X44353228Y-137936760D01*
X44258980Y-138083004D01*
X44256569Y-138089627D01*
X44256568Y-138089630D01*
X44201885Y-138239870D01*
X44201884Y-138239875D01*
X44199475Y-138246493D01*
X44177669Y-138419104D01*
X39641185Y-138419104D01*
X39623013Y-138257102D01*
X39565796Y-138092797D01*
X39473600Y-137945252D01*
X39460274Y-137931832D01*
X39394274Y-137865370D01*
X39351006Y-137821799D01*
X39340342Y-137815031D01*
X39276400Y-137774453D01*
X39204108Y-137728575D01*
X39102015Y-137692221D01*
X39046841Y-137672574D01*
X39046839Y-137672573D01*
X39040207Y-137670212D01*
X39033221Y-137669379D01*
X39033217Y-137669378D01*
X38910107Y-137654699D01*
X38867448Y-137649612D01*
X38860445Y-137650348D01*
X38860444Y-137650348D01*
X38814109Y-137655218D01*
X38694419Y-137667798D01*
X38687753Y-137670067D01*
X38687750Y-137670068D01*
X38536386Y-137721597D01*
X38536383Y-137721598D01*
X38529719Y-137723867D01*
X38381533Y-137815031D01*
X38257228Y-137936760D01*
X38162980Y-138083004D01*
X38160569Y-138089627D01*
X38160568Y-138089630D01*
X38105885Y-138239870D01*
X38105884Y-138239875D01*
X38103475Y-138246493D01*
X38081669Y-138419104D01*
X32155159Y-138419104D01*
X32157235Y-135879104D01*
X38081669Y-135879104D01*
X38081745Y-135879884D01*
X38098647Y-136052256D01*
X38153564Y-136217343D01*
X38157211Y-136223365D01*
X38157212Y-136223367D01*
X38174907Y-136252584D01*
X38243692Y-136366162D01*
X38364550Y-136491314D01*
X38510132Y-136586580D01*
X38573355Y-136610093D01*
X38666600Y-136644771D01*
X38666602Y-136644772D01*
X38673202Y-136647226D01*
X38680180Y-136648157D01*
X38680184Y-136648158D01*
X38748420Y-136657262D01*
X38845656Y-136670236D01*
X38852667Y-136669598D01*
X38852671Y-136669598D01*
X38989507Y-136657144D01*
X39018923Y-136654467D01*
X39025623Y-136652290D01*
X39025628Y-136652289D01*
X39177691Y-136602881D01*
X39177694Y-136602880D01*
X39184390Y-136600704D01*
X39333833Y-136511618D01*
X39459826Y-136391636D01*
X39473387Y-136371226D01*
X39552212Y-136252584D01*
X39556107Y-136246722D01*
X39617889Y-136084079D01*
X39642103Y-135911790D01*
X39642407Y-135890000D01*
X39641185Y-135879104D01*
X44177669Y-135879104D01*
X44177745Y-135879884D01*
X44194647Y-136052256D01*
X44249564Y-136217343D01*
X44253211Y-136223365D01*
X44253212Y-136223367D01*
X44270907Y-136252584D01*
X44339692Y-136366162D01*
X44460550Y-136491314D01*
X44606132Y-136586580D01*
X44669355Y-136610093D01*
X44762600Y-136644771D01*
X44762602Y-136644772D01*
X44769202Y-136647226D01*
X44776180Y-136648157D01*
X44776184Y-136648158D01*
X44844420Y-136657262D01*
X44941656Y-136670236D01*
X44948667Y-136669598D01*
X44948671Y-136669598D01*
X45085507Y-136657144D01*
X45114923Y-136654467D01*
X45121623Y-136652290D01*
X45121628Y-136652289D01*
X45273691Y-136602881D01*
X45273694Y-136602880D01*
X45280390Y-136600704D01*
X45429833Y-136511618D01*
X45555826Y-136391636D01*
X45569387Y-136371226D01*
X45648212Y-136252584D01*
X45652107Y-136246722D01*
X45713889Y-136084079D01*
X45738103Y-135911790D01*
X45738407Y-135890000D01*
X45719013Y-135717102D01*
X45661796Y-135552797D01*
X45569600Y-135405252D01*
X45556274Y-135391832D01*
X45490274Y-135325370D01*
X45447006Y-135281799D01*
X45436342Y-135275031D01*
X45372400Y-135234453D01*
X45300108Y-135188575D01*
X45198015Y-135152221D01*
X45142841Y-135132574D01*
X45142839Y-135132573D01*
X45136207Y-135130212D01*
X45129221Y-135129379D01*
X45129217Y-135129378D01*
X45006107Y-135114699D01*
X44963448Y-135109612D01*
X44956445Y-135110348D01*
X44956444Y-135110348D01*
X44910109Y-135115218D01*
X44790419Y-135127798D01*
X44783753Y-135130067D01*
X44783750Y-135130068D01*
X44632386Y-135181597D01*
X44632383Y-135181598D01*
X44625719Y-135183867D01*
X44477533Y-135275031D01*
X44353228Y-135396760D01*
X44258980Y-135543004D01*
X44256569Y-135549627D01*
X44256568Y-135549630D01*
X44201885Y-135699870D01*
X44201884Y-135699875D01*
X44199475Y-135706493D01*
X44177669Y-135879104D01*
X39641185Y-135879104D01*
X39623013Y-135717102D01*
X39565796Y-135552797D01*
X39473600Y-135405252D01*
X39460274Y-135391832D01*
X39394274Y-135325370D01*
X39351006Y-135281799D01*
X39340342Y-135275031D01*
X39276400Y-135234453D01*
X39204108Y-135188575D01*
X39102015Y-135152221D01*
X39046841Y-135132574D01*
X39046839Y-135132573D01*
X39040207Y-135130212D01*
X39033221Y-135129379D01*
X39033217Y-135129378D01*
X38910107Y-135114699D01*
X38867448Y-135109612D01*
X38860445Y-135110348D01*
X38860444Y-135110348D01*
X38814109Y-135115218D01*
X38694419Y-135127798D01*
X38687753Y-135130067D01*
X38687750Y-135130068D01*
X38536386Y-135181597D01*
X38536383Y-135181598D01*
X38529719Y-135183867D01*
X38381533Y-135275031D01*
X38257228Y-135396760D01*
X38162980Y-135543004D01*
X38160569Y-135549627D01*
X38160568Y-135549630D01*
X38105885Y-135699870D01*
X38105884Y-135699875D01*
X38103475Y-135706493D01*
X38081669Y-135879104D01*
X32157235Y-135879104D01*
X32159312Y-133339104D01*
X38081669Y-133339104D01*
X38081745Y-133339884D01*
X38098647Y-133512256D01*
X38153564Y-133677343D01*
X38157211Y-133683365D01*
X38157212Y-133683367D01*
X38174907Y-133712584D01*
X38243692Y-133826162D01*
X38364550Y-133951314D01*
X38510132Y-134046580D01*
X38573355Y-134070093D01*
X38666600Y-134104771D01*
X38666602Y-134104772D01*
X38673202Y-134107226D01*
X38680180Y-134108157D01*
X38680184Y-134108158D01*
X38748420Y-134117262D01*
X38845656Y-134130236D01*
X38852667Y-134129598D01*
X38852671Y-134129598D01*
X38989507Y-134117144D01*
X39018923Y-134114467D01*
X39025623Y-134112290D01*
X39025628Y-134112289D01*
X39177691Y-134062881D01*
X39177694Y-134062880D01*
X39184390Y-134060704D01*
X39333833Y-133971618D01*
X39459826Y-133851636D01*
X39473387Y-133831226D01*
X39552212Y-133712584D01*
X39556107Y-133706722D01*
X39617889Y-133544079D01*
X39642103Y-133371790D01*
X39642407Y-133350000D01*
X39641185Y-133339104D01*
X44177669Y-133339104D01*
X44177745Y-133339884D01*
X44194647Y-133512256D01*
X44249564Y-133677343D01*
X44253211Y-133683365D01*
X44253212Y-133683367D01*
X44270907Y-133712584D01*
X44339692Y-133826162D01*
X44460550Y-133951314D01*
X44606132Y-134046580D01*
X44669355Y-134070093D01*
X44762600Y-134104771D01*
X44762602Y-134104772D01*
X44769202Y-134107226D01*
X44776180Y-134108157D01*
X44776184Y-134108158D01*
X44844420Y-134117262D01*
X44941656Y-134130236D01*
X44948667Y-134129598D01*
X44948671Y-134129598D01*
X45085507Y-134117144D01*
X45114923Y-134114467D01*
X45121623Y-134112290D01*
X45121628Y-134112289D01*
X45273691Y-134062881D01*
X45273694Y-134062880D01*
X45280390Y-134060704D01*
X45429833Y-133971618D01*
X45555826Y-133851636D01*
X45569387Y-133831226D01*
X45648212Y-133712584D01*
X45652107Y-133706722D01*
X45713889Y-133544079D01*
X45738103Y-133371790D01*
X45738407Y-133350000D01*
X45719013Y-133177102D01*
X45661796Y-133012797D01*
X45569600Y-132865252D01*
X45556274Y-132851832D01*
X45490274Y-132785370D01*
X45447006Y-132741799D01*
X45436342Y-132735031D01*
X45372400Y-132694453D01*
X45300108Y-132648575D01*
X45198015Y-132612221D01*
X45142841Y-132592574D01*
X45142839Y-132592573D01*
X45136207Y-132590212D01*
X45129221Y-132589379D01*
X45129217Y-132589378D01*
X45006107Y-132574699D01*
X44963448Y-132569612D01*
X44956445Y-132570348D01*
X44956444Y-132570348D01*
X44910109Y-132575218D01*
X44790419Y-132587798D01*
X44783753Y-132590067D01*
X44783750Y-132590068D01*
X44632386Y-132641597D01*
X44632383Y-132641598D01*
X44625719Y-132643867D01*
X44477533Y-132735031D01*
X44353228Y-132856760D01*
X44258980Y-133003004D01*
X44256569Y-133009627D01*
X44256568Y-133009630D01*
X44201885Y-133159870D01*
X44201884Y-133159875D01*
X44199475Y-133166493D01*
X44177669Y-133339104D01*
X39641185Y-133339104D01*
X39623013Y-133177102D01*
X39565796Y-133012797D01*
X39473600Y-132865252D01*
X39460274Y-132851832D01*
X39394274Y-132785370D01*
X39351006Y-132741799D01*
X39340342Y-132735031D01*
X39276400Y-132694453D01*
X39204108Y-132648575D01*
X39102015Y-132612221D01*
X39046841Y-132592574D01*
X39046839Y-132592573D01*
X39040207Y-132590212D01*
X39033221Y-132589379D01*
X39033217Y-132589378D01*
X38910107Y-132574699D01*
X38867448Y-132569612D01*
X38860445Y-132570348D01*
X38860444Y-132570348D01*
X38814109Y-132575218D01*
X38694419Y-132587798D01*
X38687753Y-132590067D01*
X38687750Y-132590068D01*
X38536386Y-132641597D01*
X38536383Y-132641598D01*
X38529719Y-132643867D01*
X38381533Y-132735031D01*
X38257228Y-132856760D01*
X38162980Y-133003004D01*
X38160569Y-133009627D01*
X38160568Y-133009630D01*
X38105885Y-133159870D01*
X38105884Y-133159875D01*
X38103475Y-133166493D01*
X38081669Y-133339104D01*
X32159312Y-133339104D01*
X32161389Y-130799104D01*
X38081669Y-130799104D01*
X38081745Y-130799884D01*
X38098647Y-130972256D01*
X38153564Y-131137343D01*
X38157211Y-131143365D01*
X38157212Y-131143367D01*
X38174907Y-131172584D01*
X38243692Y-131286162D01*
X38364550Y-131411314D01*
X38510132Y-131506580D01*
X38573355Y-131530093D01*
X38666600Y-131564771D01*
X38666602Y-131564772D01*
X38673202Y-131567226D01*
X38680180Y-131568157D01*
X38680184Y-131568158D01*
X38748420Y-131577262D01*
X38845656Y-131590236D01*
X38852667Y-131589598D01*
X38852671Y-131589598D01*
X38989507Y-131577144D01*
X39018923Y-131574467D01*
X39025623Y-131572290D01*
X39025628Y-131572289D01*
X39177691Y-131522881D01*
X39177694Y-131522880D01*
X39184390Y-131520704D01*
X39333833Y-131431618D01*
X39459826Y-131311636D01*
X39473387Y-131291226D01*
X39552212Y-131172584D01*
X39556107Y-131166722D01*
X39617889Y-131004079D01*
X39642103Y-130831790D01*
X39642407Y-130810000D01*
X39641185Y-130799104D01*
X44177669Y-130799104D01*
X44177745Y-130799884D01*
X44194647Y-130972256D01*
X44249564Y-131137343D01*
X44253211Y-131143365D01*
X44253212Y-131143367D01*
X44270907Y-131172584D01*
X44339692Y-131286162D01*
X44460550Y-131411314D01*
X44606132Y-131506580D01*
X44669355Y-131530093D01*
X44762600Y-131564771D01*
X44762602Y-131564772D01*
X44769202Y-131567226D01*
X44776180Y-131568157D01*
X44776184Y-131568158D01*
X44844420Y-131577262D01*
X44941656Y-131590236D01*
X44948667Y-131589598D01*
X44948671Y-131589598D01*
X45085507Y-131577144D01*
X45114923Y-131574467D01*
X45121623Y-131572290D01*
X45121628Y-131572289D01*
X45273691Y-131522881D01*
X45273694Y-131522880D01*
X45280390Y-131520704D01*
X45429833Y-131431618D01*
X45555826Y-131311636D01*
X45569387Y-131291226D01*
X45648212Y-131172584D01*
X45652107Y-131166722D01*
X45713889Y-131004079D01*
X45738103Y-130831790D01*
X45738407Y-130810000D01*
X45719013Y-130637102D01*
X45661796Y-130472797D01*
X45569600Y-130325252D01*
X45556274Y-130311832D01*
X45490274Y-130245370D01*
X45447006Y-130201799D01*
X45436342Y-130195031D01*
X45372400Y-130154453D01*
X45300108Y-130108575D01*
X45198015Y-130072221D01*
X45142841Y-130052574D01*
X45142839Y-130052573D01*
X45136207Y-130050212D01*
X45129221Y-130049379D01*
X45129217Y-130049378D01*
X45006107Y-130034699D01*
X44963448Y-130029612D01*
X44956445Y-130030348D01*
X44956444Y-130030348D01*
X44910109Y-130035218D01*
X44790419Y-130047798D01*
X44783753Y-130050067D01*
X44783750Y-130050068D01*
X44632386Y-130101597D01*
X44632383Y-130101598D01*
X44625719Y-130103867D01*
X44477533Y-130195031D01*
X44353228Y-130316760D01*
X44258980Y-130463004D01*
X44256569Y-130469627D01*
X44256568Y-130469630D01*
X44201885Y-130619870D01*
X44201884Y-130619875D01*
X44199475Y-130626493D01*
X44177669Y-130799104D01*
X39641185Y-130799104D01*
X39623013Y-130637102D01*
X39565796Y-130472797D01*
X39473600Y-130325252D01*
X39460274Y-130311832D01*
X39394274Y-130245370D01*
X39351006Y-130201799D01*
X39340342Y-130195031D01*
X39276400Y-130154453D01*
X39204108Y-130108575D01*
X39102015Y-130072221D01*
X39046841Y-130052574D01*
X39046839Y-130052573D01*
X39040207Y-130050212D01*
X39033221Y-130049379D01*
X39033217Y-130049378D01*
X38910107Y-130034699D01*
X38867448Y-130029612D01*
X38860445Y-130030348D01*
X38860444Y-130030348D01*
X38814109Y-130035218D01*
X38694419Y-130047798D01*
X38687753Y-130050067D01*
X38687750Y-130050068D01*
X38536386Y-130101597D01*
X38536383Y-130101598D01*
X38529719Y-130103867D01*
X38381533Y-130195031D01*
X38257228Y-130316760D01*
X38162980Y-130463004D01*
X38160569Y-130469627D01*
X38160568Y-130469630D01*
X38105885Y-130619870D01*
X38105884Y-130619875D01*
X38103475Y-130626493D01*
X38081669Y-130799104D01*
X32161389Y-130799104D01*
X32163466Y-128259104D01*
X38081669Y-128259104D01*
X38081745Y-128259884D01*
X38098647Y-128432256D01*
X38153564Y-128597343D01*
X38157211Y-128603365D01*
X38157212Y-128603367D01*
X38174907Y-128632584D01*
X38243692Y-128746162D01*
X38364550Y-128871314D01*
X38510132Y-128966580D01*
X38573355Y-128990093D01*
X38666600Y-129024771D01*
X38666602Y-129024772D01*
X38673202Y-129027226D01*
X38680180Y-129028157D01*
X38680184Y-129028158D01*
X38748420Y-129037262D01*
X38845656Y-129050236D01*
X38852667Y-129049598D01*
X38852671Y-129049598D01*
X38989507Y-129037144D01*
X39018923Y-129034467D01*
X39025623Y-129032290D01*
X39025628Y-129032289D01*
X39177691Y-128982881D01*
X39177694Y-128982880D01*
X39184390Y-128980704D01*
X39333833Y-128891618D01*
X39459826Y-128771636D01*
X39473387Y-128751226D01*
X39552212Y-128632584D01*
X39556107Y-128626722D01*
X39617889Y-128464079D01*
X39642103Y-128291790D01*
X39642407Y-128270000D01*
X39641185Y-128259104D01*
X44177669Y-128259104D01*
X44177745Y-128259884D01*
X44194647Y-128432256D01*
X44249564Y-128597343D01*
X44253211Y-128603365D01*
X44253212Y-128603367D01*
X44270907Y-128632584D01*
X44339692Y-128746162D01*
X44460550Y-128871314D01*
X44606132Y-128966580D01*
X44669355Y-128990093D01*
X44762600Y-129024771D01*
X44762602Y-129024772D01*
X44769202Y-129027226D01*
X44776180Y-129028157D01*
X44776184Y-129028158D01*
X44844420Y-129037262D01*
X44941656Y-129050236D01*
X44948667Y-129049598D01*
X44948671Y-129049598D01*
X45085507Y-129037144D01*
X45114923Y-129034467D01*
X45121623Y-129032290D01*
X45121628Y-129032289D01*
X45273691Y-128982881D01*
X45273694Y-128982880D01*
X45280390Y-128980704D01*
X45429833Y-128891618D01*
X45555826Y-128771636D01*
X45569387Y-128751226D01*
X45648212Y-128632584D01*
X45652107Y-128626722D01*
X45713889Y-128464079D01*
X45738103Y-128291790D01*
X45738407Y-128270000D01*
X45719013Y-128097102D01*
X45661796Y-127932797D01*
X45569600Y-127785252D01*
X45556274Y-127771832D01*
X45490274Y-127705370D01*
X45447006Y-127661799D01*
X45436342Y-127655031D01*
X45372400Y-127614453D01*
X45300108Y-127568575D01*
X45198015Y-127532221D01*
X45142841Y-127512574D01*
X45142839Y-127512573D01*
X45136207Y-127510212D01*
X45129221Y-127509379D01*
X45129217Y-127509378D01*
X45006107Y-127494699D01*
X44963448Y-127489612D01*
X44956445Y-127490348D01*
X44956444Y-127490348D01*
X44910109Y-127495218D01*
X44790419Y-127507798D01*
X44783753Y-127510067D01*
X44783750Y-127510068D01*
X44632386Y-127561597D01*
X44632383Y-127561598D01*
X44625719Y-127563867D01*
X44477533Y-127655031D01*
X44353228Y-127776760D01*
X44258980Y-127923004D01*
X44256569Y-127929627D01*
X44256568Y-127929630D01*
X44201885Y-128079870D01*
X44201884Y-128079875D01*
X44199475Y-128086493D01*
X44177669Y-128259104D01*
X39641185Y-128259104D01*
X39623013Y-128097102D01*
X39565796Y-127932797D01*
X39473600Y-127785252D01*
X39460274Y-127771832D01*
X39394274Y-127705370D01*
X39351006Y-127661799D01*
X39340342Y-127655031D01*
X39276400Y-127614453D01*
X39204108Y-127568575D01*
X39102015Y-127532221D01*
X39046841Y-127512574D01*
X39046839Y-127512573D01*
X39040207Y-127510212D01*
X39033221Y-127509379D01*
X39033217Y-127509378D01*
X38910107Y-127494699D01*
X38867448Y-127489612D01*
X38860445Y-127490348D01*
X38860444Y-127490348D01*
X38814109Y-127495218D01*
X38694419Y-127507798D01*
X38687753Y-127510067D01*
X38687750Y-127510068D01*
X38536386Y-127561597D01*
X38536383Y-127561598D01*
X38529719Y-127563867D01*
X38381533Y-127655031D01*
X38257228Y-127776760D01*
X38162980Y-127923004D01*
X38160569Y-127929627D01*
X38160568Y-127929630D01*
X38105885Y-128079870D01*
X38105884Y-128079875D01*
X38103475Y-128086493D01*
X38081669Y-128259104D01*
X32163466Y-128259104D01*
X32165522Y-125744108D01*
X32167624Y-125744110D01*
X32166995Y-125740551D01*
X32167627Y-125739025D01*
X32166055Y-125735230D01*
X32165895Y-125734327D01*
X32165924Y-125733963D01*
X32167093Y-125719104D01*
X38081669Y-125719104D01*
X38081745Y-125719884D01*
X38098647Y-125892256D01*
X38153564Y-126057343D01*
X38157211Y-126063365D01*
X38157212Y-126063367D01*
X38174907Y-126092584D01*
X38243692Y-126206162D01*
X38364550Y-126331314D01*
X38510132Y-126426580D01*
X38573355Y-126450093D01*
X38666600Y-126484771D01*
X38666602Y-126484772D01*
X38673202Y-126487226D01*
X38680180Y-126488157D01*
X38680184Y-126488158D01*
X38748420Y-126497262D01*
X38845656Y-126510236D01*
X38852667Y-126509598D01*
X38852671Y-126509598D01*
X38989507Y-126497144D01*
X39018923Y-126494467D01*
X39025623Y-126492290D01*
X39025628Y-126492289D01*
X39177691Y-126442881D01*
X39177694Y-126442880D01*
X39184390Y-126440704D01*
X39333833Y-126351618D01*
X39459826Y-126231636D01*
X39473387Y-126211226D01*
X39552212Y-126092584D01*
X39556107Y-126086722D01*
X39617889Y-125924079D01*
X39642103Y-125751790D01*
X39642407Y-125730000D01*
X39641185Y-125719104D01*
X44177669Y-125719104D01*
X44177745Y-125719884D01*
X44194647Y-125892256D01*
X44249564Y-126057343D01*
X44253211Y-126063365D01*
X44253212Y-126063367D01*
X44270907Y-126092584D01*
X44339692Y-126206162D01*
X44460550Y-126331314D01*
X44606132Y-126426580D01*
X44669355Y-126450093D01*
X44762600Y-126484771D01*
X44762602Y-126484772D01*
X44769202Y-126487226D01*
X44776180Y-126488157D01*
X44776184Y-126488158D01*
X44844420Y-126497262D01*
X44941656Y-126510236D01*
X44948667Y-126509598D01*
X44948671Y-126509598D01*
X45085507Y-126497144D01*
X45114923Y-126494467D01*
X45121623Y-126492290D01*
X45121628Y-126492289D01*
X45273691Y-126442881D01*
X45273694Y-126442880D01*
X45280390Y-126440704D01*
X45429833Y-126351618D01*
X45555826Y-126231636D01*
X45569387Y-126211226D01*
X45648212Y-126092584D01*
X45652107Y-126086722D01*
X45713889Y-125924079D01*
X45738103Y-125751790D01*
X45738407Y-125730000D01*
X45719013Y-125557102D01*
X45661796Y-125392797D01*
X45569600Y-125245252D01*
X45556274Y-125231832D01*
X45490274Y-125165370D01*
X45447006Y-125121799D01*
X45436342Y-125115031D01*
X45372400Y-125074453D01*
X45300108Y-125028575D01*
X45198015Y-124992221D01*
X45142841Y-124972574D01*
X45142839Y-124972573D01*
X45136207Y-124970212D01*
X45129221Y-124969379D01*
X45129217Y-124969378D01*
X45006107Y-124954699D01*
X44963448Y-124949612D01*
X44956445Y-124950348D01*
X44956444Y-124950348D01*
X44910109Y-124955218D01*
X44790419Y-124967798D01*
X44783753Y-124970067D01*
X44783750Y-124970068D01*
X44632386Y-125021597D01*
X44632383Y-125021598D01*
X44625719Y-125023867D01*
X44477533Y-125115031D01*
X44353228Y-125236760D01*
X44258980Y-125383004D01*
X44256569Y-125389627D01*
X44256568Y-125389630D01*
X44201885Y-125539870D01*
X44201884Y-125539875D01*
X44199475Y-125546493D01*
X44177669Y-125719104D01*
X39641185Y-125719104D01*
X39623013Y-125557102D01*
X39565796Y-125392797D01*
X39473600Y-125245252D01*
X39460274Y-125231832D01*
X39394274Y-125165370D01*
X39351006Y-125121799D01*
X39340342Y-125115031D01*
X39276400Y-125074453D01*
X39204108Y-125028575D01*
X39102015Y-124992221D01*
X39046841Y-124972574D01*
X39046839Y-124972573D01*
X39040207Y-124970212D01*
X39033221Y-124969379D01*
X39033217Y-124969378D01*
X38910107Y-124954699D01*
X38867448Y-124949612D01*
X38860445Y-124950348D01*
X38860444Y-124950348D01*
X38814109Y-124955218D01*
X38694419Y-124967798D01*
X38687753Y-124970067D01*
X38687750Y-124970068D01*
X38536386Y-125021597D01*
X38536383Y-125021598D01*
X38529719Y-125023867D01*
X38381533Y-125115031D01*
X38257228Y-125236760D01*
X38162980Y-125383004D01*
X38160569Y-125389627D01*
X38160568Y-125389630D01*
X38105885Y-125539870D01*
X38105884Y-125539875D01*
X38103475Y-125546493D01*
X38081669Y-125719104D01*
X32167093Y-125719104D01*
X32180067Y-125554220D01*
X32183159Y-125534697D01*
X32217225Y-125392797D01*
X32224116Y-125364089D01*
X32230225Y-125345288D01*
X32271661Y-125245252D01*
X32297366Y-125183191D01*
X32306342Y-125165575D01*
X32310319Y-125159086D01*
X32339576Y-125111341D01*
X32398016Y-125015975D01*
X32409638Y-124999979D01*
X32523584Y-124866565D01*
X32537565Y-124852584D01*
X32670979Y-124738638D01*
X32686975Y-124727016D01*
X32836575Y-124635342D01*
X32854192Y-124626366D01*
X33016292Y-124559224D01*
X33035089Y-124553116D01*
X33205702Y-124512158D01*
X33225222Y-124509067D01*
X33405215Y-124494904D01*
X33406537Y-124495182D01*
X33410025Y-124496627D01*
X33411167Y-124496154D01*
X33415098Y-124496980D01*
X33415098Y-124494526D01*
X33431433Y-124494526D01*
X33432376Y-124494577D01*
G37*
G04 #@! TD.AperFunction*
G04 #@! TA.AperFunction,Conductor*
G36*
X41090121Y-147594002D02*
G01*
X41136614Y-147647658D01*
X41148000Y-147700000D01*
X41148000Y-150750000D01*
X41127998Y-150818121D01*
X41074342Y-150864614D01*
X41022000Y-150876000D01*
X32893000Y-150876000D01*
X32893000Y-161672000D01*
X32872998Y-161740121D01*
X32819342Y-161786614D01*
X32767000Y-161798000D01*
X31266500Y-161798000D01*
X31198379Y-161777998D01*
X31151886Y-161724342D01*
X31140500Y-161672000D01*
X31140500Y-157612072D01*
X31140553Y-157612072D01*
X31140538Y-157611980D01*
X31142601Y-157607000D01*
X31134517Y-157587483D01*
X31120072Y-157581500D01*
X31115000Y-157579399D01*
X31109928Y-157581500D01*
X31093552Y-157581500D01*
X31092636Y-157581451D01*
X31092294Y-157581500D01*
X25551500Y-157581500D01*
X25483379Y-157561498D01*
X25436886Y-157507842D01*
X25425500Y-157455500D01*
X25425500Y-153670034D01*
X25425602Y-153632670D01*
X28088160Y-153632670D01*
X28093887Y-153640320D01*
X28265042Y-153745205D01*
X28273837Y-153749687D01*
X28483988Y-153836734D01*
X28493373Y-153839783D01*
X28714554Y-153892885D01*
X28724301Y-153894428D01*
X28951070Y-153912275D01*
X28960930Y-153912275D01*
X29187699Y-153894428D01*
X29197446Y-153892885D01*
X29418627Y-153839783D01*
X29428012Y-153836734D01*
X29638163Y-153749687D01*
X29646958Y-153745205D01*
X29814445Y-153642568D01*
X29823907Y-153632110D01*
X29820124Y-153623334D01*
X28968812Y-152772022D01*
X28954868Y-152764408D01*
X28953035Y-152764539D01*
X28946420Y-152768790D01*
X28094920Y-153620290D01*
X28088160Y-153632670D01*
X25425602Y-153632670D01*
X25428968Y-152404930D01*
X27443725Y-152404930D01*
X27461572Y-152631699D01*
X27463115Y-152641446D01*
X27516217Y-152862627D01*
X27519266Y-152872012D01*
X27606313Y-153082163D01*
X27610795Y-153090958D01*
X27713432Y-153258445D01*
X27723890Y-153267907D01*
X27732666Y-153264124D01*
X28583978Y-152412812D01*
X28590356Y-152401132D01*
X29320408Y-152401132D01*
X29320539Y-152402965D01*
X29324790Y-152409580D01*
X30176290Y-153261080D01*
X30188670Y-153267840D01*
X30196320Y-153262113D01*
X30301205Y-153090958D01*
X30305687Y-153082163D01*
X30392734Y-152872012D01*
X30395783Y-152862627D01*
X30448885Y-152641446D01*
X30450428Y-152631699D01*
X30468275Y-152404930D01*
X30468275Y-152395070D01*
X30450428Y-152168301D01*
X30448885Y-152158554D01*
X30395783Y-151937373D01*
X30392734Y-151927988D01*
X30305687Y-151717837D01*
X30301205Y-151709042D01*
X30198568Y-151541555D01*
X30188110Y-151532093D01*
X30179334Y-151535876D01*
X29328022Y-152387188D01*
X29320408Y-152401132D01*
X28590356Y-152401132D01*
X28591592Y-152398868D01*
X28591461Y-152397035D01*
X28587210Y-152390420D01*
X27735710Y-151538920D01*
X27723330Y-151532160D01*
X27715680Y-151537887D01*
X27610795Y-151709042D01*
X27606313Y-151717837D01*
X27519266Y-151927988D01*
X27516217Y-151937373D01*
X27463115Y-152158554D01*
X27461572Y-152168301D01*
X27443725Y-152395070D01*
X27443725Y-152404930D01*
X25428968Y-152404930D01*
X25432358Y-151167890D01*
X28088093Y-151167890D01*
X28091876Y-151176666D01*
X28943188Y-152027978D01*
X28957132Y-152035592D01*
X28958965Y-152035461D01*
X28965580Y-152031210D01*
X29817080Y-151179710D01*
X29823840Y-151167330D01*
X29818113Y-151159680D01*
X29646958Y-151054795D01*
X29638163Y-151050313D01*
X29428012Y-150963266D01*
X29418627Y-150960217D01*
X29197446Y-150907115D01*
X29187699Y-150905572D01*
X28960930Y-150887725D01*
X28951070Y-150887725D01*
X28724301Y-150905572D01*
X28714554Y-150907115D01*
X28493373Y-150960217D01*
X28483988Y-150963266D01*
X28273837Y-151050313D01*
X28265042Y-151054795D01*
X28097555Y-151157432D01*
X28088093Y-151167890D01*
X25432358Y-151167890D01*
X25434512Y-150382131D01*
X25436561Y-150382137D01*
X25435947Y-150378666D01*
X25436627Y-150377025D01*
X25434936Y-150372945D01*
X25434874Y-150372592D01*
X25449066Y-150192225D01*
X25452159Y-150172697D01*
X25493115Y-150002093D01*
X25499225Y-149983288D01*
X25566366Y-149821192D01*
X25575342Y-149803575D01*
X25667016Y-149653975D01*
X25678638Y-149637979D01*
X25792584Y-149504565D01*
X25806565Y-149490584D01*
X25939979Y-149376638D01*
X25955975Y-149365016D01*
X26105575Y-149273342D01*
X26123192Y-149264366D01*
X26195077Y-149234591D01*
X26243294Y-149225000D01*
X38608000Y-149225000D01*
X38608000Y-147700000D01*
X38628002Y-147631879D01*
X38681658Y-147585386D01*
X38734000Y-147574000D01*
X41022000Y-147574000D01*
X41090121Y-147594002D01*
G37*
G04 #@! TD.AperFunction*
G04 #@! TA.AperFunction,Conductor*
G36*
X50165000Y-155575000D02*
G01*
X48260000Y-155448000D01*
X48260000Y-154940000D01*
X50165000Y-154940000D01*
X50165000Y-155575000D01*
G37*
G04 #@! TD.AperFunction*
M02*
