M48
; DRILL file {KiCad (6.0.9-0)} date Tuesday, 11 June 2024 at 23:13:31
; FORMAT={-:-/ absolute / inch / decimal}
; #@! TF.CreationDate,2024-06-11T23:13:31+01:00
; #@! TF.GenerationSoftware,Kicad,Pcbnew,(6.0.9-0)
; #@! TF.FileFunction,Plated,1,2,PTH
FMAT,2
INCH
; #@! TA.AperFunction,Plated,PTH,ViaDrill
T1C0.0157
; #@! TA.AperFunction,Plated,PTH,ComponentDrill
T2C0.0433
%
G90
G05
T1
X0.94Y-2.56
X0.94Y-2.6
X0.94Y-2.64
X0.94Y-2.68
X0.95Y-1.63
X0.99Y-2.56
X0.99Y-2.6
X0.99Y-2.64
X0.99Y-2.68
X1.0Y-1.58
X1.05Y-1.78
X1.1Y-1.78
X1.11Y-2.56
X1.11Y-2.6
X1.11Y-2.64
X1.11Y-2.68
X1.2Y-1.63
X1.21Y-4.65
X1.21Y-4.69
X1.21Y-4.73
X1.21Y-4.77
X1.25Y-1.5
X1.25Y-2.32
X1.25Y-4.65
X1.25Y-4.69
X1.25Y-4.73
X1.25Y-4.77
X1.287Y-4.271
X1.289Y-4.6895
X1.29Y-4.65
X1.29Y-4.73
X1.29Y-4.77
X1.3Y-2.32
X1.32Y-2.66
X1.33Y-4.65
X1.33Y-4.69
X1.33Y-4.73
X1.33Y-4.77
X1.36Y-2.25
X1.36Y-4.44
X1.37Y-2.66
X1.41Y-1.79
X1.42Y-1.64
X1.47Y-1.58
X1.5Y-2.29
X1.55Y-2.33
X1.644Y-4.253
X1.66Y-4.37
X1.67Y-3.3
X1.71Y-3.3
X1.75Y-3.3
X1.75Y-3.34
X1.75Y-3.38
X1.85Y-1.41
X1.85Y-1.46
X1.9Y-1.07
X1.94Y-1.07
X1.97Y-1.42
X1.98Y-1.07
X2.01Y-4.43
X2.015Y-1.502
X2.02Y-1.07
X2.035Y-4.251
X2.0472Y-1.5354
X2.0472Y-1.5748
X2.0472Y-1.6142
X2.0472Y-1.6535
X2.0472Y-1.6929
X2.0472Y-1.7323
X2.0472Y-1.7717
X2.0472Y-1.811
X2.0472Y-2.7559
X2.0472Y-2.9528
X2.0472Y-3.1496
X2.0472Y-3.3465
X2.0472Y-3.5433
X2.0472Y-3.7402
X2.0472Y-3.937
X2.0472Y-4.1339
X2.05Y-1.43
X2.06Y-4.37
X2.0866Y-1.5354
X2.0866Y-1.5748
X2.0866Y-1.6142
X2.0866Y-1.6535
X2.0866Y-1.6929
X2.0866Y-1.7323
X2.0866Y-1.7717
X2.0866Y-1.811
X2.0866Y-2.7559
X2.0866Y-2.9528
X2.0866Y-3.1496
X2.0866Y-3.3465
X2.0866Y-3.5433
X2.0866Y-3.7402
X2.0866Y-3.937
X2.0866Y-4.1339
X2.27Y-1.3632
X2.393Y-1.461
X2.4Y-4.43
X2.415Y-1.501
X2.432Y-4.252
X2.4409Y-1.5354
X2.4409Y-1.5748
X2.4409Y-1.6142
X2.4409Y-1.6535
X2.4409Y-1.6929
X2.4409Y-1.7323
X2.4409Y-1.7717
X2.4409Y-1.811
X2.4409Y-2.7559
X2.4409Y-2.9528
X2.4409Y-3.1496
X2.4409Y-3.3465
X2.4409Y-3.5433
X2.4409Y-3.7402
X2.4409Y-3.937
X2.4409Y-4.1339
X2.46Y-1.43
X2.46Y-4.38
X2.4803Y-1.5354
X2.4803Y-1.5748
X2.4803Y-1.6142
X2.4803Y-1.6535
X2.4803Y-1.6929
X2.4803Y-1.7323
X2.4803Y-1.7717
X2.4803Y-1.811
X2.4803Y-2.7559
X2.4803Y-2.9528
X2.4803Y-3.1496
X2.4803Y-3.3465
X2.4803Y-3.5433
X2.4803Y-3.7402
X2.4803Y-3.937
X2.4803Y-4.1339
X2.66Y-1.37
X2.788Y-1.461
X2.79Y-4.43
X2.814Y-1.499
X2.827Y-4.252
X2.8346Y-1.5354
X2.8346Y-1.5748
X2.8346Y-1.6142
X2.8346Y-1.6535
X2.8346Y-1.6929
X2.8346Y-1.7323
X2.8346Y-1.7717
X2.8346Y-1.811
X2.8346Y-2.7559
X2.8346Y-2.9528
X2.8346Y-3.1496
X2.8346Y-3.3465
X2.8346Y-3.5433
X2.8346Y-3.7402
X2.8346Y-3.937
X2.8346Y-4.1339
X2.84Y-1.43
X2.84Y-4.37
X2.874Y-1.5354
X2.874Y-1.5748
X2.874Y-1.6142
X2.874Y-1.6535
X2.874Y-1.6929
X2.874Y-1.7323
X2.874Y-1.7717
X2.874Y-1.811
X2.874Y-2.7559
X2.874Y-2.9528
X2.874Y-3.1496
X2.874Y-3.3465
X2.874Y-3.5433
X2.874Y-3.7402
X2.874Y-3.937
X2.874Y-4.1339
X3.06Y-1.37
X3.175Y-1.461
X3.19Y-4.43
X3.203Y-1.503
X3.224Y-4.254
X3.2283Y-1.5354
X3.2283Y-1.5748
X3.2283Y-1.6142
X3.2283Y-1.6535
X3.2283Y-1.6929
X3.2283Y-1.7323
X3.2283Y-1.7717
X3.2283Y-1.811
X3.2283Y-2.7559
X3.2283Y-2.9528
X3.2283Y-3.1496
X3.2283Y-3.3465
X3.2283Y-3.5433
X3.2283Y-3.7402
X3.2283Y-3.937
X3.2283Y-4.1339
X3.24Y-4.37
X3.25Y-1.43
X3.2677Y-1.5354
X3.2677Y-1.5748
X3.2677Y-1.6142
X3.2677Y-1.6535
X3.2677Y-1.6929
X3.2677Y-1.7323
X3.2677Y-1.7717
X3.2677Y-1.811
X3.2677Y-2.7559
X3.2677Y-2.9528
X3.2677Y-3.1496
X3.2677Y-3.3465
X3.2677Y-3.5433
X3.2677Y-3.7402
X3.2677Y-3.937
X3.2677Y-4.1339
X3.46Y-1.3632
X3.572Y-1.461
X3.58Y-4.43
X3.597Y-1.501
X3.613Y-4.253
X3.622Y-1.5354
X3.622Y-1.5748
X3.622Y-1.6142
X3.622Y-1.6535
X3.622Y-1.6929
X3.622Y-1.7323
X3.622Y-1.7717
X3.622Y-1.811
X3.622Y-2.7559
X3.622Y-2.9528
X3.622Y-3.1496
X3.622Y-3.3465
X3.622Y-3.5433
X3.622Y-3.7402
X3.622Y-3.937
X3.622Y-4.1339
X3.63Y-4.36
X3.64Y-1.43
X3.6614Y-1.5354
X3.6614Y-1.5748
X3.6614Y-1.6142
X3.6614Y-1.6535
X3.6614Y-1.6929
X3.6614Y-1.7323
X3.6614Y-1.7717
X3.6614Y-1.811
X3.6614Y-2.7559
X3.6614Y-2.9528
X3.6614Y-3.1496
X3.6614Y-3.3465
X3.6614Y-3.5433
X3.6614Y-3.7402
X3.6614Y-3.937
X3.6614Y-4.1339
X3.85Y-1.37
X3.969Y-1.461
X3.98Y-4.43
X3.988Y-1.504
X4.005Y-4.254
X4.0157Y-1.5354
X4.0157Y-1.5748
X4.0157Y-1.6142
X4.0157Y-1.6535
X4.0157Y-1.6929
X4.0157Y-1.7323
X4.0157Y-1.7717
X4.0157Y-1.811
X4.0157Y-2.7559
X4.0157Y-2.9528
X4.0157Y-3.1496
X4.0157Y-3.3465
X4.0157Y-3.5433
X4.0157Y-3.7402
X4.0157Y-3.937
X4.0157Y-4.1339
X4.03Y-1.43
X4.03Y-1.49
X4.03Y-4.37
X4.0551Y-1.5354
X4.0551Y-1.5748
X4.0551Y-1.6142
X4.0551Y-1.6535
X4.0551Y-1.6929
X4.0551Y-1.7323
X4.0551Y-1.7717
X4.0551Y-1.811
X4.0551Y-2.7559
X4.0551Y-2.9528
X4.0551Y-3.1496
X4.0551Y-3.3465
X4.0551Y-3.5433
X4.0551Y-3.7402
X4.0551Y-3.937
X4.0551Y-4.1339
X4.12Y-1.37
X4.3Y-4.7
X4.3Y-4.74
X4.3Y-4.78
X4.3Y-4.82
X4.34Y-4.7
X4.34Y-4.74
X4.34Y-4.78
X4.34Y-4.82
X4.36Y-1.06
X4.36Y-1.1
X4.36Y-1.14
X4.379Y-4.7395
X4.38Y-4.7
X4.38Y-4.78
X4.38Y-4.82
X4.4Y-1.06
X4.4Y-1.1
X4.4Y-1.14
X4.4Y-1.18
X4.42Y-4.7
X4.42Y-4.74
X4.42Y-4.78
X4.42Y-4.82
X4.439Y-1.0995
X4.44Y-1.06
X4.44Y-1.14
X4.44Y-1.18
X4.48Y-1.06
X4.48Y-1.1
X4.48Y-1.14
X4.48Y-1.18
T2
X0.9843Y-2.8071
X0.9843Y-2.9071
X0.9843Y-3.0051
X0.9843Y-3.1071
X0.9843Y-3.2071
X0.9843Y-3.3051
X0.9843Y-3.8157
X0.9843Y-3.9157
X0.9843Y-4.0138
X0.9843Y-4.5244
X0.9843Y-4.6244
X0.9843Y-4.7224
T0
M30
