G04 #@! TF.GenerationSoftware,KiCad,Pcbnew,(6.0.9-0)*
G04 #@! TF.CreationDate,2023-12-07T00:14:06+00:00*
G04 #@! TF.ProjectId,BalanceBoard,42616c61-6e63-4654-926f-6172642e6b69,rev?*
G04 #@! TF.SameCoordinates,Original*
G04 #@! TF.FileFunction,Profile,NP*
%FSLAX46Y46*%
G04 Gerber Fmt 4.6, Leading zero omitted, Abs format (unit mm)*
G04 Created by KiCad (PCBNEW (6.0.9-0)) date 2023-12-07 00:14:06*
%MOMM*%
%LPD*%
G01*
G04 APERTURE LIST*
G04 #@! TA.AperFunction,Profile*
%ADD10C,0.050000*%
G04 #@! TD*
G04 APERTURE END LIST*
D10*
X68208026Y-147818974D02*
G75*
G03*
X69478026Y-149088974I1269974J-26D01*
G01*
X25400000Y-157607000D02*
X31115000Y-157607000D01*
X25409026Y-150377026D02*
X25400000Y-153670000D01*
X68189974Y-125739026D02*
X68208026Y-147818974D01*
X39612000Y-133350000D02*
G75*
G03*
X39612000Y-133350000I-750000J0D01*
G01*
X25409026Y-172710974D02*
G75*
G03*
X26679026Y-173980974I1269974J-26D01*
G01*
X39612000Y-135890000D02*
G75*
G03*
X39612000Y-135890000I-750000J0D01*
G01*
X39612000Y-143510000D02*
G75*
G03*
X39612000Y-143510000I-750000J0D01*
G01*
X25400000Y-165481000D02*
X25409026Y-172710974D01*
X68189974Y-125739026D02*
G75*
G03*
X66919974Y-124469026I-1269974J26D01*
G01*
X33410026Y-124469026D02*
G75*
G03*
X32140026Y-125739026I-26J-1269974D01*
G01*
X31115000Y-165481000D02*
X25400000Y-165481000D01*
X45708000Y-133350000D02*
G75*
G03*
X45708000Y-133350000I-750000J0D01*
G01*
X39612000Y-125730000D02*
G75*
G03*
X39612000Y-125730000I-750000J0D01*
G01*
X69478026Y-149088974D02*
X73650974Y-149107026D01*
X45708000Y-138430000D02*
G75*
G03*
X45708000Y-138430000I-750000J0D01*
G01*
X47126026Y-147818974D02*
G75*
G03*
X48396026Y-149088974I1269974J-26D01*
G01*
X54492026Y-124469026D02*
X66919974Y-124469026D01*
X73650974Y-173980974D02*
G75*
G03*
X74920974Y-172710974I26J1269974D01*
G01*
X74920974Y-150377026D02*
G75*
G03*
X73650974Y-149107026I-1269974J26D01*
G01*
X45708000Y-130810000D02*
G75*
G03*
X45708000Y-130810000I-750000J0D01*
G01*
X30851974Y-149088974D02*
X26679026Y-149107026D01*
X39612000Y-138430000D02*
G75*
G03*
X39612000Y-138430000I-750000J0D01*
G01*
X30851974Y-149088974D02*
G75*
G03*
X32121974Y-147818974I26J1269974D01*
G01*
X45708000Y-135890000D02*
G75*
G03*
X45708000Y-135890000I-750000J0D01*
G01*
X45708000Y-128270000D02*
G75*
G03*
X45708000Y-128270000I-750000J0D01*
G01*
X31115000Y-157607000D02*
X31115000Y-165481000D01*
X53203974Y-147818974D02*
X53222026Y-125739026D01*
X39612000Y-130810000D02*
G75*
G03*
X39612000Y-130810000I-750000J0D01*
G01*
X25400000Y-153670000D02*
X25400000Y-157607000D01*
X33410026Y-124469026D02*
X45837974Y-124469026D01*
X32121974Y-147818974D02*
X32140026Y-125739026D01*
X39612000Y-128270000D02*
G75*
G03*
X39612000Y-128270000I-750000J0D01*
G01*
X47107974Y-125739026D02*
G75*
G03*
X45837974Y-124469026I-1269974J26D01*
G01*
X45708000Y-140970000D02*
G75*
G03*
X45708000Y-140970000I-750000J0D01*
G01*
X39612000Y-140970000D02*
G75*
G03*
X39612000Y-140970000I-750000J0D01*
G01*
X26679026Y-149107026D02*
G75*
G03*
X25409026Y-150377026I-26J-1269974D01*
G01*
X54492026Y-124469026D02*
G75*
G03*
X53222026Y-125739026I-26J-1269974D01*
G01*
X45708000Y-125730000D02*
G75*
G03*
X45708000Y-125730000I-750000J0D01*
G01*
X51933974Y-149088974D02*
G75*
G03*
X53203974Y-147818974I26J1269974D01*
G01*
X26679026Y-173980974D02*
X73650974Y-173980974D01*
X47107974Y-125739026D02*
X47126026Y-147818974D01*
X45708000Y-143510000D02*
G75*
G03*
X45708000Y-143510000I-750000J0D01*
G01*
X74920974Y-172710974D02*
X74920974Y-150377026D01*
X48396026Y-149088974D02*
X51933974Y-149088974D01*
M02*
