G04 #@! TF.GenerationSoftware,KiCad,Pcbnew,(6.0.9-0)*
G04 #@! TF.CreationDate,2023-12-07T00:14:06+00:00*
G04 #@! TF.ProjectId,BalanceBoard,42616c61-6e63-4654-926f-6172642e6b69,rev?*
G04 #@! TF.SameCoordinates,Original*
G04 #@! TF.FileFunction,Legend,Bot*
G04 #@! TF.FilePolarity,Positive*
%FSLAX46Y46*%
G04 Gerber Fmt 4.6, Leading zero omitted, Abs format (unit mm)*
G04 Created by KiCad (PCBNEW (6.0.9-0)) date 2023-12-07 00:14:06*
%MOMM*%
%LPD*%
G01*
G04 APERTURE LIST*
%ADD10C,0.150000*%
%ADD11C,0.120000*%
G04 APERTURE END LIST*
D10*
X47601047Y-173013666D02*
X47124857Y-173013666D01*
X47696285Y-173299380D02*
X47362952Y-172299380D01*
X47029619Y-173299380D01*
X46410571Y-172299380D02*
X46410571Y-173013666D01*
X46458190Y-173156523D01*
X46553428Y-173251761D01*
X46696285Y-173299380D01*
X46791523Y-173299380D01*
X45362952Y-173299380D02*
X45696285Y-172823190D01*
X45934380Y-173299380D02*
X45934380Y-172299380D01*
X45553428Y-172299380D01*
X45458190Y-172347000D01*
X45410571Y-172394619D01*
X45362952Y-172489857D01*
X45362952Y-172632714D01*
X45410571Y-172727952D01*
X45458190Y-172775571D01*
X45553428Y-172823190D01*
X45934380Y-172823190D01*
X72706761Y-173172380D02*
X72706761Y-172172380D01*
X72468666Y-172172380D01*
X72325809Y-172220000D01*
X72230571Y-172315238D01*
X72182952Y-172410476D01*
X72135333Y-172600952D01*
X72135333Y-172743809D01*
X72182952Y-172934285D01*
X72230571Y-173029523D01*
X72325809Y-173124761D01*
X72468666Y-173172380D01*
X72706761Y-173172380D01*
X71325809Y-173124761D02*
X71421047Y-173172380D01*
X71611523Y-173172380D01*
X71706761Y-173124761D01*
X71754380Y-173029523D01*
X71754380Y-172648571D01*
X71706761Y-172553333D01*
X71611523Y-172505714D01*
X71421047Y-172505714D01*
X71325809Y-172553333D01*
X71278190Y-172648571D01*
X71278190Y-172743809D01*
X71754380Y-172839047D01*
X70421047Y-173124761D02*
X70516285Y-173172380D01*
X70706761Y-173172380D01*
X70802000Y-173124761D01*
X70849619Y-173077142D01*
X70897238Y-172981904D01*
X70897238Y-172696190D01*
X70849619Y-172600952D01*
X70802000Y-172553333D01*
X70706761Y-172505714D01*
X70516285Y-172505714D01*
X70421047Y-172553333D01*
X69278190Y-172267619D02*
X69230571Y-172220000D01*
X69135333Y-172172380D01*
X68897238Y-172172380D01*
X68802000Y-172220000D01*
X68754380Y-172267619D01*
X68706761Y-172362857D01*
X68706761Y-172458095D01*
X68754380Y-172600952D01*
X69325809Y-173172380D01*
X68706761Y-173172380D01*
X68087714Y-172172380D02*
X67992476Y-172172380D01*
X67897238Y-172220000D01*
X67849619Y-172267619D01*
X67802000Y-172362857D01*
X67754380Y-172553333D01*
X67754380Y-172791428D01*
X67802000Y-172981904D01*
X67849619Y-173077142D01*
X67897238Y-173124761D01*
X67992476Y-173172380D01*
X68087714Y-173172380D01*
X68182952Y-173124761D01*
X68230571Y-173077142D01*
X68278190Y-172981904D01*
X68325809Y-172791428D01*
X68325809Y-172553333D01*
X68278190Y-172362857D01*
X68230571Y-172267619D01*
X68182952Y-172220000D01*
X68087714Y-172172380D01*
X67373428Y-172267619D02*
X67325809Y-172220000D01*
X67230571Y-172172380D01*
X66992476Y-172172380D01*
X66897238Y-172220000D01*
X66849619Y-172267619D01*
X66802000Y-172362857D01*
X66802000Y-172458095D01*
X66849619Y-172600952D01*
X67421047Y-173172380D01*
X66802000Y-173172380D01*
X66468666Y-172172380D02*
X65849619Y-172172380D01*
X66182952Y-172553333D01*
X66040095Y-172553333D01*
X65944857Y-172600952D01*
X65897238Y-172648571D01*
X65849619Y-172743809D01*
X65849619Y-172981904D01*
X65897238Y-173077142D01*
X65944857Y-173124761D01*
X66040095Y-173172380D01*
X66325809Y-173172380D01*
X66421047Y-173124761D01*
X66468666Y-173077142D01*
X64087714Y-173172380D02*
X64421047Y-172696190D01*
X64659142Y-173172380D02*
X64659142Y-172172380D01*
X64278190Y-172172380D01*
X64182952Y-172220000D01*
X64135333Y-172267619D01*
X64087714Y-172362857D01*
X64087714Y-172505714D01*
X64135333Y-172600952D01*
X64182952Y-172648571D01*
X64278190Y-172696190D01*
X64659142Y-172696190D01*
X63278190Y-173124761D02*
X63373428Y-173172380D01*
X63563904Y-173172380D01*
X63659142Y-173124761D01*
X63706761Y-173029523D01*
X63706761Y-172648571D01*
X63659142Y-172553333D01*
X63563904Y-172505714D01*
X63373428Y-172505714D01*
X63278190Y-172553333D01*
X63230571Y-172648571D01*
X63230571Y-172743809D01*
X63706761Y-172839047D01*
X62897238Y-172505714D02*
X62659142Y-173172380D01*
X62421047Y-172505714D01*
X61325809Y-172886666D02*
X60849619Y-172886666D01*
X61421047Y-173172380D02*
X61087714Y-172172380D01*
X60754380Y-173172380D01*
X55157666Y-132183142D02*
X55205285Y-132230761D01*
X55348142Y-132278380D01*
X55443380Y-132278380D01*
X55586238Y-132230761D01*
X55681476Y-132135523D01*
X55729095Y-132040285D01*
X55776714Y-131849809D01*
X55776714Y-131706952D01*
X55729095Y-131516476D01*
X55681476Y-131421238D01*
X55586238Y-131326000D01*
X55443380Y-131278380D01*
X55348142Y-131278380D01*
X55205285Y-131326000D01*
X55157666Y-131373619D01*
X54252904Y-131278380D02*
X54729095Y-131278380D01*
X54776714Y-131754571D01*
X54729095Y-131706952D01*
X54633857Y-131659333D01*
X54395761Y-131659333D01*
X54300523Y-131706952D01*
X54252904Y-131754571D01*
X54205285Y-131849809D01*
X54205285Y-132087904D01*
X54252904Y-132183142D01*
X54300523Y-132230761D01*
X54395761Y-132278380D01*
X54633857Y-132278380D01*
X54729095Y-132230761D01*
X54776714Y-132183142D01*
X45378666Y-170410142D02*
X45426285Y-170457761D01*
X45569142Y-170505380D01*
X45664380Y-170505380D01*
X45807238Y-170457761D01*
X45902476Y-170362523D01*
X45950095Y-170267285D01*
X45997714Y-170076809D01*
X45997714Y-169933952D01*
X45950095Y-169743476D01*
X45902476Y-169648238D01*
X45807238Y-169553000D01*
X45664380Y-169505380D01*
X45569142Y-169505380D01*
X45426285Y-169553000D01*
X45378666Y-169600619D01*
X44521523Y-169505380D02*
X44712000Y-169505380D01*
X44807238Y-169553000D01*
X44854857Y-169600619D01*
X44950095Y-169743476D01*
X44997714Y-169933952D01*
X44997714Y-170314904D01*
X44950095Y-170410142D01*
X44902476Y-170457761D01*
X44807238Y-170505380D01*
X44616761Y-170505380D01*
X44521523Y-170457761D01*
X44473904Y-170410142D01*
X44426285Y-170314904D01*
X44426285Y-170076809D01*
X44473904Y-169981571D01*
X44521523Y-169933952D01*
X44616761Y-169886333D01*
X44807238Y-169886333D01*
X44902476Y-169933952D01*
X44950095Y-169981571D01*
X44997714Y-170076809D01*
X40933666Y-154662142D02*
X40981285Y-154709761D01*
X41124142Y-154757380D01*
X41219380Y-154757380D01*
X41362238Y-154709761D01*
X41457476Y-154614523D01*
X41505095Y-154519285D01*
X41552714Y-154328809D01*
X41552714Y-154185952D01*
X41505095Y-153995476D01*
X41457476Y-153900238D01*
X41362238Y-153805000D01*
X41219380Y-153757380D01*
X41124142Y-153757380D01*
X40981285Y-153805000D01*
X40933666Y-153852619D01*
X40600333Y-153757380D02*
X39933666Y-153757380D01*
X40362238Y-154757380D01*
X59221666Y-142311380D02*
X59555000Y-141835190D01*
X59793095Y-142311380D02*
X59793095Y-141311380D01*
X59412142Y-141311380D01*
X59316904Y-141359000D01*
X59269285Y-141406619D01*
X59221666Y-141501857D01*
X59221666Y-141644714D01*
X59269285Y-141739952D01*
X59316904Y-141787571D01*
X59412142Y-141835190D01*
X59793095Y-141835190D01*
X58840714Y-141406619D02*
X58793095Y-141359000D01*
X58697857Y-141311380D01*
X58459761Y-141311380D01*
X58364523Y-141359000D01*
X58316904Y-141406619D01*
X58269285Y-141501857D01*
X58269285Y-141597095D01*
X58316904Y-141739952D01*
X58888333Y-142311380D01*
X58269285Y-142311380D01*
X48883866Y-166212780D02*
X49217200Y-165736590D01*
X49455295Y-166212780D02*
X49455295Y-165212780D01*
X49074342Y-165212780D01*
X48979104Y-165260400D01*
X48931485Y-165308019D01*
X48883866Y-165403257D01*
X48883866Y-165546114D01*
X48931485Y-165641352D01*
X48979104Y-165688971D01*
X49074342Y-165736590D01*
X49455295Y-165736590D01*
X48550533Y-165212780D02*
X47931485Y-165212780D01*
X48264819Y-165593733D01*
X48121961Y-165593733D01*
X48026723Y-165641352D01*
X47979104Y-165688971D01*
X47931485Y-165784209D01*
X47931485Y-166022304D01*
X47979104Y-166117542D01*
X48026723Y-166165161D01*
X48121961Y-166212780D01*
X48407676Y-166212780D01*
X48502914Y-166165161D01*
X48550533Y-166117542D01*
X37885666Y-172410380D02*
X38219000Y-171934190D01*
X38457095Y-172410380D02*
X38457095Y-171410380D01*
X38076142Y-171410380D01*
X37980904Y-171458000D01*
X37933285Y-171505619D01*
X37885666Y-171600857D01*
X37885666Y-171743714D01*
X37933285Y-171838952D01*
X37980904Y-171886571D01*
X38076142Y-171934190D01*
X38457095Y-171934190D01*
X37028523Y-171743714D02*
X37028523Y-172410380D01*
X37266619Y-171362761D02*
X37504714Y-172077047D01*
X36885666Y-172077047D01*
X34710666Y-170124380D02*
X35044000Y-169648190D01*
X35282095Y-170124380D02*
X35282095Y-169124380D01*
X34901142Y-169124380D01*
X34805904Y-169172000D01*
X34758285Y-169219619D01*
X34710666Y-169314857D01*
X34710666Y-169457714D01*
X34758285Y-169552952D01*
X34805904Y-169600571D01*
X34901142Y-169648190D01*
X35282095Y-169648190D01*
X33805904Y-169124380D02*
X34282095Y-169124380D01*
X34329714Y-169600571D01*
X34282095Y-169552952D01*
X34186857Y-169505333D01*
X33948761Y-169505333D01*
X33853523Y-169552952D01*
X33805904Y-169600571D01*
X33758285Y-169695809D01*
X33758285Y-169933904D01*
X33805904Y-170029142D01*
X33853523Y-170076761D01*
X33948761Y-170124380D01*
X34186857Y-170124380D01*
X34282095Y-170076761D01*
X34329714Y-170029142D01*
X51855666Y-169616380D02*
X52189000Y-169140190D01*
X52427095Y-169616380D02*
X52427095Y-168616380D01*
X52046142Y-168616380D01*
X51950904Y-168664000D01*
X51903285Y-168711619D01*
X51855666Y-168806857D01*
X51855666Y-168949714D01*
X51903285Y-169044952D01*
X51950904Y-169092571D01*
X52046142Y-169140190D01*
X52427095Y-169140190D01*
X50998523Y-168616380D02*
X51189000Y-168616380D01*
X51284238Y-168664000D01*
X51331857Y-168711619D01*
X51427095Y-168854476D01*
X51474714Y-169044952D01*
X51474714Y-169425904D01*
X51427095Y-169521142D01*
X51379476Y-169568761D01*
X51284238Y-169616380D01*
X51093761Y-169616380D01*
X50998523Y-169568761D01*
X50950904Y-169521142D01*
X50903285Y-169425904D01*
X50903285Y-169187809D01*
X50950904Y-169092571D01*
X50998523Y-169044952D01*
X51093761Y-168997333D01*
X51284238Y-168997333D01*
X51379476Y-169044952D01*
X51427095Y-169092571D01*
X51474714Y-169187809D01*
X42330666Y-172537380D02*
X42664000Y-172061190D01*
X42902095Y-172537380D02*
X42902095Y-171537380D01*
X42521142Y-171537380D01*
X42425904Y-171585000D01*
X42378285Y-171632619D01*
X42330666Y-171727857D01*
X42330666Y-171870714D01*
X42378285Y-171965952D01*
X42425904Y-172013571D01*
X42521142Y-172061190D01*
X42902095Y-172061190D01*
X41997333Y-171537380D02*
X41330666Y-171537380D01*
X41759238Y-172537380D01*
X63245904Y-127976380D02*
X63245904Y-128785904D01*
X63198285Y-128881142D01*
X63150666Y-128928761D01*
X63055428Y-128976380D01*
X62864952Y-128976380D01*
X62769714Y-128928761D01*
X62722095Y-128881142D01*
X62674476Y-128785904D01*
X62674476Y-127976380D01*
X61674476Y-128976380D02*
X62245904Y-128976380D01*
X61960190Y-128976380D02*
X61960190Y-127976380D01*
X62055428Y-128119238D01*
X62150666Y-128214476D01*
X62245904Y-128262095D01*
X45207857Y-154376380D02*
X45541190Y-153900190D01*
X45779285Y-154376380D02*
X45779285Y-153376380D01*
X45398333Y-153376380D01*
X45303095Y-153424000D01*
X45255476Y-153471619D01*
X45207857Y-153566857D01*
X45207857Y-153709714D01*
X45255476Y-153804952D01*
X45303095Y-153852571D01*
X45398333Y-153900190D01*
X45779285Y-153900190D01*
X44255476Y-154376380D02*
X44826904Y-154376380D01*
X44541190Y-154376380D02*
X44541190Y-153376380D01*
X44636428Y-153519238D01*
X44731666Y-153614476D01*
X44826904Y-153662095D01*
X43636428Y-153376380D02*
X43541190Y-153376380D01*
X43445952Y-153424000D01*
X43398333Y-153471619D01*
X43350714Y-153566857D01*
X43303095Y-153757333D01*
X43303095Y-153995428D01*
X43350714Y-154185904D01*
X43398333Y-154281142D01*
X43445952Y-154328761D01*
X43541190Y-154376380D01*
X43636428Y-154376380D01*
X43731666Y-154328761D01*
X43779285Y-154281142D01*
X43826904Y-154185904D01*
X43874523Y-153995428D01*
X43874523Y-153757333D01*
X43826904Y-153566857D01*
X43779285Y-153471619D01*
X43731666Y-153424000D01*
X43636428Y-153376380D01*
X26876333Y-168362380D02*
X26876333Y-169076666D01*
X26923952Y-169219523D01*
X27019190Y-169314761D01*
X27162047Y-169362380D01*
X27257285Y-169362380D01*
X25876333Y-169362380D02*
X26447761Y-169362380D01*
X26162047Y-169362380D02*
X26162047Y-168362380D01*
X26257285Y-168505238D01*
X26352523Y-168600476D01*
X26447761Y-168648095D01*
X48005904Y-158456380D02*
X48005904Y-159265904D01*
X47958285Y-159361142D01*
X47910666Y-159408761D01*
X47815428Y-159456380D01*
X47624952Y-159456380D01*
X47529714Y-159408761D01*
X47482095Y-159361142D01*
X47434476Y-159265904D01*
X47434476Y-158456380D01*
X47005904Y-158551619D02*
X46958285Y-158504000D01*
X46863047Y-158456380D01*
X46624952Y-158456380D01*
X46529714Y-158504000D01*
X46482095Y-158551619D01*
X46434476Y-158646857D01*
X46434476Y-158742095D01*
X46482095Y-158884952D01*
X47053523Y-159456380D01*
X46434476Y-159456380D01*
X65444666Y-143708380D02*
X65778000Y-143232190D01*
X66016095Y-143708380D02*
X66016095Y-142708380D01*
X65635142Y-142708380D01*
X65539904Y-142756000D01*
X65492285Y-142803619D01*
X65444666Y-142898857D01*
X65444666Y-143041714D01*
X65492285Y-143136952D01*
X65539904Y-143184571D01*
X65635142Y-143232190D01*
X66016095Y-143232190D01*
X64492285Y-143708380D02*
X65063714Y-143708380D01*
X64778000Y-143708380D02*
X64778000Y-142708380D01*
X64873238Y-142851238D01*
X64968476Y-142946476D01*
X65063714Y-142994095D01*
X64987466Y-137110742D02*
X65035085Y-137158361D01*
X65177942Y-137205980D01*
X65273180Y-137205980D01*
X65416038Y-137158361D01*
X65511276Y-137063123D01*
X65558895Y-136967885D01*
X65606514Y-136777409D01*
X65606514Y-136634552D01*
X65558895Y-136444076D01*
X65511276Y-136348838D01*
X65416038Y-136253600D01*
X65273180Y-136205980D01*
X65177942Y-136205980D01*
X65035085Y-136253600D01*
X64987466Y-136301219D01*
X64654133Y-136205980D02*
X64035085Y-136205980D01*
X64368419Y-136586933D01*
X64225561Y-136586933D01*
X64130323Y-136634552D01*
X64082704Y-136682171D01*
X64035085Y-136777409D01*
X64035085Y-137015504D01*
X64082704Y-137110742D01*
X64130323Y-137158361D01*
X64225561Y-137205980D01*
X64511276Y-137205980D01*
X64606514Y-137158361D01*
X64654133Y-137110742D01*
X38393666Y-154662142D02*
X38441285Y-154709761D01*
X38584142Y-154757380D01*
X38679380Y-154757380D01*
X38822238Y-154709761D01*
X38917476Y-154614523D01*
X38965095Y-154519285D01*
X39012714Y-154328809D01*
X39012714Y-154185952D01*
X38965095Y-153995476D01*
X38917476Y-153900238D01*
X38822238Y-153805000D01*
X38679380Y-153757380D01*
X38584142Y-153757380D01*
X38441285Y-153805000D01*
X38393666Y-153852619D01*
X37822238Y-154185952D02*
X37917476Y-154138333D01*
X37965095Y-154090714D01*
X38012714Y-153995476D01*
X38012714Y-153947857D01*
X37965095Y-153852619D01*
X37917476Y-153805000D01*
X37822238Y-153757380D01*
X37631761Y-153757380D01*
X37536523Y-153805000D01*
X37488904Y-153852619D01*
X37441285Y-153947857D01*
X37441285Y-153995476D01*
X37488904Y-154090714D01*
X37536523Y-154138333D01*
X37631761Y-154185952D01*
X37822238Y-154185952D01*
X37917476Y-154233571D01*
X37965095Y-154281190D01*
X38012714Y-154376428D01*
X38012714Y-154566904D01*
X37965095Y-154662142D01*
X37917476Y-154709761D01*
X37822238Y-154757380D01*
X37631761Y-154757380D01*
X37536523Y-154709761D01*
X37488904Y-154662142D01*
X37441285Y-154566904D01*
X37441285Y-154376428D01*
X37488904Y-154281190D01*
X37536523Y-154233571D01*
X37631761Y-154185952D01*
X58205666Y-138660142D02*
X58253285Y-138707761D01*
X58396142Y-138755380D01*
X58491380Y-138755380D01*
X58634238Y-138707761D01*
X58729476Y-138612523D01*
X58777095Y-138517285D01*
X58824714Y-138326809D01*
X58824714Y-138183952D01*
X58777095Y-137993476D01*
X58729476Y-137898238D01*
X58634238Y-137803000D01*
X58491380Y-137755380D01*
X58396142Y-137755380D01*
X58253285Y-137803000D01*
X58205666Y-137850619D01*
X57729476Y-138755380D02*
X57539000Y-138755380D01*
X57443761Y-138707761D01*
X57396142Y-138660142D01*
X57300904Y-138517285D01*
X57253285Y-138326809D01*
X57253285Y-137945857D01*
X57300904Y-137850619D01*
X57348523Y-137803000D01*
X57443761Y-137755380D01*
X57634238Y-137755380D01*
X57729476Y-137803000D01*
X57777095Y-137850619D01*
X57824714Y-137945857D01*
X57824714Y-138183952D01*
X57777095Y-138279190D01*
X57729476Y-138326809D01*
X57634238Y-138374428D01*
X57443761Y-138374428D01*
X57348523Y-138326809D01*
X57300904Y-138279190D01*
X57253285Y-138183952D01*
X54109857Y-150693380D02*
X54443190Y-150217190D01*
X54681285Y-150693380D02*
X54681285Y-149693380D01*
X54300333Y-149693380D01*
X54205095Y-149741000D01*
X54157476Y-149788619D01*
X54109857Y-149883857D01*
X54109857Y-150026714D01*
X54157476Y-150121952D01*
X54205095Y-150169571D01*
X54300333Y-150217190D01*
X54681285Y-150217190D01*
X53728904Y-149788619D02*
X53681285Y-149741000D01*
X53586047Y-149693380D01*
X53347952Y-149693380D01*
X53252714Y-149741000D01*
X53205095Y-149788619D01*
X53157476Y-149883857D01*
X53157476Y-149979095D01*
X53205095Y-150121952D01*
X53776523Y-150693380D01*
X53157476Y-150693380D01*
X52776523Y-149788619D02*
X52728904Y-149741000D01*
X52633666Y-149693380D01*
X52395571Y-149693380D01*
X52300333Y-149741000D01*
X52252714Y-149788619D01*
X52205095Y-149883857D01*
X52205095Y-149979095D01*
X52252714Y-150121952D01*
X52824142Y-150693380D01*
X52205095Y-150693380D01*
X40298666Y-172537380D02*
X40632000Y-172061190D01*
X40870095Y-172537380D02*
X40870095Y-171537380D01*
X40489142Y-171537380D01*
X40393904Y-171585000D01*
X40346285Y-171632619D01*
X40298666Y-171727857D01*
X40298666Y-171870714D01*
X40346285Y-171965952D01*
X40393904Y-172013571D01*
X40489142Y-172061190D01*
X40870095Y-172061190D01*
X39822476Y-172537380D02*
X39632000Y-172537380D01*
X39536761Y-172489761D01*
X39489142Y-172442142D01*
X39393904Y-172299285D01*
X39346285Y-172108809D01*
X39346285Y-171727857D01*
X39393904Y-171632619D01*
X39441523Y-171585000D01*
X39536761Y-171537380D01*
X39727238Y-171537380D01*
X39822476Y-171585000D01*
X39870095Y-171632619D01*
X39917714Y-171727857D01*
X39917714Y-171965952D01*
X39870095Y-172061190D01*
X39822476Y-172108809D01*
X39727238Y-172156428D01*
X39536761Y-172156428D01*
X39441523Y-172108809D01*
X39393904Y-172061190D01*
X39346285Y-171965952D01*
X54236857Y-160853380D02*
X54570190Y-160377190D01*
X54808285Y-160853380D02*
X54808285Y-159853380D01*
X54427333Y-159853380D01*
X54332095Y-159901000D01*
X54284476Y-159948619D01*
X54236857Y-160043857D01*
X54236857Y-160186714D01*
X54284476Y-160281952D01*
X54332095Y-160329571D01*
X54427333Y-160377190D01*
X54808285Y-160377190D01*
X53284476Y-160853380D02*
X53855904Y-160853380D01*
X53570190Y-160853380D02*
X53570190Y-159853380D01*
X53665428Y-159996238D01*
X53760666Y-160091476D01*
X53855904Y-160139095D01*
X52427333Y-160186714D02*
X52427333Y-160853380D01*
X52665428Y-159805761D02*
X52903523Y-160520047D01*
X52284476Y-160520047D01*
X54236857Y-155900380D02*
X54570190Y-155424190D01*
X54808285Y-155900380D02*
X54808285Y-154900380D01*
X54427333Y-154900380D01*
X54332095Y-154948000D01*
X54284476Y-154995619D01*
X54236857Y-155090857D01*
X54236857Y-155233714D01*
X54284476Y-155328952D01*
X54332095Y-155376571D01*
X54427333Y-155424190D01*
X54808285Y-155424190D01*
X53284476Y-155900380D02*
X53855904Y-155900380D01*
X53570190Y-155900380D02*
X53570190Y-154900380D01*
X53665428Y-155043238D01*
X53760666Y-155138476D01*
X53855904Y-155186095D01*
X52379714Y-154900380D02*
X52855904Y-154900380D01*
X52903523Y-155376571D01*
X52855904Y-155328952D01*
X52760666Y-155281333D01*
X52522571Y-155281333D01*
X52427333Y-155328952D01*
X52379714Y-155376571D01*
X52332095Y-155471809D01*
X52332095Y-155709904D01*
X52379714Y-155805142D01*
X52427333Y-155852761D01*
X52522571Y-155900380D01*
X52760666Y-155900380D01*
X52855904Y-155852761D01*
X52903523Y-155805142D01*
X54236857Y-159202380D02*
X54570190Y-158726190D01*
X54808285Y-159202380D02*
X54808285Y-158202380D01*
X54427333Y-158202380D01*
X54332095Y-158250000D01*
X54284476Y-158297619D01*
X54236857Y-158392857D01*
X54236857Y-158535714D01*
X54284476Y-158630952D01*
X54332095Y-158678571D01*
X54427333Y-158726190D01*
X54808285Y-158726190D01*
X53284476Y-159202380D02*
X53855904Y-159202380D01*
X53570190Y-159202380D02*
X53570190Y-158202380D01*
X53665428Y-158345238D01*
X53760666Y-158440476D01*
X53855904Y-158488095D01*
X52427333Y-158202380D02*
X52617809Y-158202380D01*
X52713047Y-158250000D01*
X52760666Y-158297619D01*
X52855904Y-158440476D01*
X52903523Y-158630952D01*
X52903523Y-159011904D01*
X52855904Y-159107142D01*
X52808285Y-159154761D01*
X52713047Y-159202380D01*
X52522571Y-159202380D01*
X52427333Y-159154761D01*
X52379714Y-159107142D01*
X52332095Y-159011904D01*
X52332095Y-158773809D01*
X52379714Y-158678571D01*
X52427333Y-158630952D01*
X52522571Y-158583333D01*
X52713047Y-158583333D01*
X52808285Y-158630952D01*
X52855904Y-158678571D01*
X52903523Y-158773809D01*
X59443857Y-152725380D02*
X59777190Y-152249190D01*
X60015285Y-152725380D02*
X60015285Y-151725380D01*
X59634333Y-151725380D01*
X59539095Y-151773000D01*
X59491476Y-151820619D01*
X59443857Y-151915857D01*
X59443857Y-152058714D01*
X59491476Y-152153952D01*
X59539095Y-152201571D01*
X59634333Y-152249190D01*
X60015285Y-152249190D01*
X58491476Y-152725380D02*
X59062904Y-152725380D01*
X58777190Y-152725380D02*
X58777190Y-151725380D01*
X58872428Y-151868238D01*
X58967666Y-151963476D01*
X59062904Y-152011095D01*
X58015285Y-152725380D02*
X57824809Y-152725380D01*
X57729571Y-152677761D01*
X57681952Y-152630142D01*
X57586714Y-152487285D01*
X57539095Y-152296809D01*
X57539095Y-151915857D01*
X57586714Y-151820619D01*
X57634333Y-151773000D01*
X57729571Y-151725380D01*
X57920047Y-151725380D01*
X58015285Y-151773000D01*
X58062904Y-151820619D01*
X58110523Y-151915857D01*
X58110523Y-152153952D01*
X58062904Y-152249190D01*
X58015285Y-152296809D01*
X57920047Y-152344428D01*
X57729571Y-152344428D01*
X57634333Y-152296809D01*
X57586714Y-152249190D01*
X57539095Y-152153952D01*
X61348857Y-151074380D02*
X61682190Y-150598190D01*
X61920285Y-151074380D02*
X61920285Y-150074380D01*
X61539333Y-150074380D01*
X61444095Y-150122000D01*
X61396476Y-150169619D01*
X61348857Y-150264857D01*
X61348857Y-150407714D01*
X61396476Y-150502952D01*
X61444095Y-150550571D01*
X61539333Y-150598190D01*
X61920285Y-150598190D01*
X60967904Y-150169619D02*
X60920285Y-150122000D01*
X60825047Y-150074380D01*
X60586952Y-150074380D01*
X60491714Y-150122000D01*
X60444095Y-150169619D01*
X60396476Y-150264857D01*
X60396476Y-150360095D01*
X60444095Y-150502952D01*
X61015523Y-151074380D01*
X60396476Y-151074380D01*
X59777428Y-150074380D02*
X59682190Y-150074380D01*
X59586952Y-150122000D01*
X59539333Y-150169619D01*
X59491714Y-150264857D01*
X59444095Y-150455333D01*
X59444095Y-150693428D01*
X59491714Y-150883904D01*
X59539333Y-150979142D01*
X59586952Y-151026761D01*
X59682190Y-151074380D01*
X59777428Y-151074380D01*
X59872666Y-151026761D01*
X59920285Y-150979142D01*
X59967904Y-150883904D01*
X60015523Y-150693428D01*
X60015523Y-150455333D01*
X59967904Y-150264857D01*
X59920285Y-150169619D01*
X59872666Y-150122000D01*
X59777428Y-150074380D01*
X59316857Y-127103142D02*
X59364476Y-127150761D01*
X59507333Y-127198380D01*
X59602571Y-127198380D01*
X59745428Y-127150761D01*
X59840666Y-127055523D01*
X59888285Y-126960285D01*
X59935904Y-126769809D01*
X59935904Y-126626952D01*
X59888285Y-126436476D01*
X59840666Y-126341238D01*
X59745428Y-126246000D01*
X59602571Y-126198380D01*
X59507333Y-126198380D01*
X59364476Y-126246000D01*
X59316857Y-126293619D01*
X58364476Y-127198380D02*
X58935904Y-127198380D01*
X58650190Y-127198380D02*
X58650190Y-126198380D01*
X58745428Y-126341238D01*
X58840666Y-126436476D01*
X58935904Y-126484095D01*
X57745428Y-126198380D02*
X57650190Y-126198380D01*
X57554952Y-126246000D01*
X57507333Y-126293619D01*
X57459714Y-126388857D01*
X57412095Y-126579333D01*
X57412095Y-126817428D01*
X57459714Y-127007904D01*
X57507333Y-127103142D01*
X57554952Y-127150761D01*
X57650190Y-127198380D01*
X57745428Y-127198380D01*
X57840666Y-127150761D01*
X57888285Y-127103142D01*
X57935904Y-127007904D01*
X57983523Y-126817428D01*
X57983523Y-126579333D01*
X57935904Y-126388857D01*
X57888285Y-126293619D01*
X57840666Y-126246000D01*
X57745428Y-126198380D01*
X45124666Y-150947380D02*
X45458000Y-150471190D01*
X45696095Y-150947380D02*
X45696095Y-149947380D01*
X45315142Y-149947380D01*
X45219904Y-149995000D01*
X45172285Y-150042619D01*
X45124666Y-150137857D01*
X45124666Y-150280714D01*
X45172285Y-150375952D01*
X45219904Y-150423571D01*
X45315142Y-150471190D01*
X45696095Y-150471190D01*
X44553238Y-150375952D02*
X44648476Y-150328333D01*
X44696095Y-150280714D01*
X44743714Y-150185476D01*
X44743714Y-150137857D01*
X44696095Y-150042619D01*
X44648476Y-149995000D01*
X44553238Y-149947380D01*
X44362761Y-149947380D01*
X44267523Y-149995000D01*
X44219904Y-150042619D01*
X44172285Y-150137857D01*
X44172285Y-150185476D01*
X44219904Y-150280714D01*
X44267523Y-150328333D01*
X44362761Y-150375952D01*
X44553238Y-150375952D01*
X44648476Y-150423571D01*
X44696095Y-150471190D01*
X44743714Y-150566428D01*
X44743714Y-150756904D01*
X44696095Y-150852142D01*
X44648476Y-150899761D01*
X44553238Y-150947380D01*
X44362761Y-150947380D01*
X44267523Y-150899761D01*
X44219904Y-150852142D01*
X44172285Y-150756904D01*
X44172285Y-150566428D01*
X44219904Y-150471190D01*
X44267523Y-150423571D01*
X44362761Y-150375952D01*
X54109857Y-168124142D02*
X54157476Y-168171761D01*
X54300333Y-168219380D01*
X54395571Y-168219380D01*
X54538428Y-168171761D01*
X54633666Y-168076523D01*
X54681285Y-167981285D01*
X54728904Y-167790809D01*
X54728904Y-167647952D01*
X54681285Y-167457476D01*
X54633666Y-167362238D01*
X54538428Y-167267000D01*
X54395571Y-167219380D01*
X54300333Y-167219380D01*
X54157476Y-167267000D01*
X54109857Y-167314619D01*
X53157476Y-168219380D02*
X53728904Y-168219380D01*
X53443190Y-168219380D02*
X53443190Y-167219380D01*
X53538428Y-167362238D01*
X53633666Y-167457476D01*
X53728904Y-167505095D01*
X52776523Y-167314619D02*
X52728904Y-167267000D01*
X52633666Y-167219380D01*
X52395571Y-167219380D01*
X52300333Y-167267000D01*
X52252714Y-167314619D01*
X52205095Y-167409857D01*
X52205095Y-167505095D01*
X52252714Y-167647952D01*
X52824142Y-168219380D01*
X52205095Y-168219380D01*
X43975257Y-145492742D02*
X44022876Y-145540361D01*
X44165733Y-145587980D01*
X44260971Y-145587980D01*
X44403828Y-145540361D01*
X44499066Y-145445123D01*
X44546685Y-145349885D01*
X44594304Y-145159409D01*
X44594304Y-145016552D01*
X44546685Y-144826076D01*
X44499066Y-144730838D01*
X44403828Y-144635600D01*
X44260971Y-144587980D01*
X44165733Y-144587980D01*
X44022876Y-144635600D01*
X43975257Y-144683219D01*
X43022876Y-145587980D02*
X43594304Y-145587980D01*
X43308590Y-145587980D02*
X43308590Y-144587980D01*
X43403828Y-144730838D01*
X43499066Y-144826076D01*
X43594304Y-144873695D01*
X42070495Y-145587980D02*
X42641923Y-145587980D01*
X42356209Y-145587980D02*
X42356209Y-144587980D01*
X42451447Y-144730838D01*
X42546685Y-144826076D01*
X42641923Y-144873695D01*
X54248857Y-154249380D02*
X54582190Y-153773190D01*
X54820285Y-154249380D02*
X54820285Y-153249380D01*
X54439333Y-153249380D01*
X54344095Y-153297000D01*
X54296476Y-153344619D01*
X54248857Y-153439857D01*
X54248857Y-153582714D01*
X54296476Y-153677952D01*
X54344095Y-153725571D01*
X54439333Y-153773190D01*
X54820285Y-153773190D01*
X53296476Y-154249380D02*
X53867904Y-154249380D01*
X53582190Y-154249380D02*
X53582190Y-153249380D01*
X53677428Y-153392238D01*
X53772666Y-153487476D01*
X53867904Y-153535095D01*
X52725047Y-153677952D02*
X52820285Y-153630333D01*
X52867904Y-153582714D01*
X52915523Y-153487476D01*
X52915523Y-153439857D01*
X52867904Y-153344619D01*
X52820285Y-153297000D01*
X52725047Y-153249380D01*
X52534571Y-153249380D01*
X52439333Y-153297000D01*
X52391714Y-153344619D01*
X52344095Y-153439857D01*
X52344095Y-153487476D01*
X52391714Y-153582714D01*
X52439333Y-153630333D01*
X52534571Y-153677952D01*
X52725047Y-153677952D01*
X52820285Y-153725571D01*
X52867904Y-153773190D01*
X52915523Y-153868428D01*
X52915523Y-154058904D01*
X52867904Y-154154142D01*
X52820285Y-154201761D01*
X52725047Y-154249380D01*
X52534571Y-154249380D01*
X52439333Y-154201761D01*
X52391714Y-154154142D01*
X52344095Y-154058904D01*
X52344095Y-153868428D01*
X52391714Y-153773190D01*
X52439333Y-153725571D01*
X52534571Y-153677952D01*
X64269857Y-151074380D02*
X64603190Y-150598190D01*
X64841285Y-151074380D02*
X64841285Y-150074380D01*
X64460333Y-150074380D01*
X64365095Y-150122000D01*
X64317476Y-150169619D01*
X64269857Y-150264857D01*
X64269857Y-150407714D01*
X64317476Y-150502952D01*
X64365095Y-150550571D01*
X64460333Y-150598190D01*
X64841285Y-150598190D01*
X63888904Y-150169619D02*
X63841285Y-150122000D01*
X63746047Y-150074380D01*
X63507952Y-150074380D01*
X63412714Y-150122000D01*
X63365095Y-150169619D01*
X63317476Y-150264857D01*
X63317476Y-150360095D01*
X63365095Y-150502952D01*
X63936523Y-151074380D01*
X63317476Y-151074380D01*
X62984142Y-150074380D02*
X62365095Y-150074380D01*
X62698428Y-150455333D01*
X62555571Y-150455333D01*
X62460333Y-150502952D01*
X62412714Y-150550571D01*
X62365095Y-150645809D01*
X62365095Y-150883904D01*
X62412714Y-150979142D01*
X62460333Y-151026761D01*
X62555571Y-151074380D01*
X62841285Y-151074380D01*
X62936523Y-151026761D01*
X62984142Y-150979142D01*
X40639904Y-150963380D02*
X40639904Y-151772904D01*
X40592285Y-151868142D01*
X40544666Y-151915761D01*
X40449428Y-151963380D01*
X40258952Y-151963380D01*
X40163714Y-151915761D01*
X40116095Y-151868142D01*
X40068476Y-151772904D01*
X40068476Y-150963380D01*
X39163714Y-151296714D02*
X39163714Y-151963380D01*
X39401809Y-150915761D02*
X39639904Y-151630047D01*
X39020857Y-151630047D01*
X56243457Y-147416780D02*
X56576790Y-146940590D01*
X56814885Y-147416780D02*
X56814885Y-146416780D01*
X56433933Y-146416780D01*
X56338695Y-146464400D01*
X56291076Y-146512019D01*
X56243457Y-146607257D01*
X56243457Y-146750114D01*
X56291076Y-146845352D01*
X56338695Y-146892971D01*
X56433933Y-146940590D01*
X56814885Y-146940590D01*
X55291076Y-147416780D02*
X55862504Y-147416780D01*
X55576790Y-147416780D02*
X55576790Y-146416780D01*
X55672028Y-146559638D01*
X55767266Y-146654876D01*
X55862504Y-146702495D01*
X54910123Y-146512019D02*
X54862504Y-146464400D01*
X54767266Y-146416780D01*
X54529171Y-146416780D01*
X54433933Y-146464400D01*
X54386314Y-146512019D01*
X54338695Y-146607257D01*
X54338695Y-146702495D01*
X54386314Y-146845352D01*
X54957742Y-147416780D01*
X54338695Y-147416780D01*
X54236857Y-157551380D02*
X54570190Y-157075190D01*
X54808285Y-157551380D02*
X54808285Y-156551380D01*
X54427333Y-156551380D01*
X54332095Y-156599000D01*
X54284476Y-156646619D01*
X54236857Y-156741857D01*
X54236857Y-156884714D01*
X54284476Y-156979952D01*
X54332095Y-157027571D01*
X54427333Y-157075190D01*
X54808285Y-157075190D01*
X53284476Y-157551380D02*
X53855904Y-157551380D01*
X53570190Y-157551380D02*
X53570190Y-156551380D01*
X53665428Y-156694238D01*
X53760666Y-156789476D01*
X53855904Y-156837095D01*
X52951142Y-156551380D02*
X52284476Y-156551380D01*
X52713047Y-157551380D01*
X48801257Y-164231580D02*
X49134590Y-163755390D01*
X49372685Y-164231580D02*
X49372685Y-163231580D01*
X48991733Y-163231580D01*
X48896495Y-163279200D01*
X48848876Y-163326819D01*
X48801257Y-163422057D01*
X48801257Y-163564914D01*
X48848876Y-163660152D01*
X48896495Y-163707771D01*
X48991733Y-163755390D01*
X49372685Y-163755390D01*
X47848876Y-164231580D02*
X48420304Y-164231580D01*
X48134590Y-164231580D02*
X48134590Y-163231580D01*
X48229828Y-163374438D01*
X48325066Y-163469676D01*
X48420304Y-163517295D01*
X46896495Y-164231580D02*
X47467923Y-164231580D01*
X47182209Y-164231580D02*
X47182209Y-163231580D01*
X47277447Y-163374438D01*
X47372685Y-163469676D01*
X47467923Y-163517295D01*
X57378504Y-169835580D02*
X57378504Y-170645104D01*
X57330885Y-170740342D01*
X57283266Y-170787961D01*
X57188028Y-170835580D01*
X56997552Y-170835580D01*
X56902314Y-170787961D01*
X56854695Y-170740342D01*
X56807076Y-170645104D01*
X56807076Y-169835580D01*
X56426123Y-169835580D02*
X55807076Y-169835580D01*
X56140409Y-170216533D01*
X55997552Y-170216533D01*
X55902314Y-170264152D01*
X55854695Y-170311771D01*
X55807076Y-170407009D01*
X55807076Y-170645104D01*
X55854695Y-170740342D01*
X55902314Y-170787961D01*
X55997552Y-170835580D01*
X56283266Y-170835580D01*
X56378504Y-170787961D01*
X56426123Y-170740342D01*
X37853857Y-145264142D02*
X37901476Y-145311761D01*
X38044333Y-145359380D01*
X38139571Y-145359380D01*
X38282428Y-145311761D01*
X38377666Y-145216523D01*
X38425285Y-145121285D01*
X38472904Y-144930809D01*
X38472904Y-144787952D01*
X38425285Y-144597476D01*
X38377666Y-144502238D01*
X38282428Y-144407000D01*
X38139571Y-144359380D01*
X38044333Y-144359380D01*
X37901476Y-144407000D01*
X37853857Y-144454619D01*
X36901476Y-145359380D02*
X37472904Y-145359380D01*
X37187190Y-145359380D02*
X37187190Y-144359380D01*
X37282428Y-144502238D01*
X37377666Y-144597476D01*
X37472904Y-144645095D01*
X36568142Y-144359380D02*
X35949095Y-144359380D01*
X36282428Y-144740333D01*
X36139571Y-144740333D01*
X36044333Y-144787952D01*
X35996714Y-144835571D01*
X35949095Y-144930809D01*
X35949095Y-145168904D01*
X35996714Y-145264142D01*
X36044333Y-145311761D01*
X36139571Y-145359380D01*
X36425285Y-145359380D01*
X36520523Y-145311761D01*
X36568142Y-145264142D01*
X54236857Y-162504380D02*
X54570190Y-162028190D01*
X54808285Y-162504380D02*
X54808285Y-161504380D01*
X54427333Y-161504380D01*
X54332095Y-161552000D01*
X54284476Y-161599619D01*
X54236857Y-161694857D01*
X54236857Y-161837714D01*
X54284476Y-161932952D01*
X54332095Y-161980571D01*
X54427333Y-162028190D01*
X54808285Y-162028190D01*
X53284476Y-162504380D02*
X53855904Y-162504380D01*
X53570190Y-162504380D02*
X53570190Y-161504380D01*
X53665428Y-161647238D01*
X53760666Y-161742476D01*
X53855904Y-161790095D01*
X52951142Y-161504380D02*
X52332095Y-161504380D01*
X52665428Y-161885333D01*
X52522571Y-161885333D01*
X52427333Y-161932952D01*
X52379714Y-161980571D01*
X52332095Y-162075809D01*
X52332095Y-162313904D01*
X52379714Y-162409142D01*
X52427333Y-162456761D01*
X52522571Y-162504380D01*
X52808285Y-162504380D01*
X52903523Y-162456761D01*
X52951142Y-162409142D01*
D11*
X56550000Y-132723000D02*
X56550000Y-133723000D01*
X45050000Y-167886000D02*
X45050000Y-166886000D01*
X41267000Y-156626000D02*
X40267000Y-156626000D01*
X59090000Y-143010000D02*
X59090000Y-144010000D01*
X50765000Y-166235000D02*
X50765000Y-165235000D01*
X37600000Y-168748000D02*
X38600000Y-168748000D01*
X35949000Y-168748000D02*
X36949000Y-168748000D01*
X50765000Y-167886000D02*
X50765000Y-166886000D01*
X40902000Y-168748000D02*
X41902000Y-168748000D01*
D10*
X58556000Y-134103000D02*
X58556000Y-133578000D01*
X58556000Y-134103000D02*
X59081000Y-134103000D01*
X58556000Y-129803000D02*
X59081000Y-129803000D01*
X62856000Y-134103000D02*
X62331000Y-134103000D01*
X62856000Y-129803000D02*
X62331000Y-129803000D01*
X62856000Y-134103000D02*
X62856000Y-133578000D01*
X58556000Y-129803000D02*
X58556000Y-130328000D01*
D11*
X47348000Y-154297000D02*
X47348000Y-153297000D01*
X35257000Y-168014000D02*
X35257000Y-155014000D01*
X35257000Y-155014000D02*
X25957000Y-155014000D01*
X25957000Y-168014000D02*
X35257000Y-168014000D01*
X36535000Y-160035000D02*
X46735000Y-160035000D01*
X46735000Y-164735000D02*
X36535000Y-164735000D01*
X36535000Y-164735000D02*
X36535000Y-160035000D01*
X46735000Y-160035000D02*
X46735000Y-164735000D01*
X47058607Y-165535000D02*
G75*
G03*
X47058607Y-165535000I-223607J0D01*
G01*
X63130000Y-143010000D02*
X63130000Y-144010000D01*
X62576000Y-136009000D02*
X62576000Y-135009000D01*
X38727000Y-156626000D02*
X37727000Y-156626000D01*
X59317000Y-136363000D02*
X60317000Y-136363000D01*
X51065000Y-149995000D02*
X51065000Y-150995000D01*
X39251000Y-168748000D02*
X40251000Y-168748000D01*
X51065000Y-159901000D02*
X51065000Y-160901000D01*
X51065000Y-154948000D02*
X51065000Y-155948000D01*
X51089000Y-158250000D02*
X51089000Y-159250000D01*
X51065000Y-151646000D02*
X51065000Y-152646000D01*
X62730000Y-148601000D02*
X61730000Y-148601000D01*
X59217000Y-127770000D02*
X59217000Y-128770000D01*
X47360000Y-150995000D02*
X47360000Y-149995000D01*
X53094000Y-165597000D02*
X54094000Y-165597000D01*
X41540000Y-145931000D02*
X41540000Y-146931000D01*
X51065000Y-153297000D02*
X51065000Y-154297000D01*
X64381000Y-148601000D02*
X63381000Y-148601000D01*
X41178000Y-147480803D02*
X38578000Y-147480803D01*
X38578000Y-147480803D02*
X38578000Y-150680803D01*
X38578000Y-150680803D02*
X41178000Y-150680803D01*
X41178000Y-150680803D02*
X41178000Y-147480803D01*
X42301607Y-147230803D02*
G75*
G03*
X42301607Y-147230803I-223607J0D01*
G01*
X60952000Y-148601000D02*
X59952000Y-148601000D01*
X51077000Y-156599000D02*
X51077000Y-157599000D01*
X50765000Y-164203000D02*
X50765000Y-163203000D01*
X56770000Y-169005363D02*
X56770000Y-160355363D01*
X56770000Y-160355363D02*
X60070000Y-160355363D01*
X60070000Y-169005363D02*
X60070000Y-160355363D01*
X56770000Y-169005363D02*
X60070000Y-169005363D01*
X56016274Y-169110363D02*
G75*
G03*
X56016274Y-169110363I-226274J0D01*
G01*
X38089000Y-146931000D02*
X38089000Y-145931000D01*
X51089000Y-161552000D02*
X51089000Y-162552000D01*
M02*
