G04 #@! TF.GenerationSoftware,KiCad,Pcbnew,(6.0.9-0)*
G04 #@! TF.CreationDate,2024-06-11T23:07:02+01:00*
G04 #@! TF.ProjectId,RailLed,5261696c-4c65-4642-9e6b-696361645f70,rev?*
G04 #@! TF.SameCoordinates,Original*
G04 #@! TF.FileFunction,Paste,Top*
G04 #@! TF.FilePolarity,Positive*
%FSLAX46Y46*%
G04 Gerber Fmt 4.6, Leading zero omitted, Abs format (unit mm)*
G04 Created by KiCad (PCBNEW (6.0.9-0)) date 2024-06-11 23:07:02*
%MOMM*%
%LPD*%
G01*
G04 APERTURE LIST*
G04 Aperture macros list*
%AMRoundRect*
0 Rectangle with rounded corners*
0 $1 Rounding radius*
0 $2 $3 $4 $5 $6 $7 $8 $9 X,Y pos of 4 corners*
0 Add a 4 corners polygon primitive as box body*
4,1,4,$2,$3,$4,$5,$6,$7,$8,$9,$2,$3,0*
0 Add four circle primitives for the rounded corners*
1,1,$1+$1,$2,$3*
1,1,$1+$1,$4,$5*
1,1,$1+$1,$6,$7*
1,1,$1+$1,$8,$9*
0 Add four rect primitives between the rounded corners*
20,1,$1+$1,$2,$3,$4,$5,0*
20,1,$1+$1,$4,$5,$6,$7,0*
20,1,$1+$1,$6,$7,$8,$9,0*
20,1,$1+$1,$8,$9,$2,$3,0*%
G04 Aperture macros list end*
%ADD10R,0.900000X1.500000*%
%ADD11R,1.500000X0.900000*%
%ADD12R,0.900000X0.900000*%
%ADD13R,0.305000X0.889000*%
%ADD14R,1.400000X1.200000*%
%ADD15R,1.400000X3.500000*%
%ADD16RoundRect,0.112500X-0.637500X-0.112500X0.637500X-0.112500X0.637500X0.112500X-0.637500X0.112500X0*%
%ADD17R,1.000000X0.700000*%
%ADD18R,0.700000X1.000000*%
%ADD19R,2.650000X7.300000*%
%ADD20R,0.800000X0.800000*%
G04 APERTURE END LIST*
D10*
X22860000Y-61113300D03*
X24130000Y-61113300D03*
X25400000Y-61113300D03*
X26670000Y-61113300D03*
X27940000Y-61113300D03*
X29210000Y-61113300D03*
X30480000Y-61113300D03*
X31750000Y-61113300D03*
X33020000Y-61113300D03*
X34290000Y-61113300D03*
X35560000Y-61113300D03*
X36830000Y-61113300D03*
X38100000Y-61113300D03*
X39370000Y-61113300D03*
D11*
X40620000Y-58073300D03*
X40620000Y-56803300D03*
X40620000Y-55533300D03*
X40620000Y-54263300D03*
X40620000Y-52993300D03*
X40620000Y-51723300D03*
X40620000Y-50453300D03*
X40620000Y-49183300D03*
X40620000Y-47913300D03*
X40620000Y-46643300D03*
D10*
X39370000Y-43613300D03*
X38100000Y-43613300D03*
X36830000Y-43613300D03*
X35560000Y-43613300D03*
X34290000Y-43613300D03*
X33020000Y-43613300D03*
X31750000Y-43613300D03*
X30480000Y-43613300D03*
X29210000Y-43613300D03*
X27940000Y-43613300D03*
X26670000Y-43613300D03*
X25400000Y-43613300D03*
X24130000Y-43613300D03*
X22860000Y-43613300D03*
D12*
X29310000Y-53863300D03*
X31785000Y-55263300D03*
X30580000Y-55263300D03*
X31785000Y-53863300D03*
X29310000Y-55263300D03*
X31785000Y-52463300D03*
X30580000Y-53863300D03*
X29310000Y-52463300D03*
X30580000Y-52463300D03*
D13*
X100570000Y-113755500D03*
X101070000Y-113755500D03*
X101570000Y-113755500D03*
X102070000Y-113755500D03*
X102570000Y-113755500D03*
X102570000Y-109544500D03*
X102070000Y-109544500D03*
X101570000Y-109544500D03*
X101070000Y-109544500D03*
X100570000Y-109544500D03*
X90570000Y-113755500D03*
X91070000Y-113755500D03*
X91570000Y-113755500D03*
X92070000Y-113755500D03*
X92570000Y-113755500D03*
X92570000Y-109544500D03*
X92070000Y-109544500D03*
X91570000Y-109544500D03*
X91070000Y-109544500D03*
X90570000Y-109544500D03*
X80570000Y-113755500D03*
X81070000Y-113755500D03*
X81570000Y-113755500D03*
X82070000Y-113755500D03*
X82570000Y-113755500D03*
X82570000Y-109544500D03*
X82070000Y-109544500D03*
X81570000Y-109544500D03*
X81070000Y-109544500D03*
X80570000Y-109544500D03*
X70570000Y-113755500D03*
X71070000Y-113755500D03*
X71570000Y-113755500D03*
X72070000Y-113755500D03*
X72570000Y-113755500D03*
X72570000Y-109544500D03*
X72070000Y-109544500D03*
X71570000Y-109544500D03*
X71070000Y-109544500D03*
X70570000Y-109544500D03*
X60570000Y-113755500D03*
X61070000Y-113755500D03*
X61570000Y-113755500D03*
X62070000Y-113755500D03*
X62570000Y-113755500D03*
X62570000Y-109544500D03*
X62070000Y-109544500D03*
X61570000Y-109544500D03*
X61070000Y-109544500D03*
X60570000Y-109544500D03*
X50570000Y-113755500D03*
X51070000Y-113755500D03*
X51570000Y-113755500D03*
X52070000Y-113755500D03*
X52570000Y-113755500D03*
X52570000Y-109544500D03*
X52070000Y-109544500D03*
X51570000Y-109544500D03*
X51070000Y-109544500D03*
X50570000Y-109544500D03*
X40570000Y-113755500D03*
X41070000Y-113755500D03*
X41570000Y-113755500D03*
X42070000Y-113755500D03*
X42570000Y-113755500D03*
X42570000Y-109544500D03*
X42070000Y-109544500D03*
X41570000Y-109544500D03*
X41070000Y-109544500D03*
X40570000Y-109544500D03*
D14*
X43000000Y-90000000D03*
X43000000Y-87700000D03*
X43000000Y-85400000D03*
D15*
X36600000Y-87700000D03*
D16*
X98800000Y-37000000D03*
X98800000Y-37650000D03*
X98800000Y-38300000D03*
X98800000Y-38950000D03*
X98800000Y-39600000D03*
X98800000Y-40250000D03*
X98800000Y-40900000D03*
X98800000Y-41550000D03*
X98800000Y-42200000D03*
X98800000Y-42850000D03*
X98800000Y-43500000D03*
X98800000Y-44150000D03*
X98800000Y-44800000D03*
X98800000Y-45450000D03*
X98800000Y-46100000D03*
X98800000Y-46750000D03*
X106300000Y-46750000D03*
X106300000Y-46100000D03*
X106300000Y-45450000D03*
X106300000Y-44800000D03*
X106300000Y-44150000D03*
X106300000Y-43500000D03*
X106300000Y-42850000D03*
X106300000Y-42200000D03*
X106300000Y-41550000D03*
X106300000Y-40900000D03*
X106300000Y-40250000D03*
X106300000Y-39600000D03*
X106300000Y-38950000D03*
X106300000Y-38300000D03*
X106300000Y-37650000D03*
X106300000Y-37000000D03*
X88800000Y-37000000D03*
X88800000Y-37650000D03*
X88800000Y-38300000D03*
X88800000Y-38950000D03*
X88800000Y-39600000D03*
X88800000Y-40250000D03*
X88800000Y-40900000D03*
X88800000Y-41550000D03*
X88800000Y-42200000D03*
X88800000Y-42850000D03*
X88800000Y-43500000D03*
X88800000Y-44150000D03*
X88800000Y-44800000D03*
X88800000Y-45450000D03*
X88800000Y-46100000D03*
X88800000Y-46750000D03*
X96300000Y-46750000D03*
X96300000Y-46100000D03*
X96300000Y-45450000D03*
X96300000Y-44800000D03*
X96300000Y-44150000D03*
X96300000Y-43500000D03*
X96300000Y-42850000D03*
X96300000Y-42200000D03*
X96300000Y-41550000D03*
X96300000Y-40900000D03*
X96300000Y-40250000D03*
X96300000Y-39600000D03*
X96300000Y-38950000D03*
X96300000Y-38300000D03*
X96300000Y-37650000D03*
X96300000Y-37000000D03*
X78800000Y-37000000D03*
X78800000Y-37650000D03*
X78800000Y-38300000D03*
X78800000Y-38950000D03*
X78800000Y-39600000D03*
X78800000Y-40250000D03*
X78800000Y-40900000D03*
X78800000Y-41550000D03*
X78800000Y-42200000D03*
X78800000Y-42850000D03*
X78800000Y-43500000D03*
X78800000Y-44150000D03*
X78800000Y-44800000D03*
X78800000Y-45450000D03*
X78800000Y-46100000D03*
X78800000Y-46750000D03*
X86300000Y-46750000D03*
X86300000Y-46100000D03*
X86300000Y-45450000D03*
X86300000Y-44800000D03*
X86300000Y-44150000D03*
X86300000Y-43500000D03*
X86300000Y-42850000D03*
X86300000Y-42200000D03*
X86300000Y-41550000D03*
X86300000Y-40900000D03*
X86300000Y-40250000D03*
X86300000Y-39600000D03*
X86300000Y-38950000D03*
X86300000Y-38300000D03*
X86300000Y-37650000D03*
X86300000Y-37000000D03*
X68800000Y-37000000D03*
X68800000Y-37650000D03*
X68800000Y-38300000D03*
X68800000Y-38950000D03*
X68800000Y-39600000D03*
X68800000Y-40250000D03*
X68800000Y-40900000D03*
X68800000Y-41550000D03*
X68800000Y-42200000D03*
X68800000Y-42850000D03*
X68800000Y-43500000D03*
X68800000Y-44150000D03*
X68800000Y-44800000D03*
X68800000Y-45450000D03*
X68800000Y-46100000D03*
X68800000Y-46750000D03*
X76300000Y-46750000D03*
X76300000Y-46100000D03*
X76300000Y-45450000D03*
X76300000Y-44800000D03*
X76300000Y-44150000D03*
X76300000Y-43500000D03*
X76300000Y-42850000D03*
X76300000Y-42200000D03*
X76300000Y-41550000D03*
X76300000Y-40900000D03*
X76300000Y-40250000D03*
X76300000Y-39600000D03*
X76300000Y-38950000D03*
X76300000Y-38300000D03*
X76300000Y-37650000D03*
X76300000Y-37000000D03*
X58800000Y-37000000D03*
X58800000Y-37650000D03*
X58800000Y-38300000D03*
X58800000Y-38950000D03*
X58800000Y-39600000D03*
X58800000Y-40250000D03*
X58800000Y-40900000D03*
X58800000Y-41550000D03*
X58800000Y-42200000D03*
X58800000Y-42850000D03*
X58800000Y-43500000D03*
X58800000Y-44150000D03*
X58800000Y-44800000D03*
X58800000Y-45450000D03*
X58800000Y-46100000D03*
X58800000Y-46750000D03*
X66300000Y-46750000D03*
X66300000Y-46100000D03*
X66300000Y-45450000D03*
X66300000Y-44800000D03*
X66300000Y-44150000D03*
X66300000Y-43500000D03*
X66300000Y-42850000D03*
X66300000Y-42200000D03*
X66300000Y-41550000D03*
X66300000Y-40900000D03*
X66300000Y-40250000D03*
X66300000Y-39600000D03*
X66300000Y-38950000D03*
X66300000Y-38300000D03*
X66300000Y-37650000D03*
X66300000Y-37000000D03*
X48800000Y-37000000D03*
X48800000Y-37650000D03*
X48800000Y-38300000D03*
X48800000Y-38950000D03*
X48800000Y-39600000D03*
X48800000Y-40250000D03*
X48800000Y-40900000D03*
X48800000Y-41550000D03*
X48800000Y-42200000D03*
X48800000Y-42850000D03*
X48800000Y-43500000D03*
X48800000Y-44150000D03*
X48800000Y-44800000D03*
X48800000Y-45450000D03*
X48800000Y-46100000D03*
X48800000Y-46750000D03*
X56300000Y-46750000D03*
X56300000Y-46100000D03*
X56300000Y-45450000D03*
X56300000Y-44800000D03*
X56300000Y-44150000D03*
X56300000Y-43500000D03*
X56300000Y-42850000D03*
X56300000Y-42200000D03*
X56300000Y-41550000D03*
X56300000Y-40900000D03*
X56300000Y-40250000D03*
X56300000Y-39600000D03*
X56300000Y-38950000D03*
X56300000Y-38300000D03*
X56300000Y-37650000D03*
X56300000Y-37000000D03*
D17*
X104500000Y-114000000D03*
X104500000Y-112500000D03*
X104500000Y-111000000D03*
X104500000Y-109500000D03*
D18*
X99000000Y-111500000D03*
X97500000Y-111500000D03*
X96798000Y-113500000D03*
X98298000Y-113500000D03*
D17*
X94500000Y-114000000D03*
X94500000Y-112500000D03*
X94500000Y-111000000D03*
X94500000Y-109500000D03*
D18*
X89000000Y-111500000D03*
X87500000Y-111500000D03*
X86868000Y-113500000D03*
X88368000Y-113500000D03*
D17*
X84500000Y-114000000D03*
X84500000Y-112500000D03*
X84500000Y-111000000D03*
X84500000Y-109500000D03*
D18*
X79000000Y-111500000D03*
X77500000Y-111500000D03*
X76708000Y-113500000D03*
X78208000Y-113500000D03*
D17*
X74500000Y-114000000D03*
X74500000Y-112500000D03*
X74500000Y-111000000D03*
X74500000Y-109500000D03*
D18*
X69000000Y-111500000D03*
X67500000Y-111500000D03*
X67056000Y-113500000D03*
X68556000Y-113500000D03*
D17*
X64500000Y-114000000D03*
X64500000Y-112500000D03*
X64500000Y-111000000D03*
X64500000Y-109500000D03*
D18*
X59000000Y-111500000D03*
X57500000Y-111500000D03*
X56666000Y-113500000D03*
X58166000Y-113500000D03*
D17*
X54500000Y-114000000D03*
X54500000Y-112500000D03*
X54500000Y-111000000D03*
X54500000Y-109500000D03*
D18*
X49000000Y-111500000D03*
X47500000Y-111500000D03*
X46736000Y-113500000D03*
X48236000Y-113500000D03*
D17*
X44500000Y-114000000D03*
X44500000Y-112500000D03*
X44500000Y-111000000D03*
X44500000Y-109500000D03*
D18*
X39000000Y-111500000D03*
X37500000Y-111500000D03*
X37084000Y-113500000D03*
X38584000Y-113500000D03*
X33504000Y-76380000D03*
X32004000Y-76380000D03*
X33504000Y-73840000D03*
X32004000Y-73840000D03*
X28126600Y-63735900D03*
X29626600Y-63735900D03*
D17*
X100838000Y-33806000D03*
X100838000Y-35306000D03*
X94000000Y-33900000D03*
X94000000Y-35400000D03*
X84000000Y-33900000D03*
X84000000Y-35400000D03*
X74000000Y-33900000D03*
X74000000Y-35400000D03*
X64000000Y-33900000D03*
X64000000Y-35400000D03*
X54000000Y-33900000D03*
X54000000Y-35400000D03*
D18*
X35536000Y-109982000D03*
X34036000Y-109982000D03*
X35536000Y-108458000D03*
X34036000Y-108458000D03*
D19*
X99370000Y-119200000D03*
X104020000Y-119200000D03*
X89370000Y-119200000D03*
X94020000Y-119200000D03*
X79370000Y-119200000D03*
X84020000Y-119200000D03*
X69370000Y-119200000D03*
X74020000Y-119200000D03*
X59370000Y-119200000D03*
X64020000Y-119200000D03*
X49370000Y-119200000D03*
X54020000Y-119200000D03*
X39370000Y-119200000D03*
X44020000Y-119200000D03*
D20*
X105000000Y-105000000D03*
X105000000Y-103400000D03*
X105000000Y-100000000D03*
X105000000Y-98400000D03*
X105000000Y-95000000D03*
X105000000Y-93400000D03*
X105000000Y-90000000D03*
X105000000Y-88400000D03*
X105000000Y-85000000D03*
X105000000Y-83400000D03*
X105000000Y-80000000D03*
X105000000Y-78400000D03*
X105000000Y-75000000D03*
X105000000Y-73400000D03*
X105000000Y-70000000D03*
X105000000Y-68400000D03*
X105000000Y-65000000D03*
X105000000Y-63400000D03*
X105000000Y-60000000D03*
X105000000Y-58400000D03*
X105000000Y-55000000D03*
X105000000Y-53400000D03*
X105000000Y-50000000D03*
X105000000Y-48400000D03*
X100000000Y-50000000D03*
X100000000Y-48400000D03*
X100000000Y-55000000D03*
X100000000Y-53400000D03*
X100000000Y-60000000D03*
X100000000Y-58400000D03*
X100000000Y-65000000D03*
X100000000Y-63400000D03*
X100000000Y-70000000D03*
X100000000Y-68400000D03*
X100000000Y-75000000D03*
X100000000Y-73400000D03*
X100000000Y-80000000D03*
X100000000Y-78400000D03*
X100000000Y-85000000D03*
X100000000Y-83400000D03*
X100000000Y-90000000D03*
X100000000Y-88400000D03*
X100000000Y-95000000D03*
X100000000Y-93400000D03*
X100000000Y-100000000D03*
X100000000Y-98400000D03*
X100000000Y-105000000D03*
X100000000Y-103400000D03*
X95000000Y-105000000D03*
X95000000Y-103400000D03*
X95000000Y-100000000D03*
X95000000Y-98400000D03*
X95000000Y-95000000D03*
X95000000Y-93400000D03*
X95000000Y-90000000D03*
X95000000Y-88400000D03*
X95000000Y-85000000D03*
X95000000Y-83400000D03*
X95000000Y-80000000D03*
X95000000Y-78400000D03*
X95000000Y-75000000D03*
X95000000Y-73400000D03*
X95000000Y-70000000D03*
X95000000Y-68400000D03*
X95000000Y-65000000D03*
X95000000Y-63400000D03*
X95000000Y-60000000D03*
X95000000Y-58400000D03*
X95000000Y-55000000D03*
X95000000Y-53400000D03*
X95000000Y-50000000D03*
X95000000Y-48400000D03*
X90000000Y-50000000D03*
X90000000Y-48400000D03*
X90000000Y-55000000D03*
X90000000Y-53400000D03*
X90000000Y-60000000D03*
X90000000Y-58400000D03*
X90000000Y-65000000D03*
X90000000Y-63400000D03*
X90000000Y-70000000D03*
X90000000Y-68400000D03*
X90000000Y-75000000D03*
X90000000Y-73400000D03*
X90000000Y-80000000D03*
X90000000Y-78400000D03*
X90000000Y-85000000D03*
X90000000Y-83400000D03*
X90000000Y-90000000D03*
X90000000Y-88400000D03*
X90000000Y-95000000D03*
X90000000Y-93400000D03*
X90000000Y-100000000D03*
X90000000Y-98400000D03*
X90000000Y-105000000D03*
X90000000Y-103400000D03*
X85000000Y-105000000D03*
X85000000Y-103400000D03*
X85000000Y-100000000D03*
X85000000Y-98400000D03*
X85000000Y-95000000D03*
X85000000Y-93400000D03*
X85000000Y-90000000D03*
X85000000Y-88400000D03*
X85000000Y-85000000D03*
X85000000Y-83400000D03*
X85000000Y-80000000D03*
X85000000Y-78400000D03*
X85000000Y-75000000D03*
X85000000Y-73400000D03*
X85000000Y-70000000D03*
X85000000Y-68400000D03*
X85000000Y-65000000D03*
X85000000Y-63400000D03*
X85000000Y-60000000D03*
X85000000Y-58400000D03*
X85000000Y-55000000D03*
X85000000Y-53400000D03*
X85000000Y-50000000D03*
X85000000Y-48400000D03*
X80000000Y-50000000D03*
X80000000Y-48400000D03*
X80000000Y-55000000D03*
X80000000Y-53400000D03*
X80000000Y-60000000D03*
X80000000Y-58400000D03*
X80000000Y-65000000D03*
X80000000Y-63400000D03*
X80000000Y-70000000D03*
X80000000Y-68400000D03*
X80000000Y-75000000D03*
X80000000Y-73400000D03*
X80000000Y-80000000D03*
X80000000Y-78400000D03*
X80000000Y-85000000D03*
X80000000Y-83400000D03*
X80000000Y-90000000D03*
X80000000Y-88400000D03*
X80000000Y-95000000D03*
X80000000Y-93400000D03*
X80000000Y-100000000D03*
X80000000Y-98400000D03*
X80000000Y-105000000D03*
X80000000Y-103400000D03*
X75000000Y-105000000D03*
X75000000Y-103400000D03*
X75000000Y-100000000D03*
X75000000Y-98400000D03*
X75000000Y-95000000D03*
X75000000Y-93400000D03*
X75000000Y-90000000D03*
X75000000Y-88400000D03*
X75000000Y-85000000D03*
X75000000Y-83400000D03*
X75000000Y-80000000D03*
X75000000Y-78400000D03*
X75000000Y-75000000D03*
X75000000Y-73400000D03*
X75000000Y-70000000D03*
X75000000Y-68400000D03*
X75000000Y-65000000D03*
X75000000Y-63400000D03*
X75000000Y-60000000D03*
X75000000Y-58400000D03*
X75000000Y-55000000D03*
X75000000Y-53400000D03*
X75000000Y-50000000D03*
X75000000Y-48400000D03*
X70000000Y-50000000D03*
X70000000Y-48400000D03*
X70000000Y-55000000D03*
X70000000Y-53400000D03*
X70000000Y-60000000D03*
X70000000Y-58400000D03*
X70000000Y-65000000D03*
X70000000Y-63400000D03*
X70000000Y-70000000D03*
X70000000Y-68400000D03*
X70000000Y-75000000D03*
X70000000Y-73400000D03*
X70000000Y-80000000D03*
X70000000Y-78400000D03*
X70000000Y-85000000D03*
X70000000Y-83400000D03*
X70000000Y-90000000D03*
X70000000Y-88400000D03*
X70000000Y-95000000D03*
X70000000Y-93400000D03*
X70000000Y-100000000D03*
X70000000Y-98400000D03*
X70000000Y-105000000D03*
X70000000Y-103400000D03*
X65000000Y-105000000D03*
X65000000Y-103400000D03*
X65000000Y-100000000D03*
X65000000Y-98400000D03*
X65000000Y-95000000D03*
X65000000Y-93400000D03*
X65000000Y-90000000D03*
X65000000Y-88400000D03*
X65000000Y-85000000D03*
X65000000Y-83400000D03*
X65000000Y-80000000D03*
X65000000Y-78400000D03*
X65000000Y-75000000D03*
X65000000Y-73400000D03*
X65000000Y-70000000D03*
X65000000Y-68400000D03*
X65000000Y-65000000D03*
X65000000Y-63400000D03*
X65000000Y-60000000D03*
X65000000Y-58400000D03*
X65000000Y-55000000D03*
X65000000Y-53400000D03*
X65000000Y-50000000D03*
X65000000Y-48400000D03*
X60000000Y-50000000D03*
X60000000Y-48400000D03*
X60000000Y-55000000D03*
X60000000Y-53400000D03*
X60000000Y-60000000D03*
X60000000Y-58400000D03*
X60000000Y-65000000D03*
X60000000Y-63400000D03*
X60000000Y-70000000D03*
X60000000Y-68400000D03*
X60000000Y-75000000D03*
X60000000Y-73400000D03*
X60000000Y-80000000D03*
X60000000Y-78400000D03*
X60000000Y-85000000D03*
X60000000Y-83400000D03*
X60000000Y-90000000D03*
X60000000Y-88400000D03*
X60000000Y-95000000D03*
X60000000Y-93400000D03*
X60000000Y-100000000D03*
X60000000Y-98400000D03*
X60000000Y-105000000D03*
X60000000Y-103400000D03*
X55000000Y-105000000D03*
X55000000Y-103400000D03*
X55000000Y-100000000D03*
X55000000Y-98400000D03*
X55000000Y-95000000D03*
X55000000Y-93400000D03*
X55000000Y-90000000D03*
X55000000Y-88400000D03*
X55000000Y-85000000D03*
X55000000Y-83400000D03*
X55000000Y-80000000D03*
X55000000Y-78400000D03*
X55000000Y-75000000D03*
X55000000Y-73400000D03*
X55000000Y-70000000D03*
X55000000Y-68400000D03*
X55000000Y-65000000D03*
X55000000Y-63400000D03*
X55000000Y-60000000D03*
X55000000Y-58400000D03*
X55000000Y-55000000D03*
X55000000Y-53400000D03*
X55000000Y-50000000D03*
X55000000Y-48400000D03*
X50000000Y-50000000D03*
X50000000Y-48400000D03*
X50000000Y-55000000D03*
X50000000Y-53400000D03*
X50000000Y-60000000D03*
X50000000Y-58400000D03*
X50000000Y-65000000D03*
X50000000Y-63400000D03*
X50000000Y-70000000D03*
X50000000Y-68400000D03*
X50000000Y-75000000D03*
X50000000Y-73400000D03*
X50000000Y-80000000D03*
X50000000Y-78400000D03*
X50000000Y-85000000D03*
X50000000Y-83400000D03*
X50000000Y-90000000D03*
X50000000Y-88400000D03*
X50000000Y-95000000D03*
X50000000Y-93400000D03*
X50000000Y-100000000D03*
X50000000Y-98400000D03*
X50000000Y-105000000D03*
X50000000Y-103400000D03*
D18*
X103000000Y-108000000D03*
X104500000Y-108000000D03*
X99000000Y-110000000D03*
X97500000Y-110000000D03*
X100500000Y-108000000D03*
X99000000Y-108000000D03*
X93000000Y-108000000D03*
X94500000Y-108000000D03*
X89000000Y-110000000D03*
X87500000Y-110000000D03*
X90500000Y-108000000D03*
X89000000Y-108000000D03*
X83000000Y-108000000D03*
X84500000Y-108000000D03*
X79000000Y-110000000D03*
X77500000Y-110000000D03*
X80500000Y-108000000D03*
X79000000Y-108000000D03*
X73000000Y-108000000D03*
X74500000Y-108000000D03*
X69000000Y-110000000D03*
X67500000Y-110000000D03*
X70500000Y-108000000D03*
X69000000Y-108000000D03*
X63000000Y-108000000D03*
X64500000Y-108000000D03*
X59000000Y-110000000D03*
X57500000Y-110000000D03*
X60500000Y-108000000D03*
X59000000Y-108000000D03*
X53000000Y-108000000D03*
X54500000Y-108000000D03*
X49000000Y-110000000D03*
X47500000Y-110000000D03*
X50500000Y-108000000D03*
X49000000Y-108000000D03*
X43000000Y-108000000D03*
X44500000Y-108000000D03*
X39000000Y-110000000D03*
X37500000Y-110000000D03*
X40500000Y-108000000D03*
X39000000Y-108000000D03*
X32369800Y-63735900D03*
X30869800Y-63735900D03*
X22372800Y-63735900D03*
X23872800Y-63735900D03*
X26756400Y-63735900D03*
X25256400Y-63735900D03*
D17*
X106300000Y-35400000D03*
X106300000Y-33900000D03*
X96300000Y-35400000D03*
X96300000Y-33900000D03*
X86300000Y-35400000D03*
X86300000Y-33900000D03*
X76300000Y-35400000D03*
X76300000Y-33900000D03*
X66300000Y-35400000D03*
X66300000Y-33900000D03*
X56300000Y-35400000D03*
X56300000Y-33900000D03*
D18*
X35536000Y-111506000D03*
X34036000Y-111506000D03*
M02*
