%TF.GenerationSoftware,KiCad,Pcbnew,(6.0.9-0)*%
%TF.CreationDate,2023-12-07T00:14:27+00:00*%
%TF.ProjectId,BalanceBoard,42616c61-6e63-4654-926f-6172642e6b69,rev?*%
%TF.SameCoordinates,Original*%
%TF.FileFunction,Drillmap*%
%TF.FilePolarity,Positive*%
%FSLAX45Y45*%
G04 Gerber Fmt 4.5, Leading zero omitted, Abs format (unit mm)*
G04 Created by KiCad (PCBNEW (6.0.9-0)) date 2023-12-07 00:14:27*
%MOMM*%
%LPD*%
G01*
G04 APERTURE LIST*
%ADD10C,0.050000*%
%ADD11C,0.200000*%
G04 APERTURE END LIST*
D10*
X6820803Y-14781897D02*
G75*
G03*
X6947803Y-14908897I126997J-3D01*
G01*
X2540000Y-15760700D02*
X3111500Y-15760700D01*
X2540903Y-15037703D02*
X2540000Y-15367000D01*
X6818997Y-12573903D02*
X6820803Y-14781897D01*
X3961200Y-13335000D02*
G75*
G03*
X3961200Y-13335000I-75000J0D01*
G01*
X2540903Y-17271097D02*
G75*
G03*
X2667903Y-17398097I126997J-3D01*
G01*
X3961200Y-13589000D02*
G75*
G03*
X3961200Y-13589000I-75000J0D01*
G01*
X3961200Y-14351000D02*
G75*
G03*
X3961200Y-14351000I-75000J0D01*
G01*
X2540000Y-16548100D02*
X2540903Y-17271097D01*
X6818997Y-12573903D02*
G75*
G03*
X6691997Y-12446903I-126997J3D01*
G01*
X3341003Y-12446903D02*
G75*
G03*
X3214003Y-12573903I-3J-126997D01*
G01*
X3111500Y-16548100D02*
X2540000Y-16548100D01*
X4570800Y-13335000D02*
G75*
G03*
X4570800Y-13335000I-75000J0D01*
G01*
X3961200Y-12573000D02*
G75*
G03*
X3961200Y-12573000I-75000J0D01*
G01*
X6947803Y-14908897D02*
X7365097Y-14910703D01*
X4570800Y-13843000D02*
G75*
G03*
X4570800Y-13843000I-75000J0D01*
G01*
X4712603Y-14781897D02*
G75*
G03*
X4839603Y-14908897I126997J-3D01*
G01*
X5449203Y-12446903D02*
X6691997Y-12446903D01*
X7365097Y-17398097D02*
G75*
G03*
X7492097Y-17271097I3J126997D01*
G01*
X7492097Y-15037703D02*
G75*
G03*
X7365097Y-14910703I-126997J3D01*
G01*
X4570800Y-13081000D02*
G75*
G03*
X4570800Y-13081000I-75000J0D01*
G01*
X3085197Y-14908897D02*
X2667903Y-14910703D01*
X3961200Y-13843000D02*
G75*
G03*
X3961200Y-13843000I-75000J0D01*
G01*
X3085197Y-14908897D02*
G75*
G03*
X3212197Y-14781897I3J126997D01*
G01*
X4570800Y-13589000D02*
G75*
G03*
X4570800Y-13589000I-75000J0D01*
G01*
X4570800Y-12827000D02*
G75*
G03*
X4570800Y-12827000I-75000J0D01*
G01*
X3111500Y-15760700D02*
X3111500Y-16548100D01*
X5320397Y-14781897D02*
X5322203Y-12573903D01*
X3961200Y-13081000D02*
G75*
G03*
X3961200Y-13081000I-75000J0D01*
G01*
X2540000Y-15367000D02*
X2540000Y-15760700D01*
X3341003Y-12446903D02*
X4583797Y-12446903D01*
X3212197Y-14781897D02*
X3214003Y-12573903D01*
X3961200Y-12827000D02*
G75*
G03*
X3961200Y-12827000I-75000J0D01*
G01*
X4710797Y-12573903D02*
G75*
G03*
X4583797Y-12446903I-126997J3D01*
G01*
X4570800Y-14097000D02*
G75*
G03*
X4570800Y-14097000I-75000J0D01*
G01*
X3961200Y-14097000D02*
G75*
G03*
X3961200Y-14097000I-75000J0D01*
G01*
X2667903Y-14910703D02*
G75*
G03*
X2540903Y-15037703I-3J-126997D01*
G01*
X5449203Y-12446903D02*
G75*
G03*
X5322203Y-12573903I-3J-126997D01*
G01*
X4570800Y-12573000D02*
G75*
G03*
X4570800Y-12573000I-75000J0D01*
G01*
X5193397Y-14908897D02*
G75*
G03*
X5320397Y-14781897I3J126997D01*
G01*
X2667903Y-17398097D02*
X7365097Y-17398097D01*
X4710797Y-12573903D02*
X4712603Y-14781897D01*
X4570800Y-14351000D02*
G75*
G03*
X4570800Y-14351000I-75000J0D01*
G01*
X7492097Y-17271097D02*
X7492097Y-15037703D01*
X4839603Y-14908897D02*
X5193397Y-14908897D01*
D11*
X2795119Y-17711074D02*
X2795119Y-17511074D01*
X2842738Y-17511074D01*
X2871309Y-17520597D01*
X2890357Y-17539645D01*
X2899881Y-17558693D01*
X2909405Y-17596788D01*
X2909405Y-17625359D01*
X2899881Y-17663455D01*
X2890357Y-17682502D01*
X2871309Y-17701550D01*
X2842738Y-17711074D01*
X2795119Y-17711074D01*
X2995119Y-17711074D02*
X2995119Y-17577740D01*
X2995119Y-17615835D02*
X3004643Y-17596788D01*
X3014167Y-17587264D01*
X3033214Y-17577740D01*
X3052262Y-17577740D01*
X3118928Y-17711074D02*
X3118928Y-17577740D01*
X3118928Y-17511074D02*
X3109405Y-17520597D01*
X3118928Y-17530121D01*
X3128452Y-17520597D01*
X3118928Y-17511074D01*
X3118928Y-17530121D01*
X3242738Y-17711074D02*
X3223690Y-17701550D01*
X3214167Y-17682502D01*
X3214167Y-17511074D01*
X3347500Y-17711074D02*
X3328452Y-17701550D01*
X3318928Y-17682502D01*
X3318928Y-17511074D01*
X3576071Y-17711074D02*
X3576071Y-17511074D01*
X3642738Y-17653931D01*
X3709405Y-17511074D01*
X3709405Y-17711074D01*
X3890357Y-17711074D02*
X3890357Y-17606312D01*
X3880833Y-17587264D01*
X3861786Y-17577740D01*
X3823690Y-17577740D01*
X3804643Y-17587264D01*
X3890357Y-17701550D02*
X3871309Y-17711074D01*
X3823690Y-17711074D01*
X3804643Y-17701550D01*
X3795119Y-17682502D01*
X3795119Y-17663455D01*
X3804643Y-17644407D01*
X3823690Y-17634883D01*
X3871309Y-17634883D01*
X3890357Y-17625359D01*
X3985595Y-17577740D02*
X3985595Y-17777740D01*
X3985595Y-17587264D02*
X4004643Y-17577740D01*
X4042738Y-17577740D01*
X4061786Y-17587264D01*
X4071309Y-17596788D01*
X4080833Y-17615835D01*
X4080833Y-17672978D01*
X4071309Y-17692026D01*
X4061786Y-17701550D01*
X4042738Y-17711074D01*
X4004643Y-17711074D01*
X3985595Y-17701550D01*
X4166548Y-17692026D02*
X4176071Y-17701550D01*
X4166548Y-17711074D01*
X4157024Y-17701550D01*
X4166548Y-17692026D01*
X4166548Y-17711074D01*
X4166548Y-17587264D02*
X4176071Y-17596788D01*
X4166548Y-17606312D01*
X4157024Y-17596788D01*
X4166548Y-17587264D01*
X4166548Y-17606312D01*
M02*
