M48
; DRILL file {KiCad (6.0.9-0)} date Thursday, 07 December 2023 at 00:14:07
; FORMAT={-:-/ absolute / inch / decimal}
; #@! TF.CreationDate,2023-12-07T00:14:07+00:00
; #@! TF.GenerationSoftware,Kicad,Pcbnew,(6.0.9-0)
; #@! TF.FileFunction,Plated,1,2,PTH
FMAT,2
INCH
; #@! TA.AperFunction,Plated,PTH,ViaDrill
T1C0.0157
; #@! TA.AperFunction,Plated,PTH,ComponentDrill
T2C0.0354
%
G90
G05
T1
X1.02Y-5.92
X1.02Y-5.96
X1.02Y-6.0
X1.02Y-6.04
X1.02Y-6.08
X1.06Y-5.92
X1.06Y-5.96
X1.06Y-6.0
X1.06Y-6.04
X1.06Y-6.08
X1.1Y-5.92
X1.14Y-5.92
X1.18Y-5.92
X1.22Y-5.92
X1.22Y-5.96
X1.22Y-6.0
X1.22Y-6.04
X1.22Y-6.08
X1.2581Y-6.2219
X1.2581Y-6.2669
X1.26Y-5.96
X1.26Y-6.0
X1.26Y-6.04
X1.26Y-6.08
X1.26Y-6.445
X1.26Y-6.485
X1.38Y-6.13
X1.38Y-6.175
X1.4139Y-6.29
X1.435Y-6.725
X1.455Y-6.16
X1.455Y-6.2
X1.5Y-6.725
X1.545Y-5.85
X1.545Y-5.905
X1.565Y-6.725
X1.5929Y-6.32
X1.5943Y-6.3702
X1.595Y-5.85
X1.595Y-5.905
X1.63Y-6.725
X1.69Y-6.725
X1.705Y-6.59
X1.705Y-6.645
X1.7327Y-6.4619
X1.735Y-5.85
X1.735Y-5.895
X1.735Y-5.94
X1.735Y-5.985
X1.75Y-6.645
X1.8Y-6.8
X1.81Y-6.645
X1.85Y-6.8
X1.9Y-5.965
X1.9Y-6.0
X1.9Y-6.095
X1.9Y-6.13
X1.9Y-6.8
X1.925Y-6.185
X1.925Y-6.25
X1.925Y-6.315
X1.925Y-6.38
X1.935Y-5.965
X1.935Y-6.0
X1.935Y-6.095
X1.935Y-6.13
X1.95Y-6.8
X1.99Y-6.64
X2.0Y-6.8
X2.0008Y-6.485
X2.05Y-6.8
X2.08Y-6.45
X2.1Y-6.8
X2.14Y-6.42
X2.15Y-6.66
X2.15Y-6.8
X2.1852Y-6.2502
X2.2Y-6.8
X2.21Y-6.185
X2.25Y-5.195
X2.25Y-5.295
X2.25Y-5.35
X2.25Y-6.8
X2.252Y-6.64
X2.255Y-6.445
X2.265Y-6.285
X2.265Y-6.35
X2.265Y-6.395
X2.265Y-6.595
X2.282Y-6.48
X2.3Y-5.99
X2.3Y-6.8
X2.305Y-6.37
X2.305Y-6.4165
X2.335Y-6.515
X2.338Y-6.562
X2.35Y-6.8
X2.37Y-6.66
X2.38Y-5.77
X2.38Y-5.92
X2.4Y-5.43
X2.4Y-5.595
X2.4Y-6.8
X2.44Y-5.39
X2.44Y-5.43
X2.45Y-5.77
X2.45Y-5.972
X2.45Y-6.8
X2.46Y-5.595
X2.48Y-5.39
X2.48Y-5.43
X2.5Y-5.92
X2.5Y-6.8
X2.51Y-4.96
X2.51Y-5.0
X2.51Y-5.595
X2.515Y-5.77
X2.54Y-6.485
X2.55Y-6.7
X2.55Y-6.75
X2.55Y-6.8
X2.555Y-6.055
X2.6Y-6.65
X2.6Y-6.7
X2.6Y-6.75
X2.6Y-6.8
X2.65Y-6.65
X2.65Y-6.7
X2.65Y-6.75
X2.65Y-6.8
X2.7Y-6.65
X2.7Y-6.7
X2.7Y-6.75
X2.7Y-6.8
X2.75Y-5.9
X2.75Y-5.95
X2.75Y-6.0
X2.75Y-6.65
X2.75Y-6.7
X2.75Y-6.75
X2.75Y-6.8
X2.8Y-5.9
X2.8Y-5.95
X2.8Y-6.0
X2.8Y-6.65
X2.8Y-6.7
X2.8Y-6.75
X2.8Y-6.8
X2.85Y-5.9
X2.85Y-5.95
X2.85Y-6.0
X2.85Y-6.05
X2.85Y-6.1
X2.85Y-6.15
X2.85Y-6.65
X2.85Y-6.7
X2.85Y-6.75
X2.85Y-6.8
X2.9Y-5.9
X2.9Y-5.95
X2.9Y-6.0
X2.9Y-6.05
X2.9Y-6.1
X2.9Y-6.15
X2.9Y-6.2
X2.9Y-6.25
X2.9Y-6.65
X2.9Y-6.7
X2.9Y-6.75
X2.9Y-6.8
T2
X2.6316Y-6.16
X2.6316Y-6.26
X2.6316Y-6.36
X2.6316Y-6.46
X2.6316Y-6.56
X2.7316Y-6.16
X2.7316Y-6.26
X2.7316Y-6.36
X2.7316Y-6.46
X2.7316Y-6.56
T0
M30
